<svg viewBox="0.000000 0.000000 800.000000 500.000000" xmlns="http://www.w3.org/2000/svg">
   <g transform="translate(400.000000, 500.000000)">
     <g transform="translate(0.000000, -150.000000)">
       <g transform="rotate(-30.000000)">
         <g transform="translate(0.000000, -99.000000)">
           <g transform="rotate(-30.000000)">
             <g transform="translate(0.000000, -65.340000)">
               <g transform="rotate(-30.000000)">
                 <g transform="translate(0.000000, -43.124400)">
                   <g transform="rotate(-30.000000)">
                     <g transform="translate(0.000000, -28.462104)">
                       <circle r="1.500000"/>
                     </g>
                     <line  x1="0.000000" y1="0.000000" x2="0.000000" y2="-28.462104" stroke="black"/>
                   </g>
                   <g transform="rotate(30.000000)">
                     <g transform="translate(0.000000, -28.462104)">
                       <circle r="1.500000"/>
                     </g>
                     <line  x1="0.000000" y1="0.000000" x2="0.000000" y2="-28.462104" stroke="black"/>
                   </g>
                 </g>
                 <line  x1="0.000000" y1="0.000000" x2="0.000000" y2="-43.124400" stroke="black"/>
               </g>
               <g transform="rotate(30.000000)">
                 <g transform="translate(0.000000, -43.124400)">
                   <g transform="rotate(-30.000000)">
                     <g transform="translate(0.000000, -28.462104)">
                       <circle r="1.500000"/>
                     </g>
                     <line  x1="0.000000" y1="0.000000" x2="0.000000" y2="-28.462104" stroke="black"/>
                   </g>
                   <g transform="rotate(30.000000)">
                     <g transform="translate(0.000000, -28.462104)">
                       <circle r="1.500000"/>
                     </g>
                     <line  x1="0.000000" y1="0.000000" x2="0.000000" y2="-28.462104" stroke="black"/>
                   </g>
                 </g>
                 <line  x1="0.000000" y1="0.000000" x2="0.000000" y2="-43.124400" stroke="black"/>
               </g>
             </g>
             <line  x1="0.000000" y1="0.000000" x2="0.000000" y2="-65.340000" stroke="black"/>
           </g>
           <g transform="rotate(30.000000)">
             <g transform="translate(0.000000, -65.340000)">
               <g transform="rotate(-30.000000)">
                 <g transform="translate(0.000000, -43.124400)">
                   <g transform="rotate(-30.000000)">
                     <g transform="translate(0.000000, -28.462104)">
                       <circle r="1.500000"/>
                     </g>
                     <line  x1="0.000000" y1="0.000000" x2="0.000000" y2="-28.462104" stroke="black"/>
                   </g>
                   <g transform="rotate(30.000000)">
                     <g transform="translate(0.000000, -28.462104)">
                       <circle r="1.500000"/>
                     </g>
                     <line  x1="0.000000" y1="0.000000" x2="0.000000" y2="-28.462104" stroke="black"/>
                   </g>
                 </g>
                 <line  x1="0.000000" y1="0.000000" x2="0.000000" y2="-43.124400" stroke="black"/>
               </g>
               <g transform="rotate(30.000000)">
                 <g transform="translate(0.000000, -43.124400)">
                   <g transform="rotate(-30.000000)">
                     <g transform="translate(0.000000, -28.462104)">
                       <circle r="1.500000"/>
                     </g>
                     <line  x1="0.000000" y1="0.000000" x2="0.000000" y2="-28.462104" stroke="black"/>
                   </g>
                   <g transform="rotate(30.000000)">
                     <g transform="translate(0.000000, -28.462104)">
                       <circle r="1.500000"/>
                     </g>
                     <line  x1="0.000000" y1="0.000000" x2="0.000000" y2="-28.462104" stroke="black"/>
                   </g>
                 </g>
                 <line  x1="0.000000" y1="0.000000" x2="0.000000" y2="-43.124400" stroke="black"/>
               </g>
             </g>
             <line  x1="0.000000" y1="0.000000" x2="0.000000" y2="-65.340000" stroke="black"/>
           </g>
         </g>
         <line  x1="0.000000" y1="0.000000" x2="0.000000" y2="-99.000000" stroke="black"/>
       </g>
       <g transform="rotate(30.000000)">
         <g transform="translate(0.000000, -99.000000)">
           <g transform="rotate(-30.000000)">
             <g transform="translate(0.000000, -65.340000)">
               <g transform="rotate(-30.000000)">
                 <g transform="translate(0.000000, -43.124400)">
                   <g transform="rotate(-30.000000)">
                     <g transform="translate(0.000000, -28.462104)">
                       <circle r="1.500000"/>
                     </g>
                     <line  x1="0.000000" y1="0.000000" x2="0.000000" y2="-28.462104" stroke="black"/>
                   </g>
                   <g transform="rotate(30.000000)">
                     <g transform="translate(0.000000, -28.462104)">
                       <circle r="1.500000"/>
                     </g>
                     <line  x1="0.000000" y1="0.000000" x2="0.000000" y2="-28.462104" stroke="black"/>
                   </g>
                 </g>
                 <line  x1="0.000000" y1="0.000000" x2="0.000000" y2="-43.124400" stroke="black"/>
               </g>
               <g transform="rotate(30.000000)">
                 <g transform="translate(0.000000, -43.124400)">
                   <g transform="rotate(-30.000000)">
                     <g transform="translate(0.000000, -28.462104)">
                       <circle r="1.500000"/>
                     </g>
                     <line  x1="0.000000" y1="0.000000" x2="0.000000" y2="-28.462104" stroke="black"/>
                   </g>
                   <g transform="rotate(30.000000)">
                     <g transform="translate(0.000000, -28.462104)">
                       <circle r="1.500000"/>
                     </g>
                     <line  x1="0.000000" y1="0.000000" x2="0.000000" y2="-28.462104" stroke="black"/>
                   </g>
                 </g>
                 <line  x1="0.000000" y1="0.000000" x2="0.000000" y2="-43.124400" stroke="black"/>
               </g>
             </g>
             <line  x1="0.000000" y1="0.000000" x2="0.000000" y2="-65.340000" stroke="black"/>
           </g>
           <g transform="rotate(30.000000)">
             <g transform="translate(0.000000, -65.340000)">
               <g transform="rotate(-30.000000)">
                 <g transform="translate(0.000000, -43.124400)">
                   <g transform="rotate(-30.000000)">
                     <g transform="translate(0.000000, -28.462104)">
                       <circle r="1.500000"/>
                     </g>
                     <line  x1="0.000000" y1="0.000000" x2="0.000000" y2="-28.462104" stroke="black"/>
                   </g>
                   <g transform="rotate(30.000000)">
                     <g transform="translate(0.000000, -28.462104)">
                       <circle r="1.500000"/>
                     </g>
                     <line  x1="0.000000" y1="0.000000" x2="0.000000" y2="-28.462104" stroke="black"/>
                   </g>
                 </g>
                 <line  x1="0.000000" y1="0.000000" x2="0.000000" y2="-43.124400" stroke="black"/>
               </g>
               <g transform="rotate(30.000000)">
                 <g transform="translate(0.000000, -43.124400)">
                   <g transform="rotate(-30.000000)">
                     <g transform="translate(0.000000, -28.462104)">
                       <circle r="1.500000"/>
                     </g>
                     <line  x1="0.000000" y1="0.000000" x2="0.000000" y2="-28.462104" stroke="black"/>
                   </g>
                   <g transform="rotate(30.000000)">
                     <g transform="translate(0.000000, -28.462104)">
                       <circle r="1.500000"/>
                     </g>
                     <line  x1="0.000000" y1="0.000000" x2="0.000000" y2="-28.462104" stroke="black"/>
                   </g>
                 </g>
                 <line  x1="0.000000" y1="0.000000" x2="0.000000" y2="-43.124400" stroke="black"/>
               </g>
             </g>
             <line  x1="0.000000" y1="0.000000" x2="0.000000" y2="-65.340000" stroke="black"/>
           </g>
         </g>
         <line  x1="0.000000" y1="0.000000" x2="0.000000" y2="-99.000000" stroke="black"/>
       </g>
     </g>
     <line  x1="0.000000" y1="0.000000" x2="0.000000" y2="-150.000000" stroke="black"/>
   </g>
</svg>
