<?xml version="1.0" encoding="UTF-8" standalone="no"?>
<!DOCTYPE svg PUBLIC "-//W3C//DTD SVG 1.1//EN"
 "http://www.w3.org/Graphics/SVG/1.1/DTD/svg11.dtd">
<!-- Generated by graphviz version 12.2.1 (0)
 -->
<!-- Title: garden Pages: 1 -->
<svg width="839pt" height="859pt"
 viewBox="0.00 0.00 839.20 859.00" xmlns="http://www.w3.org/2000/svg" xmlns:xlink="http://www.w3.org/1999/xlink">
<g id="graph0" class="graph" transform="scale(1 1) rotate(0) translate(4 855)">
<title>garden</title>
<polygon fill="white" stroke="none" points="-4,4 -4,-855 835.2,-855 835.2,4 -4,4"/>
<g id="clust1" class="cluster">
<title>elab</title>
<path fill="gainsboro" stroke="none" d="M20,-498C20,-498 811.2,-498 811.2,-498 817.2,-498 823.2,-504 823.2,-510 823.2,-510 823.2,-831 823.2,-831 823.2,-837 817.2,-843 811.2,-843 811.2,-843 20,-843 20,-843 14,-843 8,-837 8,-831 8,-831 8,-510 8,-510 8,-504 14,-498 20,-498"/>
<text text-anchor="middle" x="415.6" y="-825.7" font-family="Helvetica,Arial,sans-serif" font-size="14.00">elab</text>
</g>
<g id="clust2" class="cluster">
<title>compile</title>
<path fill="gainsboro" stroke="none" d="M258.05,-361C258.05,-361 598.27,-361 598.27,-361 604.27,-361 610.27,-367 610.27,-373 610.27,-373 610.27,-478 610.27,-478 610.27,-484 604.27,-490 598.27,-490 598.27,-490 258.05,-490 258.05,-490 252.05,-490 246.05,-484 246.05,-478 246.05,-478 246.05,-373 246.05,-373 246.05,-367 252.05,-361 258.05,-361"/>
<text text-anchor="middle" x="428.16" y="-472.7" font-family="Helvetica,Arial,sans-serif" font-size="14.00">compile</text>
</g>
<g id="clust3" class="cluster">
<title>lang</title>
<path fill="gainsboro" stroke="none" d="M221.67,-8C221.67,-8 619.65,-8 619.65,-8 625.65,-8 631.65,-14 631.65,-20 631.65,-20 631.65,-341 631.65,-341 631.65,-347 625.65,-353 619.65,-353 619.65,-353 221.67,-353 221.67,-353 215.67,-353 209.67,-347 209.67,-341 209.67,-341 209.67,-20 209.67,-20 209.67,-14 215.67,-8 221.67,-8"/>
<text text-anchor="middle" x="420.66" y="-335.7" font-family="Helvetica,Arial,sans-serif" font-size="14.00">lang</text>
</g>
<!-- elab&#45;dependent -->
<g id="node1" class="node">
<title>elab&#45;dependent</title>
<path fill="white" stroke="none" d="M356.72,-542C356.72,-542 258.17,-542 258.17,-542 252.17,-542 246.17,-536 246.17,-530 246.17,-530 246.17,-518 246.17,-518 246.17,-512 252.17,-506 258.17,-506 258.17,-506 356.72,-506 356.72,-506 362.72,-506 368.72,-512 368.72,-518 368.72,-518 368.72,-530 368.72,-530 368.72,-536 362.72,-542 356.72,-542"/>
<text text-anchor="middle" x="307.45" y="-518.2" font-family="Helvetica,Arial,sans-serif" font-size="14.00">elab&#45;dependent</text>
</g>
<!-- elab&#45;dependent&#45;sugar -->
<g id="node2" class="node">
<title>elab&#45;dependent&#45;sugar</title>
<path fill="white" stroke="none" d="M602.65,-542C602.65,-542 465.85,-542 465.85,-542 459.85,-542 453.85,-536 453.85,-530 453.85,-530 453.85,-518 453.85,-518 453.85,-512 459.85,-506 465.85,-506 465.85,-506 602.65,-506 602.65,-506 608.65,-506 614.65,-512 614.65,-518 614.65,-518 614.65,-530 614.65,-530 614.65,-536 608.65,-542 602.65,-542"/>
<text text-anchor="middle" x="534.25" y="-518.2" font-family="Helvetica,Arial,sans-serif" font-size="14.00">elab&#45;dependent&#45;sugar</text>
</g>
<!-- elab&#45;dependent&#45;&gt;elab&#45;dependent&#45;sugar -->
<g id="edge15" class="edge">
<title>elab&#45;dependent&#45;&gt;elab&#45;dependent&#45;sugar</title>
<path fill="none" stroke="black" d="M368.99,-524C391.54,-524 417.67,-524 442.35,-524"/>
<polygon fill="black" stroke="black" points="442.06,-527.5 452.06,-524 442.06,-520.5 442.06,-527.5"/>
</g>
<!-- elab&#45;record&#45;patching -->
<g id="node3" class="node">
<title>elab&#45;record&#45;patching</title>
<path fill="white" stroke="none" d="M802.45,-542C802.45,-542 673.9,-542 673.9,-542 667.9,-542 661.9,-536 661.9,-530 661.9,-530 661.9,-518 661.9,-518 661.9,-512 667.9,-506 673.9,-506 673.9,-506 802.45,-506 802.45,-506 808.45,-506 814.45,-512 814.45,-518 814.45,-518 814.45,-530 814.45,-530 814.45,-536 808.45,-542 802.45,-542"/>
<text text-anchor="middle" x="738.17" y="-518.2" font-family="Helvetica,Arial,sans-serif" font-size="14.00">elab&#45;record&#45;patching</text>
</g>
<!-- elab&#45;dependent&#45;sugar&#45;&gt;elab&#45;record&#45;patching -->
<g id="edge16" class="edge">
<title>elab&#45;dependent&#45;sugar&#45;&gt;elab&#45;record&#45;patching</title>
<path fill="none" stroke="black" d="M615.06,-524C626.67,-524 638.67,-524 650.41,-524"/>
<polygon fill="black" stroke="black" points="650.05,-527.5 660.05,-524 650.05,-520.5 650.05,-527.5"/>
</g>
<!-- elab&#45;system&#45;f&#45;bidirectional -->
<g id="node4" class="node">
<title>elab&#45;system&#45;f&#45;bidirectional</title>
<path fill="white" stroke="none" d="M388.97,-596C388.97,-596 225.92,-596 225.92,-596 219.92,-596 213.92,-590 213.92,-584 213.92,-584 213.92,-572 213.92,-572 213.92,-566 219.92,-560 225.92,-560 225.92,-560 388.97,-560 388.97,-560 394.97,-560 400.97,-566 400.97,-572 400.97,-572 400.97,-584 400.97,-584 400.97,-590 394.97,-596 388.97,-596"/>
<text text-anchor="middle" x="307.45" y="-572.2" font-family="Helvetica,Arial,sans-serif" font-size="14.00">elab&#45;system&#45;f&#45;bidirectional</text>
</g>
<!-- elab&#45;system&#45;f&#45;unification -->
<g id="node5" class="node">
<title>elab&#45;system&#45;f&#45;unification</title>
<path fill="white" stroke="none" d="M610.15,-596C610.15,-596 458.35,-596 458.35,-596 452.35,-596 446.35,-590 446.35,-584 446.35,-584 446.35,-572 446.35,-572 446.35,-566 452.35,-560 458.35,-560 458.35,-560 610.15,-560 610.15,-560 616.15,-560 622.15,-566 622.15,-572 622.15,-572 622.15,-584 622.15,-584 622.15,-590 616.15,-596 610.15,-596"/>
<text text-anchor="middle" x="534.25" y="-572.2" font-family="Helvetica,Arial,sans-serif" font-size="14.00">elab&#45;system&#45;f&#45;unification</text>
</g>
<!-- elab&#45;system&#45;f&#45;bidirectional&#45;&gt;elab&#45;system&#45;f&#45;unification -->
<g id="edge14" class="edge">
<title>elab&#45;system&#45;f&#45;bidirectional&#45;&gt;elab&#45;system&#45;f&#45;unification</title>
<path fill="none" stroke="black" d="M401.18,-578C412.22,-578 423.53,-578 434.65,-578"/>
<polygon fill="black" stroke="black" points="434.63,-581.5 444.63,-578 434.63,-574.5 434.63,-581.5"/>
</g>
<!-- elab&#45;generics -->
<g id="node6" class="node">
<title>elab&#45;generics</title>
<path fill="white" stroke="none" d="M577.15,-650C577.15,-650 491.35,-650 491.35,-650 485.35,-650 479.35,-644 479.35,-638 479.35,-638 479.35,-626 479.35,-626 479.35,-620 485.35,-614 491.35,-614 491.35,-614 577.15,-614 577.15,-614 583.15,-614 589.15,-620 589.15,-626 589.15,-626 589.15,-638 589.15,-638 589.15,-644 583.15,-650 577.15,-650"/>
<text text-anchor="middle" x="534.25" y="-626.2" font-family="Helvetica,Arial,sans-serif" font-size="14.00">elab&#45;generics</text>
</g>
<!-- elab&#45;generics&#45;lettype -->
<g id="node7" class="node">
<title>elab&#45;generics&#45;lettype</title>
<path fill="white" stroke="none" d="M803.2,-650C803.2,-650 673.15,-650 673.15,-650 667.15,-650 661.15,-644 661.15,-638 661.15,-638 661.15,-626 661.15,-626 661.15,-620 667.15,-614 673.15,-614 673.15,-614 803.2,-614 803.2,-614 809.2,-614 815.2,-620 815.2,-626 815.2,-626 815.2,-638 815.2,-638 815.2,-644 809.2,-650 803.2,-650"/>
<text text-anchor="middle" x="738.17" y="-626.2" font-family="Helvetica,Arial,sans-serif" font-size="14.00">elab&#45;generics&#45;lettype</text>
</g>
<!-- elab&#45;generics&#45;&gt;elab&#45;generics&#45;lettype -->
<g id="edge13" class="edge">
<title>elab&#45;generics&#45;&gt;elab&#45;generics&#45;lettype</title>
<path fill="none" stroke="black" d="M589.63,-632C607.97,-632 628.95,-632 649.21,-632"/>
<polygon fill="black" stroke="black" points="649.19,-635.5 659.19,-632 649.19,-628.5 649.19,-635.5"/>
</g>
<!-- elab&#45;stlc&#45;bidirectional -->
<g id="node8" class="node">
<title>elab&#45;stlc&#45;bidirectional</title>
<path fill="white" stroke="none" d="M159.55,-596C159.55,-596 28,-596 28,-596 22,-596 16,-590 16,-584 16,-584 16,-572 16,-572 16,-566 22,-560 28,-560 28,-560 159.55,-560 159.55,-560 165.55,-560 171.55,-566 171.55,-572 171.55,-572 171.55,-584 171.55,-584 171.55,-590 165.55,-596 159.55,-596"/>
<text text-anchor="middle" x="93.77" y="-572.2" font-family="Helvetica,Arial,sans-serif" font-size="14.00">elab&#45;stlc&#45;bidirectional</text>
</g>
<!-- elab&#45;stlc&#45;bidirectional&#45;&gt;elab&#45;dependent -->
<g id="edge6" class="edge">
<title>elab&#45;stlc&#45;bidirectional&#45;&gt;elab&#45;dependent</title>
<path fill="none" stroke="black" d="M167.03,-559.57C188.96,-553.97 213.03,-547.83 234.91,-542.25"/>
<polygon fill="black" stroke="black" points="235.49,-545.71 244.32,-539.85 233.76,-538.93 235.49,-545.71"/>
</g>
<!-- elab&#45;stlc&#45;bidirectional&#45;&gt;elab&#45;system&#45;f&#45;bidirectional -->
<g id="edge5" class="edge">
<title>elab&#45;stlc&#45;bidirectional&#45;&gt;elab&#45;system&#45;f&#45;bidirectional</title>
<path fill="none" stroke="black" d="M171.79,-578C181.67,-578 191.91,-578 202.13,-578"/>
<polygon fill="black" stroke="black" points="202.13,-581.5 212.13,-578 202.13,-574.5 202.13,-581.5"/>
</g>
<!-- elab&#45;stlc&#45;unification -->
<g id="node9" class="node">
<title>elab&#45;stlc&#45;unification</title>
<path fill="white" stroke="none" d="M367.6,-650C367.6,-650 247.3,-650 247.3,-650 241.3,-650 235.3,-644 235.3,-638 235.3,-638 235.3,-626 235.3,-626 235.3,-620 241.3,-614 247.3,-614 247.3,-614 367.6,-614 367.6,-614 373.6,-614 379.6,-620 379.6,-626 379.6,-626 379.6,-638 379.6,-638 379.6,-644 373.6,-650 367.6,-650"/>
<text text-anchor="middle" x="307.45" y="-626.2" font-family="Helvetica,Arial,sans-serif" font-size="14.00">elab&#45;stlc&#45;unification</text>
</g>
<!-- elab&#45;stlc&#45;bidirectional&#45;&gt;elab&#45;stlc&#45;unification -->
<g id="edge3" class="edge">
<title>elab&#45;stlc&#45;bidirectional&#45;&gt;elab&#45;stlc&#45;unification</title>
<path fill="none" stroke="black" d="M167.03,-596.43C185.35,-601.11 205.17,-606.16 223.96,-610.96"/>
<polygon fill="black" stroke="black" points="222.86,-614.29 233.41,-613.37 224.59,-607.5 222.86,-614.29"/>
</g>
<!-- elab&#45;stlc&#45;bidirectional&#45;stratify -->
<g id="node10" class="node">
<title>elab&#45;stlc&#45;bidirectional&#45;stratify</title>
<path fill="white" stroke="none" d="M395.35,-704C395.35,-704 219.55,-704 219.55,-704 213.55,-704 207.55,-698 207.55,-692 207.55,-692 207.55,-680 207.55,-680 207.55,-674 213.55,-668 219.55,-668 219.55,-668 395.35,-668 395.35,-668 401.35,-668 407.35,-674 407.35,-680 407.35,-680 407.35,-692 407.35,-692 407.35,-698 401.35,-704 395.35,-704"/>
<text text-anchor="middle" x="307.45" y="-680.2" font-family="Helvetica,Arial,sans-serif" font-size="14.00">elab&#45;stlc&#45;bidirectional&#45;stratify</text>
</g>
<!-- elab&#45;stlc&#45;bidirectional&#45;&gt;elab&#45;stlc&#45;bidirectional&#45;stratify -->
<g id="edge2" class="edge">
<title>elab&#45;stlc&#45;bidirectional&#45;&gt;elab&#45;stlc&#45;bidirectional&#45;stratify</title>
<path fill="none" stroke="black" d="M115.37,-596.29C136.94,-614.57 172.51,-642.3 207.55,-659 210.88,-660.59 214.33,-662.1 217.84,-663.53"/>
<polygon fill="black" stroke="black" points="216.54,-666.78 227.13,-667.05 219.03,-660.23 216.54,-666.78"/>
</g>
<!-- elab&#45;stlc&#45;abstract -->
<g id="node11" class="node">
<title>elab&#45;stlc&#45;abstract</title>
<path fill="white" stroke="none" d="M361.22,-758C361.22,-758 253.67,-758 253.67,-758 247.67,-758 241.67,-752 241.67,-746 241.67,-746 241.67,-734 241.67,-734 241.67,-728 247.67,-722 253.67,-722 253.67,-722 361.22,-722 361.22,-722 367.22,-722 373.22,-728 373.22,-734 373.22,-734 373.22,-746 373.22,-746 373.22,-752 367.22,-758 361.22,-758"/>
<text text-anchor="middle" x="307.45" y="-734.2" font-family="Helvetica,Arial,sans-serif" font-size="14.00">elab&#45;stlc&#45;abstract</text>
</g>
<!-- elab&#45;stlc&#45;bidirectional&#45;&gt;elab&#45;stlc&#45;abstract -->
<g id="edge4" class="edge">
<title>elab&#45;stlc&#45;bidirectional&#45;&gt;elab&#45;stlc&#45;abstract</title>
<path fill="none" stroke="black" d="M105.02,-596.35C122.28,-625.57 160.01,-682.48 207.55,-713 214.63,-717.55 222.47,-721.33 230.55,-724.49"/>
<polygon fill="black" stroke="black" points="229.23,-727.74 239.83,-727.78 231.57,-721.14 229.23,-727.74"/>
</g>
<!-- elab&#45;stlc&#45;error&#45;recovery -->
<g id="node14" class="node">
<title>elab&#45;stlc&#45;error&#45;recovery</title>
<path fill="white" stroke="none" d="M379.6,-812C379.6,-812 235.3,-812 235.3,-812 229.3,-812 223.3,-806 223.3,-800 223.3,-800 223.3,-788 223.3,-788 223.3,-782 229.3,-776 235.3,-776 235.3,-776 379.6,-776 379.6,-776 385.6,-776 391.6,-782 391.6,-788 391.6,-788 391.6,-800 391.6,-800 391.6,-806 385.6,-812 379.6,-812"/>
<text text-anchor="middle" x="307.45" y="-788.2" font-family="Helvetica,Arial,sans-serif" font-size="14.00">elab&#45;stlc&#45;error&#45;recovery</text>
</g>
<!-- elab&#45;stlc&#45;bidirectional&#45;&gt;elab&#45;stlc&#45;error&#45;recovery -->
<g id="edge1" class="edge">
<title>elab&#45;stlc&#45;bidirectional&#45;&gt;elab&#45;stlc&#45;error&#45;recovery</title>
<path fill="none" stroke="black" d="M100.43,-596.23C113.14,-634.09 147.61,-721.47 207.55,-767 209.51,-768.49 211.54,-769.89 213.64,-771.22"/>
<polygon fill="black" stroke="black" points="211.43,-774 221.87,-775.82 214.85,-767.89 211.43,-774"/>
</g>
<!-- compile&#45;fofl -->
<g id="node17" class="node">
<title>compile&#45;fofl</title>
<path fill="white" stroke="none" d="M344.72,-459C344.72,-459 270.17,-459 270.17,-459 264.17,-459 258.17,-453 258.17,-447 258.17,-447 258.17,-435 258.17,-435 258.17,-429 264.17,-423 270.17,-423 270.17,-423 344.72,-423 344.72,-423 350.72,-423 356.72,-429 356.72,-435 356.72,-435 356.72,-447 356.72,-447 356.72,-453 350.72,-459 344.72,-459"/>
<text text-anchor="middle" x="307.45" y="-435.2" font-family="Helvetica,Arial,sans-serif" font-size="14.00">compile&#45;fofl</text>
</g>
<!-- elab&#45;stlc&#45;bidirectional&#45;&gt;compile&#45;fofl -->
<g id="edge8" class="edge">
<title>elab&#45;stlc&#45;bidirectional&#45;&gt;compile&#45;fofl</title>
<path fill="none" stroke="black" d="M117.39,-559.59C139.67,-541.84 174.99,-514.69 207.55,-494 223.89,-483.62 242.45,-473.31 259.04,-464.58"/>
<polygon fill="black" stroke="black" points="260.47,-467.78 267.73,-460.06 257.24,-461.57 260.47,-467.78"/>
</g>
<!-- lang&#45;doc&#45;templates -->
<g id="node23" class="node">
<title>lang&#45;doc&#45;templates</title>
<path fill="white" stroke="none" d="M367.6,-268C367.6,-268 247.3,-268 247.3,-268 241.3,-268 235.3,-262 235.3,-256 235.3,-256 235.3,-244 235.3,-244 235.3,-238 241.3,-232 247.3,-232 247.3,-232 367.6,-232 367.6,-232 373.6,-232 379.6,-238 379.6,-244 379.6,-244 379.6,-256 379.6,-256 379.6,-262 373.6,-268 367.6,-268"/>
<text text-anchor="middle" x="307.45" y="-244.2" font-family="Helvetica,Arial,sans-serif" font-size="14.00">lang&#45;doc&#45;templates</text>
</g>
<!-- elab&#45;stlc&#45;bidirectional&#45;&gt;lang&#45;doc&#45;templates -->
<g id="edge7" class="edge">
<title>elab&#45;stlc&#45;bidirectional&#45;&gt;lang&#45;doc&#45;templates</title>
<path fill="none" stroke="black" d="M96.04,-559.61C100.64,-507.2 121.17,-355.78 207.55,-277 212.68,-272.32 218.55,-268.43 224.81,-265.22"/>
<polygon fill="black" stroke="black" points="225.85,-268.59 233.54,-261.31 222.99,-262.2 225.85,-268.59"/>
</g>
<!-- elab&#45;stlc&#45;unification&#45;&gt;elab&#45;system&#45;f&#45;unification -->
<g id="edge12" class="edge">
<title>elab&#45;stlc&#45;unification&#45;&gt;elab&#45;system&#45;f&#45;unification</title>
<path fill="none" stroke="black" d="M379.89,-614.84C400.78,-609.82 423.87,-604.27 445.65,-599.04"/>
<polygon fill="black" stroke="black" points="446.18,-602.52 455.08,-596.78 444.54,-595.71 446.18,-602.52"/>
</g>
<!-- elab&#45;stlc&#45;unification&#45;&gt;elab&#45;generics -->
<g id="edge11" class="edge">
<title>elab&#45;stlc&#45;unification&#45;&gt;elab&#45;generics</title>
<path fill="none" stroke="black" d="M379.89,-632C408.01,-632 440.1,-632 467.63,-632"/>
<polygon fill="black" stroke="black" points="467.61,-635.5 477.61,-632 467.61,-628.5 467.61,-635.5"/>
</g>
<!-- elab&#45;stlc&#45;row&#45;unification -->
<g id="node12" class="node">
<title>elab&#45;stlc&#45;row&#45;unification</title>
<path fill="white" stroke="none" d="M607.52,-704C607.52,-704 460.97,-704 460.97,-704 454.97,-704 448.97,-698 448.97,-692 448.97,-692 448.97,-680 448.97,-680 448.97,-674 454.97,-668 460.97,-668 460.97,-668 607.52,-668 607.52,-668 613.52,-668 619.52,-674 619.52,-680 619.52,-680 619.52,-692 619.52,-692 619.52,-698 613.52,-704 607.52,-704"/>
<text text-anchor="middle" x="534.25" y="-680.2" font-family="Helvetica,Arial,sans-serif" font-size="14.00">elab&#45;stlc&#45;row&#45;unification</text>
</g>
<!-- elab&#45;stlc&#45;unification&#45;&gt;elab&#45;stlc&#45;row&#45;unification -->
<g id="edge10" class="edge">
<title>elab&#45;stlc&#45;unification&#45;&gt;elab&#45;stlc&#45;row&#45;unification</title>
<path fill="none" stroke="black" d="M379.89,-649.16C400.78,-654.18 423.87,-659.73 445.65,-664.96"/>
<polygon fill="black" stroke="black" points="444.54,-668.29 455.08,-667.22 446.18,-661.48 444.54,-668.29"/>
</g>
<!-- elab&#45;stlc&#45;letrec&#45;unification -->
<g id="node13" class="node">
<title>elab&#45;stlc&#45;letrec&#45;unification</title>
<path fill="white" stroke="none" d="M613.15,-758C613.15,-758 455.35,-758 455.35,-758 449.35,-758 443.35,-752 443.35,-746 443.35,-746 443.35,-734 443.35,-734 443.35,-728 449.35,-722 455.35,-722 455.35,-722 613.15,-722 613.15,-722 619.15,-722 625.15,-728 625.15,-734 625.15,-734 625.15,-746 625.15,-746 625.15,-752 619.15,-758 613.15,-758"/>
<text text-anchor="middle" x="534.25" y="-734.2" font-family="Helvetica,Arial,sans-serif" font-size="14.00">elab&#45;stlc&#45;letrec&#45;unification</text>
</g>
<!-- elab&#45;stlc&#45;unification&#45;&gt;elab&#45;stlc&#45;letrec&#45;unification -->
<g id="edge9" class="edge">
<title>elab&#45;stlc&#45;unification&#45;&gt;elab&#45;stlc&#45;letrec&#45;unification</title>
<path fill="none" stroke="black" d="M379.91,-644.83C389.65,-648.44 399.12,-653.07 407.35,-659 430.75,-675.87 420.17,-695.84 443.35,-713 444.7,-714 446.09,-714.96 447.51,-715.89"/>
<polygon fill="black" stroke="black" points="445.56,-718.81 455.97,-720.76 449.05,-712.74 445.56,-718.81"/>
</g>
<!-- compile&#45;arith -->
<g id="node15" class="node">
<title>compile&#45;arith</title>
<path fill="white" stroke="none" d="M348.85,-405C348.85,-405 266.05,-405 266.05,-405 260.05,-405 254.05,-399 254.05,-393 254.05,-393 254.05,-381 254.05,-381 254.05,-375 260.05,-369 266.05,-369 266.05,-369 348.85,-369 348.85,-369 354.85,-369 360.85,-375 360.85,-381 360.85,-381 360.85,-393 360.85,-393 360.85,-399 354.85,-405 348.85,-405"/>
<text text-anchor="middle" x="307.45" y="-381.2" font-family="Helvetica,Arial,sans-serif" font-size="14.00">compile&#45;arith</text>
</g>
<!-- compile&#45;arithcond -->
<g id="node16" class="node">
<title>compile&#45;arithcond</title>
<path fill="white" stroke="none" d="M590.27,-405C590.27,-405 478.22,-405 478.22,-405 472.22,-405 466.22,-399 466.22,-393 466.22,-393 466.22,-381 466.22,-381 466.22,-375 472.22,-369 478.22,-369 478.22,-369 590.27,-369 590.27,-369 596.27,-369 602.27,-375 602.27,-381 602.27,-381 602.27,-393 602.27,-393 602.27,-399 596.27,-405 590.27,-405"/>
<text text-anchor="middle" x="534.25" y="-381.2" font-family="Helvetica,Arial,sans-serif" font-size="14.00">compile&#45;arithcond</text>
</g>
<!-- compile&#45;arith&#45;&gt;compile&#45;arithcond -->
<g id="edge17" class="edge">
<title>compile&#45;arith&#45;&gt;compile&#45;arithcond</title>
<path fill="none" stroke="black" d="M361.16,-387C389.01,-387 423.76,-387 454.72,-387"/>
<polygon fill="black" stroke="black" points="454.42,-390.5 464.42,-387 454.42,-383.5 454.42,-390.5"/>
</g>
<!-- lang&#45;declarative&#45;graphics -->
<g id="node18" class="node">
<title>lang&#45;declarative&#45;graphics</title>
<path fill="white" stroke="none" d="M385.22,-52C385.22,-52 229.67,-52 229.67,-52 223.67,-52 217.67,-46 217.67,-40 217.67,-40 217.67,-28 217.67,-28 217.67,-22 223.67,-16 229.67,-16 229.67,-16 385.22,-16 385.22,-16 391.22,-16 397.22,-22 397.22,-28 397.22,-28 397.22,-40 397.22,-40 397.22,-46 391.22,-52 385.22,-52"/>
<text text-anchor="middle" x="307.45" y="-28.2" font-family="Helvetica,Arial,sans-serif" font-size="14.00">lang&#45;declarative&#45;graphics</text>
</g>
<!-- lang&#45;fractal&#45;tree&#45;rewriting -->
<g id="node20" class="node">
<title>lang&#45;fractal&#45;tree&#45;rewriting</title>
<path fill="white" stroke="none" d="M611.65,-79C611.65,-79 456.85,-79 456.85,-79 450.85,-79 444.85,-73 444.85,-67 444.85,-67 444.85,-55 444.85,-55 444.85,-49 450.85,-43 456.85,-43 456.85,-43 611.65,-43 611.65,-43 617.65,-43 623.65,-49 623.65,-55 623.65,-55 623.65,-67 623.65,-67 623.65,-73 617.65,-79 611.65,-79"/>
<text text-anchor="middle" x="534.25" y="-55.2" font-family="Helvetica,Arial,sans-serif" font-size="14.00">lang&#45;fractal&#45;tree&#45;rewriting</text>
</g>
<!-- lang&#45;declarative&#45;graphics&#45;&gt;lang&#45;fractal&#45;tree&#45;rewriting -->
<g id="edge20" class="edge">
<title>lang&#45;declarative&#45;graphics&#45;&gt;lang&#45;fractal&#45;tree&#45;rewriting</title>
<path fill="none" stroke="black" d="M397.62,-44.71C409.32,-46.12 421.38,-47.56 433.25,-48.99"/>
<polygon fill="black" stroke="black" points="432.71,-52.45 443.05,-50.17 433.54,-45.5 432.71,-52.45"/>
</g>
<!-- lang&#45;fractal&#45;growth -->
<g id="node19" class="node">
<title>lang&#45;fractal&#45;growth</title>
<path fill="white" stroke="none" d="M365.72,-106C365.72,-106 249.17,-106 249.17,-106 243.17,-106 237.17,-100 237.17,-94 237.17,-94 237.17,-82 237.17,-82 237.17,-76 243.17,-70 249.17,-70 249.17,-70 365.72,-70 365.72,-70 371.72,-70 377.72,-76 377.72,-82 377.72,-82 377.72,-94 377.72,-94 377.72,-100 371.72,-106 365.72,-106"/>
<text text-anchor="middle" x="307.45" y="-82.2" font-family="Helvetica,Arial,sans-serif" font-size="14.00">lang&#45;fractal&#45;growth</text>
</g>
<!-- lang&#45;fractal&#45;growth&#45;&gt;lang&#45;fractal&#45;tree&#45;rewriting -->
<g id="edge19" class="edge">
<title>lang&#45;fractal&#45;growth&#45;&gt;lang&#45;fractal&#45;tree&#45;rewriting</title>
<path fill="none" stroke="black" d="M378.04,-79.64C395.53,-77.54 414.64,-75.25 433.29,-73.01"/>
<polygon fill="black" stroke="black" points="433.5,-76.51 443.01,-71.84 432.66,-69.56 433.5,-76.51"/>
</g>
<!-- lang&#45;shader&#45;graphics -->
<g id="node21" class="node">
<title>lang&#45;shader&#45;graphics</title>
<path fill="white" stroke="none" d="M373.22,-160C373.22,-160 241.67,-160 241.67,-160 235.67,-160 229.67,-154 229.67,-148 229.67,-148 229.67,-136 229.67,-136 229.67,-130 235.67,-124 241.67,-124 241.67,-124 373.22,-124 373.22,-124 379.22,-124 385.22,-130 385.22,-136 385.22,-136 385.22,-148 385.22,-148 385.22,-154 379.22,-160 373.22,-160"/>
<text text-anchor="middle" x="307.45" y="-136.2" font-family="Helvetica,Arial,sans-serif" font-size="14.00">lang&#45;shader&#45;graphics</text>
</g>
<!-- lang&#45;datalog -->
<g id="node22" class="node">
<title>lang&#45;datalog</title>
<path fill="white" stroke="none" d="M346.97,-214C346.97,-214 267.92,-214 267.92,-214 261.92,-214 255.92,-208 255.92,-202 255.92,-202 255.92,-190 255.92,-190 255.92,-184 261.92,-178 267.92,-178 267.92,-178 346.97,-178 346.97,-178 352.97,-178 358.97,-184 358.97,-190 358.97,-190 358.97,-202 358.97,-202 358.97,-208 352.97,-214 346.97,-214"/>
<text text-anchor="middle" x="307.45" y="-190.2" font-family="Helvetica,Arial,sans-serif" font-size="14.00">lang&#45;datalog</text>
</g>
<!-- lang&#45;lc&#45;interpreters -->
<g id="node24" class="node">
<title>lang&#45;lc&#45;interpreters</title>
<path fill="white" stroke="none" d="M366.1,-322C366.1,-322 248.8,-322 248.8,-322 242.8,-322 236.8,-316 236.8,-310 236.8,-310 236.8,-298 236.8,-298 236.8,-292 242.8,-286 248.8,-286 248.8,-286 366.1,-286 366.1,-286 372.1,-286 378.1,-292 378.1,-298 378.1,-298 378.1,-310 378.1,-310 378.1,-316 372.1,-322 366.1,-322"/>
<text text-anchor="middle" x="307.45" y="-298.2" font-family="Helvetica,Arial,sans-serif" font-size="14.00">lang&#45;lc&#45;interpreters</text>
</g>
<!-- lang&#45;lc&#45;interpreters&#45;&gt;elab&#45;stlc&#45;bidirectional -->
<g id="edge18" class="edge">
<title>lang&#45;lc&#45;interpreters&#45;&gt;elab&#45;stlc&#45;bidirectional</title>
<path fill="none" stroke="black" d="M258.51,-322.44C240.89,-330.96 221.8,-342.46 207.55,-357 152.08,-413.6 118.09,-502.99 103.36,-548.81"/>
<polygon fill="black" stroke="black" points="100.04,-547.7 100.4,-558.29 106.72,-549.79 100.04,-547.7"/>
</g>
</g>
</svg>
