<?xml version="1.0" encoding="UTF-8" standalone="no"?>
<!DOCTYPE svg PUBLIC "-//W3C//DTD SVG 1.1//EN"
 "http://www.w3.org/Graphics/SVG/1.1/DTD/svg11.dtd">
<!-- Generated by graphviz version 12.2.1 (0)
 -->
<!-- Title: garden Pages: 1 -->
<svg width="845pt" height="751pt"
 viewBox="0.00 0.00 845.20 751.00" xmlns="http://www.w3.org/2000/svg" xmlns:xlink="http://www.w3.org/1999/xlink">
<g id="graph0" class="graph" transform="scale(1 1) rotate(0) translate(4 747)">
<title>garden</title>
<polygon fill="white" stroke="none" points="-4,4 -4,-747 841.2,-747 841.2,4 -4,4"/>
<g id="clust1" class="cluster">
<title>elab</title>
<path fill="gainsboro" stroke="none" d="M20,-361C20,-361 817.2,-361 817.2,-361 823.2,-361 829.2,-367 829.2,-373 829.2,-373 829.2,-640 829.2,-640 829.2,-646 823.2,-652 817.2,-652 817.2,-652 20,-652 20,-652 14,-652 8,-646 8,-640 8,-640 8,-373 8,-373 8,-367 14,-361 20,-361"/>
<text text-anchor="middle" x="418.6" y="-634.7" font-family="Helvetica,Arial,sans-serif" font-size="14.00">elab</text>
</g>
<g id="clust2" class="cluster">
<title>compile</title>
<path fill="gainsboro" stroke="none" d="M44.38,-660C44.38,-660 371.47,-660 371.47,-660 377.47,-660 383.47,-666 383.47,-672 383.47,-672 383.47,-723 383.47,-723 383.47,-729 377.47,-735 371.47,-735 371.47,-735 44.37,-735 44.37,-735 38.38,-735 32.38,-729 32.38,-723 32.38,-723 32.38,-672 32.38,-672 32.38,-666 38.38,-660 44.38,-660"/>
<text text-anchor="middle" x="207.92" y="-717.7" font-family="Helvetica,Arial,sans-serif" font-size="14.00">compile</text>
</g>
<g id="clust3" class="cluster">
<title>lang</title>
<path fill="gainsboro" stroke="none" d="M221.67,-8C221.67,-8 623.4,-8 623.4,-8 629.4,-8 635.4,-14 635.4,-20 635.4,-20 635.4,-341 635.4,-341 635.4,-347 629.4,-353 623.4,-353 623.4,-353 221.67,-353 221.67,-353 215.67,-353 209.67,-347 209.67,-341 209.67,-341 209.67,-20 209.67,-20 209.67,-14 215.67,-8 221.67,-8"/>
<text text-anchor="middle" x="422.54" y="-335.7" font-family="Helvetica,Arial,sans-serif" font-size="14.00">lang</text>
</g>
<!-- elab&#45;stlc&#45;bidirectional -->
<g id="node1" class="node">
<title>elab&#45;stlc&#45;bidirectional</title>
<g id="a_node1"><a xlink:href="./elab-stlc-bidirectional" xlink:title="elab&#45;stlc&#45;bidirectional">
<path fill="white" stroke="none" d="M159.55,-459C159.55,-459 28,-459 28,-459 22,-459 16,-453 16,-447 16,-447 16,-435 16,-435 16,-429 22,-423 28,-423 28,-423 159.55,-423 159.55,-423 165.55,-423 171.55,-429 171.55,-435 171.55,-435 171.55,-447 171.55,-447 171.55,-453 165.55,-459 159.55,-459"/>
<text text-anchor="middle" x="93.77" y="-435.2" font-family="Helvetica,Arial,sans-serif" font-size="14.00">elab&#45;stlc&#45;bidirectional</text>
</a>
</g>
</g>
<!-- elab&#45;stlc&#45;bidirectional&#45;stratify -->
<g id="node2" class="node">
<title>elab&#45;stlc&#45;bidirectional&#45;stratify</title>
<g id="a_node2"><a xlink:href="./elab-stlc-bidirectional" xlink:title="elab&#45;stlc&#45;bidirectional&#45;stratify">
<path fill="white" stroke="none" d="M395.35,-405C395.35,-405 219.55,-405 219.55,-405 213.55,-405 207.55,-399 207.55,-393 207.55,-393 207.55,-381 207.55,-381 207.55,-375 213.55,-369 219.55,-369 219.55,-369 395.35,-369 395.35,-369 401.35,-369 407.35,-375 407.35,-381 407.35,-381 407.35,-393 407.35,-393 407.35,-399 401.35,-405 395.35,-405"/>
<text text-anchor="middle" x="307.45" y="-381.2" font-family="Helvetica,Arial,sans-serif" font-size="14.00">elab&#45;stlc&#45;bidirectional&#45;stratify</text>
</a>
</g>
</g>
<!-- elab&#45;stlc&#45;bidirectional&#45;&gt;elab&#45;stlc&#45;bidirectional&#45;stratify -->
<g id="edge1" class="edge">
<title>elab&#45;stlc&#45;bidirectional&#45;&gt;elab&#45;stlc&#45;bidirectional&#45;stratify</title>
<path fill="none" stroke="black" d="M167.03,-422.57C185.07,-417.97 204.55,-412.99 223.08,-408.27"/>
<polygon fill="black" stroke="black" points="223.87,-411.68 232.7,-405.82 222.14,-404.9 223.87,-411.68"/>
</g>
<!-- elab&#45;stlc&#45;abstract -->
<g id="node3" class="node">
<title>elab&#45;stlc&#45;abstract</title>
<g id="a_node3"><a xlink:href="./elab-stlc-abstract" xlink:title="elab&#45;stlc&#45;abstract">
<path fill="white" stroke="none" d="M361.22,-459C361.22,-459 253.67,-459 253.67,-459 247.67,-459 241.67,-453 241.67,-447 241.67,-447 241.67,-435 241.67,-435 241.67,-429 247.67,-423 253.67,-423 253.67,-423 361.22,-423 361.22,-423 367.22,-423 373.22,-429 373.22,-435 373.22,-435 373.22,-447 373.22,-447 373.22,-453 367.22,-459 361.22,-459"/>
<text text-anchor="middle" x="307.45" y="-435.2" font-family="Helvetica,Arial,sans-serif" font-size="14.00">elab&#45;stlc&#45;abstract</text>
</a>
</g>
</g>
<!-- elab&#45;stlc&#45;bidirectional&#45;&gt;elab&#45;stlc&#45;abstract -->
<g id="edge3" class="edge">
<title>elab&#45;stlc&#45;bidirectional&#45;&gt;elab&#45;stlc&#45;abstract</title>
<path fill="none" stroke="black" d="M171.79,-441C190.78,-441 211.1,-441 230.05,-441"/>
<polygon fill="black" stroke="black" points="229.83,-444.5 239.82,-441 229.82,-437.5 229.83,-444.5"/>
</g>
<!-- elab&#45;stlc&#45;unification -->
<g id="node4" class="node">
<title>elab&#45;stlc&#45;unification</title>
<g id="a_node4"><a xlink:href="./elab-stlc-unification" xlink:title="elab&#45;stlc&#45;unification">
<path fill="white" stroke="none" d="M367.6,-513C367.6,-513 247.3,-513 247.3,-513 241.3,-513 235.3,-507 235.3,-501 235.3,-501 235.3,-489 235.3,-489 235.3,-483 241.3,-477 247.3,-477 247.3,-477 367.6,-477 367.6,-477 373.6,-477 379.6,-483 379.6,-489 379.6,-489 379.6,-501 379.6,-501 379.6,-507 373.6,-513 367.6,-513"/>
<text text-anchor="middle" x="307.45" y="-489.2" font-family="Helvetica,Arial,sans-serif" font-size="14.00">elab&#45;stlc&#45;unification</text>
</a>
</g>
</g>
<!-- elab&#45;stlc&#45;bidirectional&#45;&gt;elab&#45;stlc&#45;unification -->
<g id="edge2" class="edge">
<title>elab&#45;stlc&#45;bidirectional&#45;&gt;elab&#45;stlc&#45;unification</title>
<path fill="none" stroke="black" d="M167.03,-459.43C185.35,-464.11 205.17,-469.16 223.96,-473.96"/>
<polygon fill="black" stroke="black" points="222.86,-477.29 233.41,-476.37 224.59,-470.5 222.86,-477.29"/>
</g>
<!-- elab&#45;system&#45;f&#45;bidirectional -->
<g id="node7" class="node">
<title>elab&#45;system&#45;f&#45;bidirectional</title>
<g id="a_node7"><a xlink:href="./elab-system-f-bidirectional" xlink:title="elab&#45;system&#45;f&#45;bidirectional">
<path fill="white" stroke="none" d="M388.97,-567C388.97,-567 225.92,-567 225.92,-567 219.92,-567 213.92,-561 213.92,-555 213.92,-555 213.92,-543 213.92,-543 213.92,-537 219.92,-531 225.92,-531 225.92,-531 388.97,-531 388.97,-531 394.97,-531 400.97,-537 400.97,-543 400.97,-543 400.97,-555 400.97,-555 400.97,-561 394.97,-567 388.97,-567"/>
<text text-anchor="middle" x="307.45" y="-543.2" font-family="Helvetica,Arial,sans-serif" font-size="14.00">elab&#45;system&#45;f&#45;bidirectional</text>
</a>
</g>
</g>
<!-- elab&#45;stlc&#45;bidirectional&#45;&gt;elab&#45;system&#45;f&#45;bidirectional -->
<g id="edge4" class="edge">
<title>elab&#45;stlc&#45;bidirectional&#45;&gt;elab&#45;system&#45;f&#45;bidirectional</title>
<path fill="none" stroke="black" d="M115.37,-459.29C136.94,-477.57 172.51,-505.3 207.55,-522 210.88,-523.59 214.33,-525.1 217.84,-526.53"/>
<polygon fill="black" stroke="black" points="216.54,-529.78 227.13,-530.05 219.03,-523.23 216.54,-529.78"/>
</g>
<!-- elab&#45;dependent -->
<g id="node9" class="node">
<title>elab&#45;dependent</title>
<g id="a_node9"><a xlink:href="./elab-dependent/" xlink:title="elab&#45;dependent">
<path fill="white" stroke="none" d="M356.72,-621C356.72,-621 258.17,-621 258.17,-621 252.17,-621 246.17,-615 246.17,-609 246.17,-609 246.17,-597 246.17,-597 246.17,-591 252.17,-585 258.17,-585 258.17,-585 356.72,-585 356.72,-585 362.72,-585 368.72,-591 368.72,-597 368.72,-597 368.72,-609 368.72,-609 368.72,-615 362.72,-621 356.72,-621"/>
<text text-anchor="middle" x="307.45" y="-597.2" font-family="Helvetica,Arial,sans-serif" font-size="14.00">elab&#45;dependent</text>
</a>
</g>
</g>
<!-- elab&#45;stlc&#45;bidirectional&#45;&gt;elab&#45;dependent -->
<g id="edge5" class="edge">
<title>elab&#45;stlc&#45;bidirectional&#45;&gt;elab&#45;dependent</title>
<path fill="none" stroke="black" d="M105.02,-459.35C122.28,-488.57 160.01,-545.48 207.55,-576 215.93,-581.38 225.37,-585.7 235.01,-589.16"/>
<polygon fill="black" stroke="black" points="233.89,-592.48 244.49,-592.25 236.06,-585.82 233.89,-592.48"/>
</g>
<!-- lang&#45;doc&#45;templates -->
<g id="node16" class="node">
<title>lang&#45;doc&#45;templates</title>
<g id="a_node16"><a xlink:href="./lang-doc-templates/" xlink:title="lang&#45;doc&#45;templates">
<path fill="white" stroke="none" d="M367.6,-160C367.6,-160 247.3,-160 247.3,-160 241.3,-160 235.3,-154 235.3,-148 235.3,-148 235.3,-136 235.3,-136 235.3,-130 241.3,-124 247.3,-124 247.3,-124 367.6,-124 367.6,-124 373.6,-124 379.6,-130 379.6,-136 379.6,-136 379.6,-148 379.6,-148 379.6,-154 373.6,-160 367.6,-160"/>
<text text-anchor="middle" x="307.45" y="-136.2" font-family="Helvetica,Arial,sans-serif" font-size="14.00">lang&#45;doc&#45;templates</text>
</a>
</g>
</g>
<!-- elab&#45;stlc&#45;bidirectional&#45;&gt;lang&#45;doc&#45;templates -->
<g id="edge6" class="edge">
<title>elab&#45;stlc&#45;bidirectional&#45;&gt;lang&#45;doc&#45;templates</title>
<path fill="none" stroke="black" d="M96.86,-422.61C103.42,-373.62 128.14,-238.94 207.55,-169 212.6,-164.55 218.31,-160.83 224.38,-157.72"/>
<polygon fill="black" stroke="black" points="225.8,-160.92 233.51,-153.64 222.95,-154.53 225.8,-160.92"/>
</g>
<!-- elab&#45;stlc&#45;letrec&#45;unification -->
<g id="node5" class="node">
<title>elab&#45;stlc&#45;letrec&#45;unification</title>
<g id="a_node5"><a xlink:href="./elab-stlc-letrec-unification" xlink:title="elab&#45;stlc&#45;letrec&#45;unification">
<path fill="white" stroke="none" d="M616.9,-459C616.9,-459 459.1,-459 459.1,-459 453.1,-459 447.1,-453 447.1,-447 447.1,-447 447.1,-435 447.1,-435 447.1,-429 453.1,-423 459.1,-423 459.1,-423 616.9,-423 616.9,-423 622.9,-423 628.9,-429 628.9,-435 628.9,-435 628.9,-447 628.9,-447 628.9,-453 622.9,-459 616.9,-459"/>
<text text-anchor="middle" x="538" y="-435.2" font-family="Helvetica,Arial,sans-serif" font-size="14.00">elab&#45;stlc&#45;letrec&#45;unification</text>
</a>
</g>
</g>
<!-- elab&#45;stlc&#45;unification&#45;&gt;elab&#45;stlc&#45;letrec&#45;unification -->
<g id="edge7" class="edge">
<title>elab&#45;stlc&#45;unification&#45;&gt;elab&#45;stlc&#45;letrec&#45;unification</title>
<path fill="none" stroke="black" d="M379.82,-478.14C401.44,-473.03 425.44,-467.36 448.05,-462.02"/>
<polygon fill="black" stroke="black" points="448.62,-465.48 457.55,-459.77 447.02,-458.66 448.62,-465.48"/>
</g>
<!-- elab&#45;stlc&#45;variant&#45;unification -->
<g id="node6" class="node">
<title>elab&#45;stlc&#45;variant&#45;unification</title>
<g id="a_node6"><a xlink:href="./elab-stlc-variant-unification" xlink:title="elab&#45;stlc&#45;variant&#45;unification">
<path fill="white" stroke="none" d="M620.65,-513C620.65,-513 455.35,-513 455.35,-513 449.35,-513 443.35,-507 443.35,-501 443.35,-501 443.35,-489 443.35,-489 443.35,-483 449.35,-477 455.35,-477 455.35,-477 620.65,-477 620.65,-477 626.65,-477 632.65,-483 632.65,-489 632.65,-489 632.65,-501 632.65,-501 632.65,-507 626.65,-513 620.65,-513"/>
<text text-anchor="middle" x="538" y="-489.2" font-family="Helvetica,Arial,sans-serif" font-size="14.00">elab&#45;stlc&#45;variant&#45;unification</text>
</a>
</g>
</g>
<!-- elab&#45;stlc&#45;unification&#45;&gt;elab&#45;stlc&#45;variant&#45;unification -->
<g id="edge8" class="edge">
<title>elab&#45;stlc&#45;unification&#45;&gt;elab&#45;stlc&#45;variant&#45;unification</title>
<path fill="none" stroke="black" d="M379.82,-495C396.26,-495 414.09,-495 431.63,-495"/>
<polygon fill="black" stroke="black" points="431.59,-498.5 441.59,-495 431.59,-491.5 431.59,-498.5"/>
</g>
<!-- elab&#45;system&#45;f&#45;unification -->
<g id="node8" class="node">
<title>elab&#45;system&#45;f&#45;unification</title>
<g id="a_node8"><a xlink:href="./elab-system-f-unification" xlink:title="elab&#45;system&#45;f&#45;unification">
<path fill="white" stroke="none" d="M613.9,-567C613.9,-567 462.1,-567 462.1,-567 456.1,-567 450.1,-561 450.1,-555 450.1,-555 450.1,-543 450.1,-543 450.1,-537 456.1,-531 462.1,-531 462.1,-531 613.9,-531 613.9,-531 619.9,-531 625.9,-537 625.9,-543 625.9,-543 625.9,-555 625.9,-555 625.9,-561 619.9,-567 613.9,-567"/>
<text text-anchor="middle" x="538" y="-543.2" font-family="Helvetica,Arial,sans-serif" font-size="14.00">elab&#45;system&#45;f&#45;unification</text>
</a>
</g>
</g>
<!-- elab&#45;stlc&#45;unification&#45;&gt;elab&#45;system&#45;f&#45;unification -->
<g id="edge9" class="edge">
<title>elab&#45;stlc&#45;unification&#45;&gt;elab&#45;system&#45;f&#45;unification</title>
<path fill="none" stroke="black" d="M379.82,-511.86C401.44,-516.97 425.44,-522.64 448.05,-527.98"/>
<polygon fill="black" stroke="black" points="447.02,-531.34 457.55,-530.23 448.62,-524.52 447.02,-531.34"/>
</g>
<!-- elab&#45;system&#45;f&#45;bidirectional&#45;&gt;elab&#45;system&#45;f&#45;unification -->
<g id="edge10" class="edge">
<title>elab&#45;system&#45;f&#45;bidirectional&#45;&gt;elab&#45;system&#45;f&#45;unification</title>
<path fill="none" stroke="black" d="M401.41,-549C413.62,-549 426.16,-549 438.45,-549"/>
<polygon fill="black" stroke="black" points="438.14,-552.5 448.14,-549 438.14,-545.5 438.14,-552.5"/>
</g>
<!-- elab&#45;dependent&#45;sugar -->
<g id="node10" class="node">
<title>elab&#45;dependent&#45;sugar</title>
<g id="a_node10"><a xlink:href="./elab-dependent-sugar/" xlink:title="elab&#45;dependent&#45;sugar">
<path fill="white" stroke="none" d="M606.4,-621C606.4,-621 469.6,-621 469.6,-621 463.6,-621 457.6,-615 457.6,-609 457.6,-609 457.6,-597 457.6,-597 457.6,-591 463.6,-585 469.6,-585 469.6,-585 606.4,-585 606.4,-585 612.4,-585 618.4,-591 618.4,-597 618.4,-597 618.4,-609 618.4,-609 618.4,-615 612.4,-621 606.4,-621"/>
<text text-anchor="middle" x="538" y="-597.2" font-family="Helvetica,Arial,sans-serif" font-size="14.00">elab&#45;dependent&#45;sugar</text>
</a>
</g>
</g>
<!-- elab&#45;dependent&#45;&gt;elab&#45;dependent&#45;sugar -->
<g id="edge11" class="edge">
<title>elab&#45;dependent&#45;&gt;elab&#45;dependent&#45;sugar</title>
<path fill="none" stroke="black" d="M369.1,-603C392.6,-603 420.01,-603 445.79,-603"/>
<polygon fill="black" stroke="black" points="445.6,-606.5 455.6,-603 445.6,-599.5 445.6,-606.5"/>
</g>
<!-- elab&#45;record&#45;patching -->
<g id="node11" class="node">
<title>elab&#45;record&#45;patching</title>
<g id="a_node11"><a xlink:href="./elab-record-patching/" xlink:title="elab&#45;record&#45;patching">
<path fill="white" stroke="none" d="M809.2,-621C809.2,-621 680.65,-621 680.65,-621 674.65,-621 668.65,-615 668.65,-609 668.65,-609 668.65,-597 668.65,-597 668.65,-591 674.65,-585 680.65,-585 680.65,-585 809.2,-585 809.2,-585 815.2,-585 821.2,-591 821.2,-597 821.2,-597 821.2,-609 821.2,-609 821.2,-615 815.2,-621 809.2,-621"/>
<text text-anchor="middle" x="744.92" y="-597.2" font-family="Helvetica,Arial,sans-serif" font-size="14.00">elab&#45;record&#45;patching</text>
</a>
</g>
</g>
<!-- elab&#45;dependent&#45;sugar&#45;&gt;elab&#45;record&#45;patching -->
<g id="edge12" class="edge">
<title>elab&#45;dependent&#45;sugar&#45;&gt;elab&#45;record&#45;patching</title>
<path fill="none" stroke="black" d="M618.82,-603C631.29,-603 644.24,-603 656.87,-603"/>
<polygon fill="black" stroke="black" points="656.84,-606.5 666.84,-603 656.84,-599.5 656.84,-606.5"/>
</g>
<!-- compile&#45;arith -->
<g id="node12" class="node">
<title>compile&#45;arith</title>
<g id="a_node12"><a xlink:href="./compile-arith/" xlink:title="compile&#45;arith">
<path fill="white" stroke="none" d="M135.17,-704C135.17,-704 52.37,-704 52.37,-704 46.37,-704 40.37,-698 40.37,-692 40.37,-692 40.37,-680 40.37,-680 40.37,-674 46.37,-668 52.37,-668 52.37,-668 135.17,-668 135.17,-668 141.17,-668 147.17,-674 147.17,-680 147.17,-680 147.17,-692 147.17,-692 147.17,-698 141.17,-704 135.17,-704"/>
<text text-anchor="middle" x="93.77" y="-680.2" font-family="Helvetica,Arial,sans-serif" font-size="14.00">compile&#45;arith</text>
</a>
</g>
</g>
<!-- compile&#45;arithcond -->
<g id="node13" class="node">
<title>compile&#45;arithcond</title>
<g id="a_node13"><a xlink:href="./compile-arithcond/" xlink:title="compile&#45;arithcond">
<path fill="white" stroke="none" d="M363.47,-704C363.47,-704 251.42,-704 251.42,-704 245.42,-704 239.42,-698 239.42,-692 239.42,-692 239.42,-680 239.42,-680 239.42,-674 245.42,-668 251.42,-668 251.42,-668 363.47,-668 363.47,-668 369.47,-668 375.47,-674 375.47,-680 375.47,-680 375.47,-692 375.47,-692 375.47,-698 369.47,-704 363.47,-704"/>
<text text-anchor="middle" x="307.45" y="-680.2" font-family="Helvetica,Arial,sans-serif" font-size="14.00">compile&#45;arithcond</text>
</a>
</g>
</g>
<!-- compile&#45;arith&#45;&gt;compile&#45;arithcond -->
<g id="edge13" class="edge">
<title>compile&#45;arith&#45;&gt;compile&#45;arithcond</title>
<path fill="none" stroke="black" d="M147.64,-686C171.86,-686 201.06,-686 227.78,-686"/>
<polygon fill="black" stroke="black" points="227.55,-689.5 237.55,-686 227.55,-682.5 227.55,-689.5"/>
</g>
<!-- lang&#45;datalog -->
<g id="node14" class="node">
<title>lang&#45;datalog</title>
<g id="a_node14"><a xlink:href="./lang-datalog/" xlink:title="lang&#45;datalog">
<path fill="white" stroke="none" d="M346.97,-52C346.97,-52 267.92,-52 267.92,-52 261.92,-52 255.92,-46 255.92,-40 255.92,-40 255.92,-28 255.92,-28 255.92,-22 261.92,-16 267.92,-16 267.92,-16 346.97,-16 346.97,-16 352.97,-16 358.97,-22 358.97,-28 358.97,-28 358.97,-40 358.97,-40 358.97,-46 352.97,-52 346.97,-52"/>
<text text-anchor="middle" x="307.45" y="-28.2" font-family="Helvetica,Arial,sans-serif" font-size="14.00">lang&#45;datalog</text>
</a>
</g>
</g>
<!-- lang&#45;declarative&#45;graphics -->
<g id="node15" class="node">
<title>lang&#45;declarative&#45;graphics</title>
<g id="a_node15"><a xlink:href="./lang-declarative-graphics/" xlink:title="lang&#45;declarative&#45;graphics">
<path fill="white" stroke="none" d="M385.22,-106C385.22,-106 229.67,-106 229.67,-106 223.67,-106 217.67,-100 217.67,-94 217.67,-94 217.67,-82 217.67,-82 217.67,-76 223.67,-70 229.67,-70 229.67,-70 385.22,-70 385.22,-70 391.22,-70 397.22,-76 397.22,-82 397.22,-82 397.22,-94 397.22,-94 397.22,-100 391.22,-106 385.22,-106"/>
<text text-anchor="middle" x="307.45" y="-82.2" font-family="Helvetica,Arial,sans-serif" font-size="14.00">lang&#45;declarative&#45;graphics</text>
</a>
</g>
</g>
<!-- lang&#45;fractal&#45;growth -->
<g id="node17" class="node">
<title>lang&#45;fractal&#45;growth</title>
<g id="a_node17"><a xlink:href="./lang-fractal-growth/" xlink:title="lang&#45;fractal&#45;growth">
<path fill="white" stroke="none" d="M365.72,-214C365.72,-214 249.17,-214 249.17,-214 243.17,-214 237.17,-208 237.17,-202 237.17,-202 237.17,-190 237.17,-190 237.17,-184 243.17,-178 249.17,-178 249.17,-178 365.72,-178 365.72,-178 371.72,-178 377.72,-184 377.72,-190 377.72,-190 377.72,-202 377.72,-202 377.72,-208 371.72,-214 365.72,-214"/>
<text text-anchor="middle" x="307.45" y="-190.2" font-family="Helvetica,Arial,sans-serif" font-size="14.00">lang&#45;fractal&#45;growth</text>
</a>
</g>
</g>
<!-- lang&#45;fractal&#45;tree&#45;rewriting -->
<g id="node18" class="node">
<title>lang&#45;fractal&#45;tree&#45;rewriting</title>
<g id="a_node18"><a xlink:href="./lang-fractal-tree-rewriting/" xlink:title="lang&#45;fractal&#45;tree&#45;rewriting">
<path fill="white" stroke="none" d="M615.4,-214C615.4,-214 460.6,-214 460.6,-214 454.6,-214 448.6,-208 448.6,-202 448.6,-202 448.6,-190 448.6,-190 448.6,-184 454.6,-178 460.6,-178 460.6,-178 615.4,-178 615.4,-178 621.4,-178 627.4,-184 627.4,-190 627.4,-190 627.4,-202 627.4,-202 627.4,-208 621.4,-214 615.4,-214"/>
<text text-anchor="middle" x="538" y="-190.2" font-family="Helvetica,Arial,sans-serif" font-size="14.00">lang&#45;fractal&#45;tree&#45;rewriting</text>
</a>
</g>
</g>
<!-- lang&#45;fractal&#45;growth&#45;&gt;lang&#45;fractal&#45;tree&#45;rewriting -->
<g id="edge15" class="edge">
<title>lang&#45;fractal&#45;growth&#45;&gt;lang&#45;fractal&#45;tree&#45;rewriting</title>
<path fill="none" stroke="black" d="M377.95,-196C396.59,-196 417.12,-196 437.06,-196"/>
<polygon fill="black" stroke="black" points="436.87,-199.5 446.87,-196 436.87,-192.5 436.87,-199.5"/>
</g>
<!-- lang&#45;lc&#45;interpreters -->
<g id="node19" class="node">
<title>lang&#45;lc&#45;interpreters</title>
<g id="a_node19"><a xlink:href="./lang-lc-interpreters/" xlink:title="lang&#45;lc&#45;interpreters">
<path fill="white" stroke="none" d="M366.1,-268C366.1,-268 248.8,-268 248.8,-268 242.8,-268 236.8,-262 236.8,-256 236.8,-256 236.8,-244 236.8,-244 236.8,-238 242.8,-232 248.8,-232 248.8,-232 366.1,-232 366.1,-232 372.1,-232 378.1,-238 378.1,-244 378.1,-244 378.1,-256 378.1,-256 378.1,-262 372.1,-268 366.1,-268"/>
<text text-anchor="middle" x="307.45" y="-244.2" font-family="Helvetica,Arial,sans-serif" font-size="14.00">lang&#45;lc&#45;interpreters</text>
</a>
</g>
</g>
<!-- lang&#45;lc&#45;interpreters&#45;&gt;elab&#45;stlc&#45;bidirectional -->
<g id="edge14" class="edge">
<title>lang&#45;lc&#45;interpreters&#45;&gt;elab&#45;stlc&#45;bidirectional</title>
<path fill="none" stroke="black" d="M236.36,-262.47C226.15,-266.13 216.18,-270.87 207.55,-277 158.32,-311.96 123.75,-375.61 106.77,-412.49"/>
<polygon fill="black" stroke="black" points="103.76,-410.64 102.87,-421.2 110.15,-413.5 103.76,-410.64"/>
</g>
<!-- lang&#45;shader&#45;graphics -->
<g id="node20" class="node">
<title>lang&#45;shader&#45;graphics</title>
<g id="a_node20"><a xlink:href="./lang-shader-graphics/" xlink:title="lang&#45;shader&#45;graphics">
<path fill="white" stroke="none" d="M373.22,-322C373.22,-322 241.67,-322 241.67,-322 235.67,-322 229.67,-316 229.67,-310 229.67,-310 229.67,-298 229.67,-298 229.67,-292 235.67,-286 241.67,-286 241.67,-286 373.22,-286 373.22,-286 379.22,-286 385.22,-292 385.22,-298 385.22,-298 385.22,-310 385.22,-310 385.22,-316 379.22,-322 373.22,-322"/>
<text text-anchor="middle" x="307.45" y="-298.2" font-family="Helvetica,Arial,sans-serif" font-size="14.00">lang&#45;shader&#45;graphics</text>
</a>
</g>
</g>
</g>
</svg>
