<?xml version="1.0" encoding="UTF-8" standalone="no"?>
<!DOCTYPE svg PUBLIC "-//W3C//DTD SVG 1.1//EN"
 "http://www.w3.org/Graphics/SVG/1.1/DTD/svg11.dtd">
<!-- Generated by graphviz version 12.2.1 (0)
 -->
<!-- Title: garden Pages: 1 -->
<svg width="1028pt" height="805pt"
 viewBox="0.00 0.00 1027.75 805.00" xmlns="http://www.w3.org/2000/svg" xmlns:xlink="http://www.w3.org/1999/xlink">
<g id="graph0" class="graph" transform="scale(1 1) rotate(0) translate(4 801)">
<title>garden</title>
<polygon fill="white" stroke="none" points="-4,4 -4,-801 1023.75,-801 1023.75,4 -4,4"/>
<g id="clust1" class="cluster">
<title>elab</title>
<path fill="gainsboro" stroke="none" d="M20,-361C20,-361 999.75,-361 999.75,-361 1005.75,-361 1011.75,-367 1011.75,-373 1011.75,-373 1011.75,-694 1011.75,-694 1011.75,-700 1005.75,-706 999.75,-706 999.75,-706 20,-706 20,-706 14,-706 8,-700 8,-694 8,-694 8,-373 8,-373 8,-367 14,-361 20,-361"/>
<text text-anchor="middle" x="509.88" y="-688.7" font-family="Helvetica,Arial,sans-serif" font-size="14.00">elab</text>
</g>
<g id="clust2" class="cluster">
<title>compile</title>
<path fill="gainsboro" stroke="none" d="M44.38,-714C44.38,-714 371.48,-714 371.48,-714 377.48,-714 383.48,-720 383.48,-726 383.48,-726 383.48,-777 383.48,-777 383.48,-783 377.48,-789 371.48,-789 371.48,-789 44.38,-789 44.38,-789 38.37,-789 32.38,-783 32.38,-777 32.38,-777 32.38,-726 32.38,-726 32.38,-720 38.38,-714 44.38,-714"/>
<text text-anchor="middle" x="207.93" y="-771.7" font-family="Helvetica,Arial,sans-serif" font-size="14.00">compile</text>
</g>
<g id="clust3" class="cluster">
<title>lang</title>
<path fill="gainsboro" stroke="none" d="M221.68,-8C221.68,-8 619.65,-8 619.65,-8 625.65,-8 631.65,-14 631.65,-20 631.65,-20 631.65,-341 631.65,-341 631.65,-347 625.65,-353 619.65,-353 619.65,-353 221.68,-353 221.68,-353 215.68,-353 209.68,-347 209.68,-341 209.68,-341 209.68,-20 209.68,-20 209.68,-14 215.68,-8 221.68,-8"/>
<text text-anchor="middle" x="420.66" y="-335.7" font-family="Helvetica,Arial,sans-serif" font-size="14.00">lang</text>
</g>
<!-- elab&#45;dependent -->
<g id="node1" class="node">
<title>elab&#45;dependent</title>
<path fill="white" stroke="none" d="M356.73,-405C356.73,-405 258.18,-405 258.18,-405 252.18,-405 246.18,-399 246.18,-393 246.18,-393 246.18,-381 246.18,-381 246.18,-375 252.18,-369 258.18,-369 258.18,-369 356.73,-369 356.73,-369 362.73,-369 368.73,-375 368.73,-381 368.73,-381 368.73,-393 368.73,-393 368.73,-399 362.73,-405 356.73,-405"/>
<text text-anchor="middle" x="307.45" y="-381.2" font-family="Helvetica,Arial,sans-serif" font-size="14.00">elab&#45;dependent</text>
</g>
<!-- elab&#45;dependent&#45;sugar -->
<g id="node2" class="node">
<title>elab&#45;dependent&#45;sugar</title>
<path fill="white" stroke="none" d="M602.65,-405C602.65,-405 465.85,-405 465.85,-405 459.85,-405 453.85,-399 453.85,-393 453.85,-393 453.85,-381 453.85,-381 453.85,-375 459.85,-369 465.85,-369 465.85,-369 602.65,-369 602.65,-369 608.65,-369 614.65,-375 614.65,-381 614.65,-381 614.65,-393 614.65,-393 614.65,-399 608.65,-405 602.65,-405"/>
<text text-anchor="middle" x="534.25" y="-381.2" font-family="Helvetica,Arial,sans-serif" font-size="14.00">elab&#45;dependent&#45;sugar</text>
</g>
<!-- elab&#45;dependent&#45;&gt;elab&#45;dependent&#45;sugar -->
<g id="edge14" class="edge">
<title>elab&#45;dependent&#45;&gt;elab&#45;dependent&#45;sugar</title>
<path fill="none" stroke="black" d="M368.99,-387C391.54,-387 417.67,-387 442.35,-387"/>
<polygon fill="black" stroke="black" points="442.06,-390.5 452.06,-387 442.06,-383.5 442.06,-390.5"/>
</g>
<!-- elab&#45;record&#45;patching -->
<g id="node3" class="node">
<title>elab&#45;record&#45;patching</title>
<path fill="white" stroke="none" d="M801.7,-405C801.7,-405 673.15,-405 673.15,-405 667.15,-405 661.15,-399 661.15,-393 661.15,-393 661.15,-381 661.15,-381 661.15,-375 667.15,-369 673.15,-369 673.15,-369 801.7,-369 801.7,-369 807.7,-369 813.7,-375 813.7,-381 813.7,-381 813.7,-393 813.7,-393 813.7,-399 807.7,-405 801.7,-405"/>
<text text-anchor="middle" x="737.43" y="-381.2" font-family="Helvetica,Arial,sans-serif" font-size="14.00">elab&#45;record&#45;patching</text>
</g>
<!-- elab&#45;dependent&#45;sugar&#45;&gt;elab&#45;record&#45;patching -->
<g id="edge15" class="edge">
<title>elab&#45;dependent&#45;sugar&#45;&gt;elab&#45;record&#45;patching</title>
<path fill="none" stroke="black" d="M615.05,-387C626.32,-387 637.96,-387 649.36,-387"/>
<polygon fill="black" stroke="black" points="649.14,-390.5 659.14,-387 649.14,-383.5 649.14,-390.5"/>
</g>
<!-- elab&#45;system&#45;f&#45;bidirectional -->
<g id="node4" class="node">
<title>elab&#45;system&#45;f&#45;bidirectional</title>
<path fill="white" stroke="none" d="M388.98,-459C388.98,-459 225.93,-459 225.93,-459 219.93,-459 213.93,-453 213.93,-447 213.93,-447 213.93,-435 213.93,-435 213.93,-429 219.93,-423 225.93,-423 225.93,-423 388.98,-423 388.98,-423 394.98,-423 400.98,-429 400.98,-435 400.98,-435 400.98,-447 400.98,-447 400.98,-453 394.98,-459 388.98,-459"/>
<text text-anchor="middle" x="307.45" y="-435.2" font-family="Helvetica,Arial,sans-serif" font-size="14.00">elab&#45;system&#45;f&#45;bidirectional</text>
</g>
<!-- elab&#45;system&#45;f&#45;unification -->
<g id="node5" class="node">
<title>elab&#45;system&#45;f&#45;unification</title>
<path fill="white" stroke="none" d="M610.15,-459C610.15,-459 458.35,-459 458.35,-459 452.35,-459 446.35,-453 446.35,-447 446.35,-447 446.35,-435 446.35,-435 446.35,-429 452.35,-423 458.35,-423 458.35,-423 610.15,-423 610.15,-423 616.15,-423 622.15,-429 622.15,-435 622.15,-435 622.15,-447 622.15,-447 622.15,-453 616.15,-459 610.15,-459"/>
<text text-anchor="middle" x="534.25" y="-435.2" font-family="Helvetica,Arial,sans-serif" font-size="14.00">elab&#45;system&#45;f&#45;unification</text>
</g>
<!-- elab&#45;system&#45;f&#45;bidirectional&#45;&gt;elab&#45;system&#45;f&#45;unification -->
<g id="edge13" class="edge">
<title>elab&#45;system&#45;f&#45;bidirectional&#45;&gt;elab&#45;system&#45;f&#45;unification</title>
<path fill="none" stroke="black" d="M401.18,-441C412.22,-441 423.53,-441 434.65,-441"/>
<polygon fill="black" stroke="black" points="434.63,-444.5 444.63,-441 434.63,-437.5 434.63,-444.5"/>
</g>
<!-- elab&#45;generics -->
<g id="node6" class="node">
<title>elab&#45;generics</title>
<path fill="white" stroke="none" d="M780.33,-567C780.33,-567 694.53,-567 694.53,-567 688.53,-567 682.53,-561 682.53,-555 682.53,-555 682.53,-543 682.53,-543 682.53,-537 688.53,-531 694.53,-531 694.53,-531 780.33,-531 780.33,-531 786.33,-531 792.33,-537 792.33,-543 792.33,-543 792.33,-555 792.33,-555 792.33,-561 786.33,-567 780.33,-567"/>
<text text-anchor="middle" x="737.43" y="-543.2" font-family="Helvetica,Arial,sans-serif" font-size="14.00">elab&#45;generics</text>
</g>
<!-- elab&#45;generics&#45;lettype -->
<g id="node7" class="node">
<title>elab&#45;generics&#45;lettype</title>
<path fill="white" stroke="none" d="M991.75,-567C991.75,-567 861.7,-567 861.7,-567 855.7,-567 849.7,-561 849.7,-555 849.7,-555 849.7,-543 849.7,-543 849.7,-537 855.7,-531 861.7,-531 861.7,-531 991.75,-531 991.75,-531 997.75,-531 1003.75,-537 1003.75,-543 1003.75,-543 1003.75,-555 1003.75,-555 1003.75,-561 997.75,-567 991.75,-567"/>
<text text-anchor="middle" x="926.73" y="-543.2" font-family="Helvetica,Arial,sans-serif" font-size="14.00">elab&#45;generics&#45;lettype</text>
</g>
<!-- elab&#45;generics&#45;&gt;elab&#45;generics&#45;lettype -->
<g id="edge12" class="edge">
<title>elab&#45;generics&#45;&gt;elab&#45;generics&#45;lettype</title>
<path fill="none" stroke="black" d="M792.6,-549C806.86,-549 822.61,-549 838.14,-549"/>
<polygon fill="black" stroke="black" points="837.87,-552.5 847.87,-549 837.87,-545.5 837.87,-552.5"/>
</g>
<!-- elab&#45;stlc&#45;bidirectional -->
<g id="node8" class="node">
<title>elab&#45;stlc&#45;bidirectional</title>
<path fill="white" stroke="none" d="M159.55,-486C159.55,-486 28,-486 28,-486 22,-486 16,-480 16,-474 16,-474 16,-462 16,-462 16,-456 22,-450 28,-450 28,-450 159.55,-450 159.55,-450 165.55,-450 171.55,-456 171.55,-462 171.55,-462 171.55,-474 171.55,-474 171.55,-480 165.55,-486 159.55,-486"/>
<text text-anchor="middle" x="93.77" y="-462.2" font-family="Helvetica,Arial,sans-serif" font-size="14.00">elab&#45;stlc&#45;bidirectional</text>
</g>
<!-- elab&#45;stlc&#45;bidirectional&#45;&gt;elab&#45;dependent -->
<g id="edge6" class="edge">
<title>elab&#45;stlc&#45;bidirectional&#45;&gt;elab&#45;dependent</title>
<path fill="none" stroke="black" d="M129.12,-449.56C151.11,-438.26 180.49,-424.08 207.55,-414 216.3,-410.74 225.62,-407.68 234.91,-404.88"/>
<polygon fill="black" stroke="black" points="235.68,-408.3 244.3,-402.14 233.72,-401.58 235.68,-408.3"/>
</g>
<!-- elab&#45;stlc&#45;bidirectional&#45;&gt;elab&#45;system&#45;f&#45;bidirectional -->
<g id="edge5" class="edge">
<title>elab&#45;stlc&#45;bidirectional&#45;&gt;elab&#45;system&#45;f&#45;bidirectional</title>
<path fill="none" stroke="black" d="M171.79,-458.18C181.78,-456.9 192.13,-455.58 202.46,-454.26"/>
<polygon fill="black" stroke="black" points="202.66,-457.77 212.14,-453.03 201.78,-450.82 202.66,-457.77"/>
</g>
<!-- elab&#45;stlc&#45;unification -->
<g id="node9" class="node">
<title>elab&#45;stlc&#45;unification</title>
<path fill="white" stroke="none" d="M367.6,-513C367.6,-513 247.3,-513 247.3,-513 241.3,-513 235.3,-507 235.3,-501 235.3,-501 235.3,-489 235.3,-489 235.3,-483 241.3,-477 247.3,-477 247.3,-477 367.6,-477 367.6,-477 373.6,-477 379.6,-483 379.6,-489 379.6,-489 379.6,-501 379.6,-501 379.6,-507 373.6,-513 367.6,-513"/>
<text text-anchor="middle" x="307.45" y="-489.2" font-family="Helvetica,Arial,sans-serif" font-size="14.00">elab&#45;stlc&#45;unification</text>
</g>
<!-- elab&#45;stlc&#45;bidirectional&#45;&gt;elab&#45;stlc&#45;unification -->
<g id="edge3" class="edge">
<title>elab&#45;stlc&#45;bidirectional&#45;&gt;elab&#45;stlc&#45;unification</title>
<path fill="none" stroke="black" d="M171.79,-477.82C188.76,-479.99 206.8,-482.29 223.98,-484.48"/>
<polygon fill="black" stroke="black" points="223.26,-487.92 233.62,-485.71 224.14,-480.97 223.26,-487.92"/>
</g>
<!-- elab&#45;stlc&#45;bidirectional&#45;stratify -->
<g id="node10" class="node">
<title>elab&#45;stlc&#45;bidirectional&#45;stratify</title>
<path fill="white" stroke="none" d="M395.35,-567C395.35,-567 219.55,-567 219.55,-567 213.55,-567 207.55,-561 207.55,-555 207.55,-555 207.55,-543 207.55,-543 207.55,-537 213.55,-531 219.55,-531 219.55,-531 395.35,-531 395.35,-531 401.35,-531 407.35,-537 407.35,-543 407.35,-543 407.35,-555 407.35,-555 407.35,-561 401.35,-567 395.35,-567"/>
<text text-anchor="middle" x="307.45" y="-543.2" font-family="Helvetica,Arial,sans-serif" font-size="14.00">elab&#45;stlc&#45;bidirectional&#45;stratify</text>
</g>
<!-- elab&#45;stlc&#45;bidirectional&#45;&gt;elab&#45;stlc&#45;bidirectional&#45;stratify -->
<g id="edge2" class="edge">
<title>elab&#45;stlc&#45;bidirectional&#45;&gt;elab&#45;stlc&#45;bidirectional&#45;stratify</title>
<path fill="none" stroke="black" d="M129.12,-486.44C151.11,-497.74 180.49,-511.92 207.55,-522 212.27,-523.76 217.17,-525.46 222.13,-527.09"/>
<polygon fill="black" stroke="black" points="221.03,-530.42 231.62,-530.1 223.14,-523.75 221.03,-530.42"/>
</g>
<!-- elab&#45;stlc&#45;abstract -->
<g id="node11" class="node">
<title>elab&#45;stlc&#45;abstract</title>
<path fill="white" stroke="none" d="M361.23,-621C361.23,-621 253.68,-621 253.68,-621 247.68,-621 241.68,-615 241.68,-609 241.68,-609 241.68,-597 241.68,-597 241.68,-591 247.68,-585 253.68,-585 253.68,-585 361.23,-585 361.23,-585 367.23,-585 373.23,-591 373.23,-597 373.23,-597 373.23,-609 373.23,-609 373.23,-615 367.23,-621 361.23,-621"/>
<text text-anchor="middle" x="307.45" y="-597.2" font-family="Helvetica,Arial,sans-serif" font-size="14.00">elab&#45;stlc&#45;abstract</text>
</g>
<!-- elab&#45;stlc&#45;bidirectional&#45;&gt;elab&#45;stlc&#45;abstract -->
<g id="edge4" class="edge">
<title>elab&#45;stlc&#45;bidirectional&#45;&gt;elab&#45;stlc&#45;abstract</title>
<path fill="none" stroke="black" d="M108.77,-486.16C128.3,-510.26 166.03,-552.49 207.55,-576 214.77,-580.08 222.63,-583.58 230.67,-586.56"/>
<polygon fill="black" stroke="black" points="229.27,-589.78 239.86,-589.7 231.53,-583.15 229.27,-589.78"/>
</g>
<!-- elab&#45;stlc&#45;error&#45;recovery -->
<g id="node14" class="node">
<title>elab&#45;stlc&#45;error&#45;recovery</title>
<path fill="white" stroke="none" d="M379.6,-675C379.6,-675 235.3,-675 235.3,-675 229.3,-675 223.3,-669 223.3,-663 223.3,-663 223.3,-651 223.3,-651 223.3,-645 229.3,-639 235.3,-639 235.3,-639 379.6,-639 379.6,-639 385.6,-639 391.6,-645 391.6,-651 391.6,-651 391.6,-663 391.6,-663 391.6,-669 385.6,-675 379.6,-675"/>
<text text-anchor="middle" x="307.45" y="-651.2" font-family="Helvetica,Arial,sans-serif" font-size="14.00">elab&#45;stlc&#45;error&#45;recovery</text>
</g>
<!-- elab&#45;stlc&#45;bidirectional&#45;&gt;elab&#45;stlc&#45;error&#45;recovery -->
<g id="edge1" class="edge">
<title>elab&#45;stlc&#45;bidirectional&#45;&gt;elab&#45;stlc&#45;error&#45;recovery</title>
<path fill="none" stroke="black" d="M102.43,-486.46C117.43,-520.28 153.93,-592.16 207.55,-630 209.35,-631.27 211.21,-632.48 213.11,-633.63"/>
<polygon fill="black" stroke="black" points="211.18,-636.57 221.65,-638.22 214.5,-630.41 211.18,-636.57"/>
</g>
<!-- lang&#45;doc&#45;templates -->
<g id="node22" class="node">
<title>lang&#45;doc&#45;templates</title>
<path fill="white" stroke="none" d="M367.6,-268C367.6,-268 247.3,-268 247.3,-268 241.3,-268 235.3,-262 235.3,-256 235.3,-256 235.3,-244 235.3,-244 235.3,-238 241.3,-232 247.3,-232 247.3,-232 367.6,-232 367.6,-232 373.6,-232 379.6,-238 379.6,-244 379.6,-244 379.6,-256 379.6,-256 379.6,-262 373.6,-268 367.6,-268"/>
<text text-anchor="middle" x="307.45" y="-244.2" font-family="Helvetica,Arial,sans-serif" font-size="14.00">lang&#45;doc&#45;templates</text>
</g>
<!-- elab&#45;stlc&#45;bidirectional&#45;&gt;lang&#45;doc&#45;templates -->
<g id="edge7" class="edge">
<title>elab&#45;stlc&#45;bidirectional&#45;&gt;lang&#45;doc&#45;templates</title>
<path fill="none" stroke="black" d="M100.38,-449.58C112.97,-411.32 147.25,-323.03 207.55,-277 212.76,-273.02 218.52,-269.63 224.56,-266.74"/>
<polygon fill="black" stroke="black" points="225.72,-270.05 233.56,-262.92 222.98,-263.6 225.72,-270.05"/>
</g>
<!-- elab&#45;stlc&#45;unification&#45;&gt;elab&#45;system&#45;f&#45;unification -->
<g id="edge11" class="edge">
<title>elab&#45;stlc&#45;unification&#45;&gt;elab&#45;system&#45;f&#45;unification</title>
<path fill="none" stroke="black" d="M379.89,-477.84C400.78,-472.82 423.87,-467.27 445.65,-462.04"/>
<polygon fill="black" stroke="black" points="446.18,-465.52 455.08,-459.78 444.54,-458.71 446.18,-465.52"/>
</g>
<!-- elab&#45;stlc&#45;row&#45;unification -->
<g id="node12" class="node">
<title>elab&#45;stlc&#45;row&#45;unification</title>
<path fill="white" stroke="none" d="M607.52,-513C607.52,-513 460.98,-513 460.98,-513 454.98,-513 448.98,-507 448.98,-501 448.98,-501 448.98,-489 448.98,-489 448.98,-483 454.98,-477 460.98,-477 460.98,-477 607.52,-477 607.52,-477 613.52,-477 619.52,-483 619.52,-489 619.52,-489 619.52,-501 619.52,-501 619.52,-507 613.52,-513 607.52,-513"/>
<text text-anchor="middle" x="534.25" y="-489.2" font-family="Helvetica,Arial,sans-serif" font-size="14.00">elab&#45;stlc&#45;row&#45;unification</text>
</g>
<!-- elab&#45;stlc&#45;unification&#45;&gt;elab&#45;stlc&#45;row&#45;unification -->
<g id="edge9" class="edge">
<title>elab&#45;stlc&#45;unification&#45;&gt;elab&#45;stlc&#45;row&#45;unification</title>
<path fill="none" stroke="black" d="M379.89,-495C398.16,-495 418.1,-495 437.38,-495"/>
<polygon fill="black" stroke="black" points="437.12,-498.5 447.12,-495 437.12,-491.5 437.12,-498.5"/>
</g>
<!-- elab&#45;stlc&#45;letrec&#45;unification -->
<g id="node13" class="node">
<title>elab&#45;stlc&#45;letrec&#45;unification</title>
<path fill="white" stroke="none" d="M613.15,-567C613.15,-567 455.35,-567 455.35,-567 449.35,-567 443.35,-561 443.35,-555 443.35,-555 443.35,-543 443.35,-543 443.35,-537 449.35,-531 455.35,-531 455.35,-531 613.15,-531 613.15,-531 619.15,-531 625.15,-537 625.15,-543 625.15,-543 625.15,-555 625.15,-555 625.15,-561 619.15,-567 613.15,-567"/>
<text text-anchor="middle" x="534.25" y="-543.2" font-family="Helvetica,Arial,sans-serif" font-size="14.00">elab&#45;stlc&#45;letrec&#45;unification</text>
</g>
<!-- elab&#45;stlc&#45;unification&#45;&gt;elab&#45;stlc&#45;letrec&#45;unification -->
<g id="edge8" class="edge">
<title>elab&#45;stlc&#45;unification&#45;&gt;elab&#45;stlc&#45;letrec&#45;unification</title>
<path fill="none" stroke="black" d="M379.89,-512.16C400.78,-517.18 423.87,-522.73 445.65,-527.96"/>
<polygon fill="black" stroke="black" points="444.54,-531.29 455.08,-530.22 446.18,-524.48 444.54,-531.29"/>
</g>
<!-- elab&#45;stlc&#45;letrec&#45;unification&#45;&gt;elab&#45;generics -->
<g id="edge10" class="edge">
<title>elab&#45;stlc&#45;letrec&#45;unification&#45;&gt;elab&#45;generics</title>
<path fill="none" stroke="black" d="M625.54,-549C640.79,-549 656.35,-549 670.82,-549"/>
<polygon fill="black" stroke="black" points="670.64,-552.5 680.64,-549 670.64,-545.5 670.64,-552.5"/>
</g>
<!-- compile&#45;arith -->
<g id="node15" class="node">
<title>compile&#45;arith</title>
<path fill="white" stroke="none" d="M135.17,-758C135.17,-758 52.37,-758 52.37,-758 46.37,-758 40.37,-752 40.37,-746 40.37,-746 40.37,-734 40.37,-734 40.37,-728 46.37,-722 52.37,-722 52.37,-722 135.17,-722 135.17,-722 141.17,-722 147.17,-728 147.17,-734 147.17,-734 147.17,-746 147.17,-746 147.17,-752 141.17,-758 135.17,-758"/>
<text text-anchor="middle" x="93.77" y="-734.2" font-family="Helvetica,Arial,sans-serif" font-size="14.00">compile&#45;arith</text>
</g>
<!-- compile&#45;arithcond -->
<g id="node16" class="node">
<title>compile&#45;arithcond</title>
<path fill="white" stroke="none" d="M363.48,-758C363.48,-758 251.43,-758 251.43,-758 245.43,-758 239.43,-752 239.43,-746 239.43,-746 239.43,-734 239.43,-734 239.43,-728 245.43,-722 251.43,-722 251.43,-722 363.48,-722 363.48,-722 369.48,-722 375.48,-728 375.48,-734 375.48,-734 375.48,-746 375.48,-746 375.48,-752 369.48,-758 363.48,-758"/>
<text text-anchor="middle" x="307.45" y="-734.2" font-family="Helvetica,Arial,sans-serif" font-size="14.00">compile&#45;arithcond</text>
</g>
<!-- compile&#45;arith&#45;&gt;compile&#45;arithcond -->
<g id="edge16" class="edge">
<title>compile&#45;arith&#45;&gt;compile&#45;arithcond</title>
<path fill="none" stroke="black" d="M147.64,-740C171.86,-740 201.06,-740 227.78,-740"/>
<polygon fill="black" stroke="black" points="227.55,-743.5 237.55,-740 227.55,-736.5 227.55,-743.5"/>
</g>
<!-- lang&#45;declarative&#45;graphics -->
<g id="node17" class="node">
<title>lang&#45;declarative&#45;graphics</title>
<path fill="white" stroke="none" d="M385.23,-52C385.23,-52 229.68,-52 229.68,-52 223.68,-52 217.68,-46 217.68,-40 217.68,-40 217.68,-28 217.68,-28 217.68,-22 223.68,-16 229.68,-16 229.68,-16 385.23,-16 385.23,-16 391.23,-16 397.23,-22 397.23,-28 397.23,-28 397.23,-40 397.23,-40 397.23,-46 391.23,-52 385.23,-52"/>
<text text-anchor="middle" x="307.45" y="-28.2" font-family="Helvetica,Arial,sans-serif" font-size="14.00">lang&#45;declarative&#45;graphics</text>
</g>
<!-- lang&#45;fractal&#45;tree&#45;rewriting -->
<g id="node19" class="node">
<title>lang&#45;fractal&#45;tree&#45;rewriting</title>
<path fill="white" stroke="none" d="M611.65,-79C611.65,-79 456.85,-79 456.85,-79 450.85,-79 444.85,-73 444.85,-67 444.85,-67 444.85,-55 444.85,-55 444.85,-49 450.85,-43 456.85,-43 456.85,-43 611.65,-43 611.65,-43 617.65,-43 623.65,-49 623.65,-55 623.65,-55 623.65,-67 623.65,-67 623.65,-73 617.65,-79 611.65,-79"/>
<text text-anchor="middle" x="534.25" y="-55.2" font-family="Helvetica,Arial,sans-serif" font-size="14.00">lang&#45;fractal&#45;tree&#45;rewriting</text>
</g>
<!-- lang&#45;declarative&#45;graphics&#45;&gt;lang&#45;fractal&#45;tree&#45;rewriting -->
<g id="edge19" class="edge">
<title>lang&#45;declarative&#45;graphics&#45;&gt;lang&#45;fractal&#45;tree&#45;rewriting</title>
<path fill="none" stroke="black" d="M397.62,-44.71C409.32,-46.12 421.38,-47.56 433.25,-48.99"/>
<polygon fill="black" stroke="black" points="432.71,-52.45 443.05,-50.17 433.54,-45.5 432.71,-52.45"/>
</g>
<!-- lang&#45;fractal&#45;growth -->
<g id="node18" class="node">
<title>lang&#45;fractal&#45;growth</title>
<path fill="white" stroke="none" d="M365.73,-106C365.73,-106 249.18,-106 249.18,-106 243.18,-106 237.18,-100 237.18,-94 237.18,-94 237.18,-82 237.18,-82 237.18,-76 243.18,-70 249.18,-70 249.18,-70 365.73,-70 365.73,-70 371.73,-70 377.73,-76 377.73,-82 377.73,-82 377.73,-94 377.73,-94 377.73,-100 371.73,-106 365.73,-106"/>
<text text-anchor="middle" x="307.45" y="-82.2" font-family="Helvetica,Arial,sans-serif" font-size="14.00">lang&#45;fractal&#45;growth</text>
</g>
<!-- lang&#45;fractal&#45;growth&#45;&gt;lang&#45;fractal&#45;tree&#45;rewriting -->
<g id="edge18" class="edge">
<title>lang&#45;fractal&#45;growth&#45;&gt;lang&#45;fractal&#45;tree&#45;rewriting</title>
<path fill="none" stroke="black" d="M378.04,-79.64C395.53,-77.54 414.64,-75.25 433.29,-73.01"/>
<polygon fill="black" stroke="black" points="433.5,-76.51 443.01,-71.84 432.66,-69.56 433.5,-76.51"/>
</g>
<!-- lang&#45;shader&#45;graphics -->
<g id="node20" class="node">
<title>lang&#45;shader&#45;graphics</title>
<path fill="white" stroke="none" d="M373.23,-160C373.23,-160 241.68,-160 241.68,-160 235.68,-160 229.68,-154 229.68,-148 229.68,-148 229.68,-136 229.68,-136 229.68,-130 235.68,-124 241.68,-124 241.68,-124 373.23,-124 373.23,-124 379.23,-124 385.23,-130 385.23,-136 385.23,-136 385.23,-148 385.23,-148 385.23,-154 379.23,-160 373.23,-160"/>
<text text-anchor="middle" x="307.45" y="-136.2" font-family="Helvetica,Arial,sans-serif" font-size="14.00">lang&#45;shader&#45;graphics</text>
</g>
<!-- lang&#45;datalog -->
<g id="node21" class="node">
<title>lang&#45;datalog</title>
<path fill="white" stroke="none" d="M346.98,-214C346.98,-214 267.93,-214 267.93,-214 261.93,-214 255.93,-208 255.93,-202 255.93,-202 255.93,-190 255.93,-190 255.93,-184 261.93,-178 267.93,-178 267.93,-178 346.98,-178 346.98,-178 352.98,-178 358.98,-184 358.98,-190 358.98,-190 358.98,-202 358.98,-202 358.98,-208 352.98,-214 346.98,-214"/>
<text text-anchor="middle" x="307.45" y="-190.2" font-family="Helvetica,Arial,sans-serif" font-size="14.00">lang&#45;datalog</text>
</g>
<!-- lang&#45;lc&#45;interpreters -->
<g id="node23" class="node">
<title>lang&#45;lc&#45;interpreters</title>
<path fill="white" stroke="none" d="M366.1,-322C366.1,-322 248.8,-322 248.8,-322 242.8,-322 236.8,-316 236.8,-310 236.8,-310 236.8,-298 236.8,-298 236.8,-292 242.8,-286 248.8,-286 248.8,-286 366.1,-286 366.1,-286 372.1,-286 378.1,-292 378.1,-298 378.1,-298 378.1,-310 378.1,-310 378.1,-316 372.1,-322 366.1,-322"/>
<text text-anchor="middle" x="307.45" y="-298.2" font-family="Helvetica,Arial,sans-serif" font-size="14.00">lang&#45;lc&#45;interpreters</text>
</g>
<!-- lang&#45;lc&#45;interpreters&#45;&gt;elab&#45;stlc&#45;bidirectional -->
<g id="edge17" class="edge">
<title>lang&#45;lc&#45;interpreters&#45;&gt;elab&#45;stlc&#45;bidirectional</title>
<path fill="none" stroke="black" d="M265.91,-322.43C247.38,-331.67 225.59,-343.72 207.55,-357 173.42,-382.13 139.46,-417.29 117.87,-441.26"/>
<polygon fill="black" stroke="black" points="115.26,-438.93 111.23,-448.72 120.49,-443.58 115.26,-438.93"/>
</g>
</g>
</svg>
