<?xml version="1.0" encoding="UTF-8" standalone="no"?>
<!DOCTYPE svg PUBLIC "-//W3C//DTD SVG 1.1//EN"
 "http://www.w3.org/Graphics/SVG/1.1/DTD/svg11.dtd">
<!-- Generated by graphviz version 12.2.1 (0)
 -->
<!-- Title: garden Pages: 1 -->
<svg width="847pt" height="805pt"
 viewBox="0.00 0.00 846.70 805.00" xmlns="http://www.w3.org/2000/svg" xmlns:xlink="http://www.w3.org/1999/xlink">
<g id="graph0" class="graph" transform="scale(1 1) rotate(0) translate(4 801)">
<title>garden</title>
<polygon fill="white" stroke="none" points="-4,4 -4,-801 842.7,-801 842.7,4 -4,4"/>
<g id="clust1" class="cluster">
<title>elab</title>
<path fill="gainsboro" stroke="none" d="M20.75,-361C20.75,-361 818.7,-361 818.7,-361 824.7,-361 830.7,-367 830.7,-373 830.7,-373 830.7,-640 830.7,-640 830.7,-646 824.7,-652 818.7,-652 818.7,-652 20.75,-652 20.75,-652 14.75,-652 8.75,-646 8.75,-640 8.75,-640 8.75,-373 8.75,-373 8.75,-367 14.75,-361 20.75,-361"/>
<text text-anchor="middle" x="419.72" y="-634.7" font-family="Helvetica,Arial,sans-serif" font-size="14.00">elab</text>
</g>
<g id="clust2" class="cluster">
<title>compile</title>
<path fill="gainsboro" stroke="none" d="M20,-660C20,-660 372.97,-660 372.97,-660 378.97,-660 384.97,-666 384.97,-672 384.97,-672 384.97,-777 384.97,-777 384.97,-783 378.97,-789 372.97,-789 372.97,-789 20,-789 20,-789 14,-789 8,-783 8,-777 8,-777 8,-672 8,-672 8,-666 14,-660 20,-660"/>
<text text-anchor="middle" x="196.49" y="-771.7" font-family="Helvetica,Arial,sans-serif" font-size="14.00">compile</text>
</g>
<g id="clust3" class="cluster">
<title>lang</title>
<path fill="gainsboro" stroke="none" d="M223.17,-8C223.17,-8 624.9,-8 624.9,-8 630.9,-8 636.9,-14 636.9,-20 636.9,-20 636.9,-341 636.9,-341 636.9,-347 630.9,-353 624.9,-353 624.9,-353 223.17,-353 223.17,-353 217.17,-353 211.17,-347 211.17,-341 211.17,-341 211.17,-20 211.17,-20 211.17,-14 217.17,-8 223.17,-8"/>
<text text-anchor="middle" x="424.04" y="-335.7" font-family="Helvetica,Arial,sans-serif" font-size="14.00">lang</text>
</g>
<!-- elab&#45;stlc&#45;bidirectional -->
<g id="node1" class="node">
<title>elab&#45;stlc&#45;bidirectional</title>
<g id="a_node1"><a xlink:href="./elab-stlc-bidirectional" xlink:title="elab&#45;stlc&#45;bidirectional">
<path fill="white" stroke="none" d="M160.3,-459C160.3,-459 28.75,-459 28.75,-459 22.75,-459 16.75,-453 16.75,-447 16.75,-447 16.75,-435 16.75,-435 16.75,-429 22.75,-423 28.75,-423 28.75,-423 160.3,-423 160.3,-423 166.3,-423 172.3,-429 172.3,-435 172.3,-435 172.3,-447 172.3,-447 172.3,-453 166.3,-459 160.3,-459"/>
<text text-anchor="middle" x="94.52" y="-435.2" font-family="Helvetica,Arial,sans-serif" font-size="14.00">elab&#45;stlc&#45;bidirectional</text>
</a>
</g>
</g>
<!-- elab&#45;stlc&#45;bidirectional&#45;stratify -->
<g id="node2" class="node">
<title>elab&#45;stlc&#45;bidirectional&#45;stratify</title>
<g id="a_node2"><a xlink:href="./elab-stlc-bidirectional" xlink:title="elab&#45;stlc&#45;bidirectional&#45;stratify">
<path fill="white" stroke="none" d="M396.85,-405C396.85,-405 221.05,-405 221.05,-405 215.05,-405 209.05,-399 209.05,-393 209.05,-393 209.05,-381 209.05,-381 209.05,-375 215.05,-369 221.05,-369 221.05,-369 396.85,-369 396.85,-369 402.85,-369 408.85,-375 408.85,-381 408.85,-381 408.85,-393 408.85,-393 408.85,-399 402.85,-405 396.85,-405"/>
<text text-anchor="middle" x="308.95" y="-381.2" font-family="Helvetica,Arial,sans-serif" font-size="14.00">elab&#45;stlc&#45;bidirectional&#45;stratify</text>
</a>
</g>
</g>
<!-- elab&#45;stlc&#45;bidirectional&#45;&gt;elab&#45;stlc&#45;bidirectional&#45;stratify -->
<g id="edge1" class="edge">
<title>elab&#45;stlc&#45;bidirectional&#45;&gt;elab&#45;stlc&#45;bidirectional&#45;stratify</title>
<path fill="none" stroke="black" d="M168.04,-422.57C186.14,-417.97 205.69,-412.99 224.28,-408.27"/>
<polygon fill="black" stroke="black" points="225.11,-411.67 233.94,-405.81 223.38,-404.89 225.11,-411.67"/>
</g>
<!-- elab&#45;stlc&#45;abstract -->
<g id="node3" class="node">
<title>elab&#45;stlc&#45;abstract</title>
<g id="a_node3"><a xlink:href="./elab-stlc-abstract" xlink:title="elab&#45;stlc&#45;abstract">
<path fill="white" stroke="none" d="M362.72,-459C362.72,-459 255.17,-459 255.17,-459 249.17,-459 243.17,-453 243.17,-447 243.17,-447 243.17,-435 243.17,-435 243.17,-429 249.17,-423 255.17,-423 255.17,-423 362.72,-423 362.72,-423 368.72,-423 374.72,-429 374.72,-435 374.72,-435 374.72,-447 374.72,-447 374.72,-453 368.72,-459 362.72,-459"/>
<text text-anchor="middle" x="308.95" y="-435.2" font-family="Helvetica,Arial,sans-serif" font-size="14.00">elab&#45;stlc&#45;abstract</text>
</a>
</g>
</g>
<!-- elab&#45;stlc&#45;bidirectional&#45;&gt;elab&#45;stlc&#45;abstract -->
<g id="edge3" class="edge">
<title>elab&#45;stlc&#45;bidirectional&#45;&gt;elab&#45;stlc&#45;abstract</title>
<path fill="none" stroke="black" d="M172.52,-441C191.68,-441 212.22,-441 231.37,-441"/>
<polygon fill="black" stroke="black" points="231.26,-444.5 241.26,-441 231.26,-437.5 231.26,-444.5"/>
</g>
<!-- elab&#45;stlc&#45;unification -->
<g id="node4" class="node">
<title>elab&#45;stlc&#45;unification</title>
<g id="a_node4"><a xlink:href="./elab-stlc-unification" xlink:title="elab&#45;stlc&#45;unification">
<path fill="white" stroke="none" d="M369.1,-513C369.1,-513 248.8,-513 248.8,-513 242.8,-513 236.8,-507 236.8,-501 236.8,-501 236.8,-489 236.8,-489 236.8,-483 242.8,-477 248.8,-477 248.8,-477 369.1,-477 369.1,-477 375.1,-477 381.1,-483 381.1,-489 381.1,-489 381.1,-501 381.1,-501 381.1,-507 375.1,-513 369.1,-513"/>
<text text-anchor="middle" x="308.95" y="-489.2" font-family="Helvetica,Arial,sans-serif" font-size="14.00">elab&#45;stlc&#45;unification</text>
</a>
</g>
</g>
<!-- elab&#45;stlc&#45;bidirectional&#45;&gt;elab&#45;stlc&#45;unification -->
<g id="edge2" class="edge">
<title>elab&#45;stlc&#45;bidirectional&#45;&gt;elab&#45;stlc&#45;unification</title>
<path fill="none" stroke="black" d="M168.04,-459.43C186.52,-464.13 206.53,-469.22 225.47,-474.03"/>
<polygon fill="black" stroke="black" points="224.46,-477.39 235.02,-476.46 226.19,-470.6 224.46,-477.39"/>
</g>
<!-- elab&#45;system&#45;f&#45;bidirectional -->
<g id="node7" class="node">
<title>elab&#45;system&#45;f&#45;bidirectional</title>
<g id="a_node7"><a xlink:href="./elab-system-f-bidirectional" xlink:title="elab&#45;system&#45;f&#45;bidirectional">
<path fill="white" stroke="none" d="M390.47,-567C390.47,-567 227.42,-567 227.42,-567 221.42,-567 215.42,-561 215.42,-555 215.42,-555 215.42,-543 215.42,-543 215.42,-537 221.42,-531 227.42,-531 227.42,-531 390.47,-531 390.47,-531 396.47,-531 402.47,-537 402.47,-543 402.47,-543 402.47,-555 402.47,-555 402.47,-561 396.47,-567 390.47,-567"/>
<text text-anchor="middle" x="308.95" y="-543.2" font-family="Helvetica,Arial,sans-serif" font-size="14.00">elab&#45;system&#45;f&#45;bidirectional</text>
</a>
</g>
</g>
<!-- elab&#45;stlc&#45;bidirectional&#45;&gt;elab&#45;system&#45;f&#45;bidirectional -->
<g id="edge4" class="edge">
<title>elab&#45;stlc&#45;bidirectional&#45;&gt;elab&#45;system&#45;f&#45;bidirectional</title>
<path fill="none" stroke="black" d="M116.27,-459.28C138.01,-477.56 173.83,-505.29 209.05,-522 212.39,-523.58 215.83,-525.09 219.35,-526.51"/>
<polygon fill="black" stroke="black" points="218.05,-529.77 228.64,-530.03 220.53,-523.22 218.05,-529.77"/>
</g>
<!-- elab&#45;dependent -->
<g id="node9" class="node">
<title>elab&#45;dependent</title>
<g id="a_node9"><a xlink:href="./elab-dependent/" xlink:title="elab&#45;dependent">
<path fill="white" stroke="none" d="M358.22,-621C358.22,-621 259.67,-621 259.67,-621 253.67,-621 247.67,-615 247.67,-609 247.67,-609 247.67,-597 247.67,-597 247.67,-591 253.67,-585 259.67,-585 259.67,-585 358.22,-585 358.22,-585 364.22,-585 370.22,-591 370.22,-597 370.22,-597 370.22,-609 370.22,-609 370.22,-615 364.22,-621 358.22,-621"/>
<text text-anchor="middle" x="308.95" y="-597.2" font-family="Helvetica,Arial,sans-serif" font-size="14.00">elab&#45;dependent</text>
</a>
</g>
</g>
<!-- elab&#45;stlc&#45;bidirectional&#45;&gt;elab&#45;dependent -->
<g id="edge5" class="edge">
<title>elab&#45;stlc&#45;bidirectional&#45;&gt;elab&#45;dependent</title>
<path fill="none" stroke="black" d="M105.87,-459.35C123.29,-488.57 161.33,-545.47 209.05,-576 217.38,-581.33 226.76,-585.62 236.34,-589.07"/>
<polygon fill="black" stroke="black" points="235.15,-592.36 245.75,-592.14 237.33,-585.71 235.15,-592.36"/>
</g>
<!-- lang&#45;doc&#45;templates -->
<g id="node17" class="node">
<title>lang&#45;doc&#45;templates</title>
<g id="a_node17"><a xlink:href="./lang-doc-templates/" xlink:title="lang&#45;doc&#45;templates">
<path fill="white" stroke="none" d="M369.1,-160C369.1,-160 248.8,-160 248.8,-160 242.8,-160 236.8,-154 236.8,-148 236.8,-148 236.8,-136 236.8,-136 236.8,-130 242.8,-124 248.8,-124 248.8,-124 369.1,-124 369.1,-124 375.1,-124 381.1,-130 381.1,-136 381.1,-136 381.1,-148 381.1,-148 381.1,-154 375.1,-160 369.1,-160"/>
<text text-anchor="middle" x="308.95" y="-136.2" font-family="Helvetica,Arial,sans-serif" font-size="14.00">lang&#45;doc&#45;templates</text>
</a>
</g>
</g>
<!-- elab&#45;stlc&#45;bidirectional&#45;&gt;lang&#45;doc&#45;templates -->
<g id="edge6" class="edge">
<title>elab&#45;stlc&#45;bidirectional&#45;&gt;lang&#45;doc&#45;templates</title>
<path fill="none" stroke="black" d="M97.67,-422.6C104.37,-373.61 129.48,-238.92 209.05,-169 214.1,-164.56 219.82,-160.84 225.9,-157.73"/>
<polygon fill="black" stroke="black" points="227.31,-160.93 235.02,-153.66 224.46,-154.54 227.31,-160.93"/>
</g>
<!-- elab&#45;stlc&#45;letrec&#45;unification -->
<g id="node5" class="node">
<title>elab&#45;stlc&#45;letrec&#45;unification</title>
<g id="a_node5"><a xlink:href="./elab-stlc-letrec-unification" xlink:title="elab&#45;stlc&#45;letrec&#45;unification">
<path fill="white" stroke="none" d="M618.4,-459C618.4,-459 460.6,-459 460.6,-459 454.6,-459 448.6,-453 448.6,-447 448.6,-447 448.6,-435 448.6,-435 448.6,-429 454.6,-423 460.6,-423 460.6,-423 618.4,-423 618.4,-423 624.4,-423 630.4,-429 630.4,-435 630.4,-435 630.4,-447 630.4,-447 630.4,-453 624.4,-459 618.4,-459"/>
<text text-anchor="middle" x="539.5" y="-435.2" font-family="Helvetica,Arial,sans-serif" font-size="14.00">elab&#45;stlc&#45;letrec&#45;unification</text>
</a>
</g>
</g>
<!-- elab&#45;stlc&#45;unification&#45;&gt;elab&#45;stlc&#45;letrec&#45;unification -->
<g id="edge7" class="edge">
<title>elab&#45;stlc&#45;unification&#45;&gt;elab&#45;stlc&#45;letrec&#45;unification</title>
<path fill="none" stroke="black" d="M381.32,-478.14C402.94,-473.03 426.94,-467.36 449.55,-462.02"/>
<polygon fill="black" stroke="black" points="450.12,-465.48 459.05,-459.77 448.52,-458.66 450.12,-465.48"/>
</g>
<!-- elab&#45;stlc&#45;variant&#45;unification -->
<g id="node6" class="node">
<title>elab&#45;stlc&#45;variant&#45;unification</title>
<g id="a_node6"><a xlink:href="./elab-stlc-variant-unification" xlink:title="elab&#45;stlc&#45;variant&#45;unification">
<path fill="white" stroke="none" d="M622.15,-513C622.15,-513 456.85,-513 456.85,-513 450.85,-513 444.85,-507 444.85,-501 444.85,-501 444.85,-489 444.85,-489 444.85,-483 450.85,-477 456.85,-477 456.85,-477 622.15,-477 622.15,-477 628.15,-477 634.15,-483 634.15,-489 634.15,-489 634.15,-501 634.15,-501 634.15,-507 628.15,-513 622.15,-513"/>
<text text-anchor="middle" x="539.5" y="-489.2" font-family="Helvetica,Arial,sans-serif" font-size="14.00">elab&#45;stlc&#45;variant&#45;unification</text>
</a>
</g>
</g>
<!-- elab&#45;stlc&#45;unification&#45;&gt;elab&#45;stlc&#45;variant&#45;unification -->
<g id="edge8" class="edge">
<title>elab&#45;stlc&#45;unification&#45;&gt;elab&#45;stlc&#45;variant&#45;unification</title>
<path fill="none" stroke="black" d="M381.32,-495C397.76,-495 415.59,-495 433.13,-495"/>
<polygon fill="black" stroke="black" points="433.09,-498.5 443.09,-495 433.09,-491.5 433.09,-498.5"/>
</g>
<!-- elab&#45;system&#45;f&#45;unification -->
<g id="node8" class="node">
<title>elab&#45;system&#45;f&#45;unification</title>
<g id="a_node8"><a xlink:href="./elab-system-f-unification" xlink:title="elab&#45;system&#45;f&#45;unification">
<path fill="white" stroke="none" d="M615.4,-567C615.4,-567 463.6,-567 463.6,-567 457.6,-567 451.6,-561 451.6,-555 451.6,-555 451.6,-543 451.6,-543 451.6,-537 457.6,-531 463.6,-531 463.6,-531 615.4,-531 615.4,-531 621.4,-531 627.4,-537 627.4,-543 627.4,-543 627.4,-555 627.4,-555 627.4,-561 621.4,-567 615.4,-567"/>
<text text-anchor="middle" x="539.5" y="-543.2" font-family="Helvetica,Arial,sans-serif" font-size="14.00">elab&#45;system&#45;f&#45;unification</text>
</a>
</g>
</g>
<!-- elab&#45;stlc&#45;unification&#45;&gt;elab&#45;system&#45;f&#45;unification -->
<g id="edge9" class="edge">
<title>elab&#45;stlc&#45;unification&#45;&gt;elab&#45;system&#45;f&#45;unification</title>
<path fill="none" stroke="black" d="M381.32,-511.86C402.94,-516.97 426.94,-522.64 449.55,-527.98"/>
<polygon fill="black" stroke="black" points="448.52,-531.34 459.05,-530.23 450.12,-524.52 448.52,-531.34"/>
</g>
<!-- elab&#45;system&#45;f&#45;bidirectional&#45;&gt;elab&#45;system&#45;f&#45;unification -->
<g id="edge10" class="edge">
<title>elab&#45;system&#45;f&#45;bidirectional&#45;&gt;elab&#45;system&#45;f&#45;unification</title>
<path fill="none" stroke="black" d="M402.91,-549C415.12,-549 427.66,-549 439.95,-549"/>
<polygon fill="black" stroke="black" points="439.64,-552.5 449.64,-549 439.64,-545.5 439.64,-552.5"/>
</g>
<!-- elab&#45;dependent&#45;sugar -->
<g id="node10" class="node">
<title>elab&#45;dependent&#45;sugar</title>
<g id="a_node10"><a xlink:href="./elab-dependent-sugar/" xlink:title="elab&#45;dependent&#45;sugar">
<path fill="white" stroke="none" d="M607.9,-621C607.9,-621 471.1,-621 471.1,-621 465.1,-621 459.1,-615 459.1,-609 459.1,-609 459.1,-597 459.1,-597 459.1,-591 465.1,-585 471.1,-585 471.1,-585 607.9,-585 607.9,-585 613.9,-585 619.9,-591 619.9,-597 619.9,-597 619.9,-609 619.9,-609 619.9,-615 613.9,-621 607.9,-621"/>
<text text-anchor="middle" x="539.5" y="-597.2" font-family="Helvetica,Arial,sans-serif" font-size="14.00">elab&#45;dependent&#45;sugar</text>
</a>
</g>
</g>
<!-- elab&#45;dependent&#45;&gt;elab&#45;dependent&#45;sugar -->
<g id="edge11" class="edge">
<title>elab&#45;dependent&#45;&gt;elab&#45;dependent&#45;sugar</title>
<path fill="none" stroke="black" d="M370.6,-603C394.1,-603 421.51,-603 447.29,-603"/>
<polygon fill="black" stroke="black" points="447.1,-606.5 457.1,-603 447.1,-599.5 447.1,-606.5"/>
</g>
<!-- elab&#45;record&#45;patching -->
<g id="node11" class="node">
<title>elab&#45;record&#45;patching</title>
<g id="a_node11"><a xlink:href="./elab-record-patching/" xlink:title="elab&#45;record&#45;patching">
<path fill="white" stroke="none" d="M810.7,-621C810.7,-621 682.15,-621 682.15,-621 676.15,-621 670.15,-615 670.15,-609 670.15,-609 670.15,-597 670.15,-597 670.15,-591 676.15,-585 682.15,-585 682.15,-585 810.7,-585 810.7,-585 816.7,-585 822.7,-591 822.7,-597 822.7,-597 822.7,-609 822.7,-609 822.7,-615 816.7,-621 810.7,-621"/>
<text text-anchor="middle" x="746.42" y="-597.2" font-family="Helvetica,Arial,sans-serif" font-size="14.00">elab&#45;record&#45;patching</text>
</a>
</g>
</g>
<!-- elab&#45;dependent&#45;sugar&#45;&gt;elab&#45;record&#45;patching -->
<g id="edge12" class="edge">
<title>elab&#45;dependent&#45;sugar&#45;&gt;elab&#45;record&#45;patching</title>
<path fill="none" stroke="black" d="M620.32,-603C632.79,-603 645.74,-603 658.37,-603"/>
<polygon fill="black" stroke="black" points="658.34,-606.5 668.34,-603 658.34,-599.5 658.34,-606.5"/>
</g>
<!-- compile&#45;arith -->
<g id="node12" class="node">
<title>compile&#45;arith</title>
<g id="a_node12"><a xlink:href="./compile-arith/" xlink:title="compile&#45;arith">
<path fill="white" stroke="none" d="M135.92,-704C135.92,-704 53.12,-704 53.12,-704 47.12,-704 41.12,-698 41.12,-692 41.12,-692 41.12,-680 41.12,-680 41.12,-674 47.12,-668 53.12,-668 53.12,-668 135.92,-668 135.92,-668 141.92,-668 147.92,-674 147.92,-680 147.92,-680 147.92,-692 147.92,-692 147.92,-698 141.92,-704 135.92,-704"/>
<text text-anchor="middle" x="94.52" y="-680.2" font-family="Helvetica,Arial,sans-serif" font-size="14.00">compile&#45;arith</text>
</a>
</g>
</g>
<!-- compile&#45;arithcond -->
<g id="node13" class="node">
<title>compile&#45;arithcond</title>
<g id="a_node13"><a xlink:href="./compile-arithcond/" xlink:title="compile&#45;arithcond">
<path fill="white" stroke="none" d="M364.97,-704C364.97,-704 252.92,-704 252.92,-704 246.92,-704 240.92,-698 240.92,-692 240.92,-692 240.92,-680 240.92,-680 240.92,-674 246.92,-668 252.92,-668 252.92,-668 364.97,-668 364.97,-668 370.97,-668 376.97,-674 376.97,-680 376.97,-680 376.97,-692 376.97,-692 376.97,-698 370.97,-704 364.97,-704"/>
<text text-anchor="middle" x="308.95" y="-680.2" font-family="Helvetica,Arial,sans-serif" font-size="14.00">compile&#45;arithcond</text>
</a>
</g>
</g>
<!-- compile&#45;arith&#45;&gt;compile&#45;arithcond -->
<g id="edge13" class="edge">
<title>compile&#45;arith&#45;&gt;compile&#45;arithcond</title>
<path fill="none" stroke="black" d="M148.31,-686C172.71,-686 202.21,-686 229.17,-686"/>
<polygon fill="black" stroke="black" points="229.04,-689.5 239.04,-686 229.04,-682.5 229.04,-689.5"/>
</g>
<!-- compile&#45;closure&#45;conv -->
<g id="node14" class="node">
<title>compile&#45;closure&#45;conv</title>
<g id="a_node14"><a xlink:href="./compile-closure-conv" xlink:title="compile&#45;closure&#45;conv">
<path fill="white" stroke="none" d="M161.05,-758C161.05,-758 28,-758 28,-758 22,-758 16,-752 16,-746 16,-746 16,-734 16,-734 16,-728 22,-722 28,-722 28,-722 161.05,-722 161.05,-722 167.05,-722 173.05,-728 173.05,-734 173.05,-734 173.05,-746 173.05,-746 173.05,-752 167.05,-758 161.05,-758"/>
<text text-anchor="middle" x="94.52" y="-734.2" font-family="Helvetica,Arial,sans-serif" font-size="14.00">compile&#45;closure&#45;conv</text>
</a>
</g>
</g>
<!-- lang&#45;datalog -->
<g id="node15" class="node">
<title>lang&#45;datalog</title>
<g id="a_node15"><a xlink:href="./lang-datalog/" xlink:title="lang&#45;datalog">
<path fill="white" stroke="none" d="M348.47,-52C348.47,-52 269.42,-52 269.42,-52 263.42,-52 257.42,-46 257.42,-40 257.42,-40 257.42,-28 257.42,-28 257.42,-22 263.42,-16 269.42,-16 269.42,-16 348.47,-16 348.47,-16 354.47,-16 360.47,-22 360.47,-28 360.47,-28 360.47,-40 360.47,-40 360.47,-46 354.47,-52 348.47,-52"/>
<text text-anchor="middle" x="308.95" y="-28.2" font-family="Helvetica,Arial,sans-serif" font-size="14.00">lang&#45;datalog</text>
</a>
</g>
</g>
<!-- lang&#45;declarative&#45;graphics -->
<g id="node16" class="node">
<title>lang&#45;declarative&#45;graphics</title>
<g id="a_node16"><a xlink:href="./lang-declarative-graphics/" xlink:title="lang&#45;declarative&#45;graphics">
<path fill="white" stroke="none" d="M386.72,-106C386.72,-106 231.17,-106 231.17,-106 225.17,-106 219.17,-100 219.17,-94 219.17,-94 219.17,-82 219.17,-82 219.17,-76 225.17,-70 231.17,-70 231.17,-70 386.72,-70 386.72,-70 392.72,-70 398.72,-76 398.72,-82 398.72,-82 398.72,-94 398.72,-94 398.72,-100 392.72,-106 386.72,-106"/>
<text text-anchor="middle" x="308.95" y="-82.2" font-family="Helvetica,Arial,sans-serif" font-size="14.00">lang&#45;declarative&#45;graphics</text>
</a>
</g>
</g>
<!-- lang&#45;fractal&#45;growth -->
<g id="node18" class="node">
<title>lang&#45;fractal&#45;growth</title>
<g id="a_node18"><a xlink:href="./lang-fractal-growth/" xlink:title="lang&#45;fractal&#45;growth">
<path fill="white" stroke="none" d="M367.22,-214C367.22,-214 250.67,-214 250.67,-214 244.67,-214 238.67,-208 238.67,-202 238.67,-202 238.67,-190 238.67,-190 238.67,-184 244.67,-178 250.67,-178 250.67,-178 367.22,-178 367.22,-178 373.22,-178 379.22,-184 379.22,-190 379.22,-190 379.22,-202 379.22,-202 379.22,-208 373.22,-214 367.22,-214"/>
<text text-anchor="middle" x="308.95" y="-190.2" font-family="Helvetica,Arial,sans-serif" font-size="14.00">lang&#45;fractal&#45;growth</text>
</a>
</g>
</g>
<!-- lang&#45;fractal&#45;tree&#45;rewriting -->
<g id="node19" class="node">
<title>lang&#45;fractal&#45;tree&#45;rewriting</title>
<g id="a_node19"><a xlink:href="./lang-fractal-tree-rewriting/" xlink:title="lang&#45;fractal&#45;tree&#45;rewriting">
<path fill="white" stroke="none" d="M616.9,-214C616.9,-214 462.1,-214 462.1,-214 456.1,-214 450.1,-208 450.1,-202 450.1,-202 450.1,-190 450.1,-190 450.1,-184 456.1,-178 462.1,-178 462.1,-178 616.9,-178 616.9,-178 622.9,-178 628.9,-184 628.9,-190 628.9,-190 628.9,-202 628.9,-202 628.9,-208 622.9,-214 616.9,-214"/>
<text text-anchor="middle" x="539.5" y="-190.2" font-family="Helvetica,Arial,sans-serif" font-size="14.00">lang&#45;fractal&#45;tree&#45;rewriting</text>
</a>
</g>
</g>
<!-- lang&#45;fractal&#45;growth&#45;&gt;lang&#45;fractal&#45;tree&#45;rewriting -->
<g id="edge15" class="edge">
<title>lang&#45;fractal&#45;growth&#45;&gt;lang&#45;fractal&#45;tree&#45;rewriting</title>
<path fill="none" stroke="black" d="M379.45,-196C398.09,-196 418.62,-196 438.56,-196"/>
<polygon fill="black" stroke="black" points="438.37,-199.5 448.37,-196 438.37,-192.5 438.37,-199.5"/>
</g>
<!-- lang&#45;lc&#45;interpreters -->
<g id="node20" class="node">
<title>lang&#45;lc&#45;interpreters</title>
<g id="a_node20"><a xlink:href="./lang-lc-interpreters/" xlink:title="lang&#45;lc&#45;interpreters">
<path fill="white" stroke="none" d="M367.6,-268C367.6,-268 250.3,-268 250.3,-268 244.3,-268 238.3,-262 238.3,-256 238.3,-256 238.3,-244 238.3,-244 238.3,-238 244.3,-232 250.3,-232 250.3,-232 367.6,-232 367.6,-232 373.6,-232 379.6,-238 379.6,-244 379.6,-244 379.6,-256 379.6,-256 379.6,-262 373.6,-268 367.6,-268"/>
<text text-anchor="middle" x="308.95" y="-244.2" font-family="Helvetica,Arial,sans-serif" font-size="14.00">lang&#45;lc&#45;interpreters</text>
</a>
</g>
</g>
<!-- lang&#45;lc&#45;interpreters&#45;&gt;elab&#45;stlc&#45;bidirectional -->
<g id="edge14" class="edge">
<title>lang&#45;lc&#45;interpreters&#45;&gt;elab&#45;stlc&#45;bidirectional</title>
<path fill="none" stroke="black" d="M237.87,-262.49C227.66,-266.15 217.69,-270.88 209.05,-277 159.66,-311.96 124.8,-375.61 107.65,-412.49"/>
<polygon fill="black" stroke="black" points="104.64,-410.64 103.71,-421.2 111.02,-413.53 104.64,-410.64"/>
</g>
<!-- lang&#45;shader&#45;graphics -->
<g id="node21" class="node">
<title>lang&#45;shader&#45;graphics</title>
<g id="a_node21"><a xlink:href="./lang-shader-graphics/" xlink:title="lang&#45;shader&#45;graphics">
<path fill="white" stroke="none" d="M374.72,-322C374.72,-322 243.17,-322 243.17,-322 237.17,-322 231.17,-316 231.17,-310 231.17,-310 231.17,-298 231.17,-298 231.17,-292 237.17,-286 243.17,-286 243.17,-286 374.72,-286 374.72,-286 380.72,-286 386.72,-292 386.72,-298 386.72,-298 386.72,-310 386.72,-310 386.72,-316 380.72,-322 374.72,-322"/>
<text text-anchor="middle" x="308.95" y="-298.2" font-family="Helvetica,Arial,sans-serif" font-size="14.00">lang&#45;shader&#45;graphics</text>
</a>
</g>
</g>
</g>
</svg>
