<?xml version="1.0" encoding="UTF-8" standalone="no"?>
<!DOCTYPE svg PUBLIC "-//W3C//DTD SVG 1.1//EN"
 "http://www.w3.org/Graphics/SVG/1.1/DTD/svg11.dtd">
<!-- Generated by graphviz version 12.2.1 (0)
 -->
<!-- Title: garden Pages: 1 -->
<svg width="856pt" height="751pt"
 viewBox="0.00 0.00 856.45 751.00" xmlns="http://www.w3.org/2000/svg" xmlns:xlink="http://www.w3.org/1999/xlink">
<g id="graph0" class="graph" transform="scale(1 1) rotate(0) translate(4 747)">
<title>garden</title>
<polygon fill="white" stroke="none" points="-4,4 -4,-747 852.45,-747 852.45,4 -4,4"/>
<g id="clust1" class="cluster">
<title>elab</title>
<path fill="gainsboro" stroke="none" d="M20,-361C20,-361 828.45,-361 828.45,-361 834.45,-361 840.45,-367 840.45,-373 840.45,-373 840.45,-640 840.45,-640 840.45,-646 834.45,-652 828.45,-652 828.45,-652 20,-652 20,-652 14,-652 8,-646 8,-640 8,-640 8,-373 8,-373 8,-367 14,-361 20,-361"/>
<text text-anchor="middle" x="424.22" y="-634.7" font-family="Helvetica,Arial,sans-serif" font-size="14.00">elab</text>
</g>
<g id="clust2" class="cluster">
<title>compile</title>
<path fill="gainsboro" stroke="none" d="M44.38,-660C44.38,-660 371.47,-660 371.47,-660 377.47,-660 383.47,-666 383.47,-672 383.47,-672 383.47,-723 383.47,-723 383.47,-729 377.47,-735 371.47,-735 371.47,-735 44.37,-735 44.37,-735 38.38,-735 32.38,-729 32.38,-723 32.38,-723 32.38,-672 32.38,-672 32.38,-666 38.38,-660 44.38,-660"/>
<text text-anchor="middle" x="207.92" y="-717.7" font-family="Helvetica,Arial,sans-serif" font-size="14.00">compile</text>
</g>
<g id="clust3" class="cluster">
<title>lang</title>
<path fill="gainsboro" stroke="none" d="M221.67,-8C221.67,-8 629.02,-8 629.02,-8 635.02,-8 641.02,-14 641.02,-20 641.02,-20 641.02,-341 641.02,-341 641.02,-347 635.02,-353 629.02,-353 629.02,-353 221.67,-353 221.67,-353 215.67,-353 209.67,-347 209.67,-341 209.67,-341 209.67,-20 209.67,-20 209.67,-14 215.67,-8 221.67,-8"/>
<text text-anchor="middle" x="425.35" y="-335.7" font-family="Helvetica,Arial,sans-serif" font-size="14.00">lang</text>
</g>
<!-- elab&#45;dependent -->
<g id="node1" class="node">
<title>elab&#45;dependent</title>
<path fill="white" stroke="none" d="M356.72,-405C356.72,-405 258.17,-405 258.17,-405 252.17,-405 246.17,-399 246.17,-393 246.17,-393 246.17,-381 246.17,-381 246.17,-375 252.17,-369 258.17,-369 258.17,-369 356.72,-369 356.72,-369 362.72,-369 368.72,-375 368.72,-381 368.72,-381 368.72,-393 368.72,-393 368.72,-399 362.72,-405 356.72,-405"/>
<text text-anchor="middle" x="307.45" y="-381.2" font-family="Helvetica,Arial,sans-serif" font-size="14.00">elab&#45;dependent</text>
</g>
<!-- elab&#45;dependent&#45;sugar -->
<g id="node2" class="node">
<title>elab&#45;dependent&#45;sugar</title>
<path fill="white" stroke="none" d="M612.02,-405C612.02,-405 475.22,-405 475.22,-405 469.22,-405 463.22,-399 463.22,-393 463.22,-393 463.22,-381 463.22,-381 463.22,-375 469.22,-369 475.22,-369 475.22,-369 612.02,-369 612.02,-369 618.02,-369 624.02,-375 624.02,-381 624.02,-381 624.02,-393 624.02,-393 624.02,-399 618.02,-405 612.02,-405"/>
<text text-anchor="middle" x="543.62" y="-381.2" font-family="Helvetica,Arial,sans-serif" font-size="14.00">elab&#45;dependent&#45;sugar</text>
</g>
<!-- elab&#45;dependent&#45;&gt;elab&#45;dependent&#45;sugar -->
<g id="edge12" class="edge">
<title>elab&#45;dependent&#45;&gt;elab&#45;dependent&#45;sugar</title>
<path fill="none" stroke="black" d="M369.06,-387C394.19,-387 423.89,-387 451.55,-387"/>
<polygon fill="black" stroke="black" points="451.33,-390.5 461.33,-387 451.33,-383.5 451.33,-390.5"/>
</g>
<!-- elab&#45;record&#45;patching -->
<g id="node3" class="node">
<title>elab&#45;record&#45;patching</title>
<path fill="white" stroke="none" d="M820.45,-405C820.45,-405 691.9,-405 691.9,-405 685.9,-405 679.9,-399 679.9,-393 679.9,-393 679.9,-381 679.9,-381 679.9,-375 685.9,-369 691.9,-369 691.9,-369 820.45,-369 820.45,-369 826.45,-369 832.45,-375 832.45,-381 832.45,-381 832.45,-393 832.45,-393 832.45,-399 826.45,-405 820.45,-405"/>
<text text-anchor="middle" x="756.17" y="-381.2" font-family="Helvetica,Arial,sans-serif" font-size="14.00">elab&#45;record&#45;patching</text>
</g>
<!-- elab&#45;dependent&#45;sugar&#45;&gt;elab&#45;record&#45;patching -->
<g id="edge13" class="edge">
<title>elab&#45;dependent&#45;sugar&#45;&gt;elab&#45;record&#45;patching</title>
<path fill="none" stroke="black" d="M624.22,-387C638.7,-387 653.87,-387 668.54,-387"/>
<polygon fill="black" stroke="black" points="668.12,-390.5 678.12,-387 668.12,-383.5 668.12,-390.5"/>
</g>
<!-- elab&#45;system&#45;f&#45;bidirectional -->
<g id="node4" class="node">
<title>elab&#45;system&#45;f&#45;bidirectional</title>
<path fill="white" stroke="none" d="M388.97,-459C388.97,-459 225.92,-459 225.92,-459 219.92,-459 213.92,-453 213.92,-447 213.92,-447 213.92,-435 213.92,-435 213.92,-429 219.92,-423 225.92,-423 225.92,-423 388.97,-423 388.97,-423 394.97,-423 400.97,-429 400.97,-435 400.97,-435 400.97,-447 400.97,-447 400.97,-453 394.97,-459 388.97,-459"/>
<text text-anchor="middle" x="307.45" y="-435.2" font-family="Helvetica,Arial,sans-serif" font-size="14.00">elab&#45;system&#45;f&#45;bidirectional</text>
</g>
<!-- elab&#45;system&#45;f&#45;unification -->
<g id="node5" class="node">
<title>elab&#45;system&#45;f&#45;unification</title>
<path fill="white" stroke="none" d="M619.52,-459C619.52,-459 467.72,-459 467.72,-459 461.72,-459 455.72,-453 455.72,-447 455.72,-447 455.72,-435 455.72,-435 455.72,-429 461.72,-423 467.72,-423 467.72,-423 619.52,-423 619.52,-423 625.52,-423 631.52,-429 631.52,-435 631.52,-435 631.52,-447 631.52,-447 631.52,-453 625.52,-459 619.52,-459"/>
<text text-anchor="middle" x="543.62" y="-435.2" font-family="Helvetica,Arial,sans-serif" font-size="14.00">elab&#45;system&#45;f&#45;unification</text>
</g>
<!-- elab&#45;system&#45;f&#45;bidirectional&#45;&gt;elab&#45;system&#45;f&#45;unification -->
<g id="edge11" class="edge">
<title>elab&#45;system&#45;f&#45;bidirectional&#45;&gt;elab&#45;system&#45;f&#45;unification</title>
<path fill="none" stroke="black" d="M401.34,-441C415.44,-441 430.04,-441 444.26,-441"/>
<polygon fill="black" stroke="black" points="444.05,-444.5 454.05,-441 444.05,-437.5 444.05,-444.5"/>
</g>
<!-- elab&#45;stlc&#45;bidirectional -->
<g id="node6" class="node">
<title>elab&#45;stlc&#45;bidirectional</title>
<path fill="white" stroke="none" d="M159.55,-459C159.55,-459 28,-459 28,-459 22,-459 16,-453 16,-447 16,-447 16,-435 16,-435 16,-429 22,-423 28,-423 28,-423 159.55,-423 159.55,-423 165.55,-423 171.55,-429 171.55,-435 171.55,-435 171.55,-447 171.55,-447 171.55,-453 165.55,-459 159.55,-459"/>
<text text-anchor="middle" x="93.77" y="-435.2" font-family="Helvetica,Arial,sans-serif" font-size="14.00">elab&#45;stlc&#45;bidirectional</text>
</g>
<!-- elab&#45;stlc&#45;bidirectional&#45;&gt;elab&#45;dependent -->
<g id="edge5" class="edge">
<title>elab&#45;stlc&#45;bidirectional&#45;&gt;elab&#45;dependent</title>
<path fill="none" stroke="black" d="M167.03,-422.57C188.96,-416.97 213.03,-410.83 234.91,-405.25"/>
<polygon fill="black" stroke="black" points="235.49,-408.71 244.32,-402.85 233.76,-401.93 235.49,-408.71"/>
</g>
<!-- elab&#45;stlc&#45;bidirectional&#45;&gt;elab&#45;system&#45;f&#45;bidirectional -->
<g id="edge4" class="edge">
<title>elab&#45;stlc&#45;bidirectional&#45;&gt;elab&#45;system&#45;f&#45;bidirectional</title>
<path fill="none" stroke="black" d="M171.79,-441C181.67,-441 191.91,-441 202.13,-441"/>
<polygon fill="black" stroke="black" points="202.13,-444.5 212.13,-441 202.13,-437.5 202.13,-444.5"/>
</g>
<!-- elab&#45;stlc&#45;unification -->
<g id="node7" class="node">
<title>elab&#45;stlc&#45;unification</title>
<path fill="white" stroke="none" d="M367.6,-513C367.6,-513 247.3,-513 247.3,-513 241.3,-513 235.3,-507 235.3,-501 235.3,-501 235.3,-489 235.3,-489 235.3,-483 241.3,-477 247.3,-477 247.3,-477 367.6,-477 367.6,-477 373.6,-477 379.6,-483 379.6,-489 379.6,-489 379.6,-501 379.6,-501 379.6,-507 373.6,-513 367.6,-513"/>
<text text-anchor="middle" x="307.45" y="-489.2" font-family="Helvetica,Arial,sans-serif" font-size="14.00">elab&#45;stlc&#45;unification</text>
</g>
<!-- elab&#45;stlc&#45;bidirectional&#45;&gt;elab&#45;stlc&#45;unification -->
<g id="edge2" class="edge">
<title>elab&#45;stlc&#45;bidirectional&#45;&gt;elab&#45;stlc&#45;unification</title>
<path fill="none" stroke="black" d="M167.03,-459.43C185.35,-464.11 205.17,-469.16 223.96,-473.96"/>
<polygon fill="black" stroke="black" points="222.86,-477.29 233.41,-476.37 224.59,-470.5 222.86,-477.29"/>
</g>
<!-- elab&#45;stlc&#45;bidirectional&#45;stratify -->
<g id="node8" class="node">
<title>elab&#45;stlc&#45;bidirectional&#45;stratify</title>
<path fill="white" stroke="none" d="M395.35,-567C395.35,-567 219.55,-567 219.55,-567 213.55,-567 207.55,-561 207.55,-555 207.55,-555 207.55,-543 207.55,-543 207.55,-537 213.55,-531 219.55,-531 219.55,-531 395.35,-531 395.35,-531 401.35,-531 407.35,-537 407.35,-543 407.35,-543 407.35,-555 407.35,-555 407.35,-561 401.35,-567 395.35,-567"/>
<text text-anchor="middle" x="307.45" y="-543.2" font-family="Helvetica,Arial,sans-serif" font-size="14.00">elab&#45;stlc&#45;bidirectional&#45;stratify</text>
</g>
<!-- elab&#45;stlc&#45;bidirectional&#45;&gt;elab&#45;stlc&#45;bidirectional&#45;stratify -->
<g id="edge1" class="edge">
<title>elab&#45;stlc&#45;bidirectional&#45;&gt;elab&#45;stlc&#45;bidirectional&#45;stratify</title>
<path fill="none" stroke="black" d="M115.37,-459.29C136.94,-477.57 172.51,-505.3 207.55,-522 210.88,-523.59 214.33,-525.1 217.84,-526.53"/>
<polygon fill="black" stroke="black" points="216.54,-529.78 227.13,-530.05 219.03,-523.23 216.54,-529.78"/>
</g>
<!-- elab&#45;stlc&#45;abstract -->
<g id="node9" class="node">
<title>elab&#45;stlc&#45;abstract</title>
<path fill="white" stroke="none" d="M361.22,-621C361.22,-621 253.67,-621 253.67,-621 247.67,-621 241.67,-615 241.67,-609 241.67,-609 241.67,-597 241.67,-597 241.67,-591 247.67,-585 253.67,-585 253.67,-585 361.22,-585 361.22,-585 367.22,-585 373.22,-591 373.22,-597 373.22,-597 373.22,-609 373.22,-609 373.22,-615 367.22,-621 361.22,-621"/>
<text text-anchor="middle" x="307.45" y="-597.2" font-family="Helvetica,Arial,sans-serif" font-size="14.00">elab&#45;stlc&#45;abstract</text>
</g>
<!-- elab&#45;stlc&#45;bidirectional&#45;&gt;elab&#45;stlc&#45;abstract -->
<g id="edge3" class="edge">
<title>elab&#45;stlc&#45;bidirectional&#45;&gt;elab&#45;stlc&#45;abstract</title>
<path fill="none" stroke="black" d="M105.02,-459.35C122.28,-488.57 160.01,-545.48 207.55,-576 214.63,-580.55 222.47,-584.33 230.55,-587.49"/>
<polygon fill="black" stroke="black" points="229.23,-590.74 239.83,-590.78 231.57,-584.14 229.23,-590.74"/>
</g>
<!-- lang&#45;doc&#45;templates -->
<g id="node20" class="node">
<title>lang&#45;doc&#45;templates</title>
<path fill="white" stroke="none" d="M367.6,-268C367.6,-268 247.3,-268 247.3,-268 241.3,-268 235.3,-262 235.3,-256 235.3,-256 235.3,-244 235.3,-244 235.3,-238 241.3,-232 247.3,-232 247.3,-232 367.6,-232 367.6,-232 373.6,-232 379.6,-238 379.6,-244 379.6,-244 379.6,-256 379.6,-256 379.6,-262 373.6,-268 367.6,-268"/>
<text text-anchor="middle" x="307.45" y="-244.2" font-family="Helvetica,Arial,sans-serif" font-size="14.00">lang&#45;doc&#45;templates</text>
</g>
<!-- elab&#45;stlc&#45;bidirectional&#45;&gt;lang&#45;doc&#45;templates -->
<g id="edge6" class="edge">
<title>elab&#45;stlc&#45;bidirectional&#45;&gt;lang&#45;doc&#45;templates</title>
<path fill="none" stroke="black" d="M102.25,-422.58C117.07,-388.46 153.46,-315.41 207.55,-277 212.8,-273.27 218.55,-270.06 224.54,-267.28"/>
<polygon fill="black" stroke="black" points="225.52,-270.67 233.42,-263.61 222.84,-264.2 225.52,-270.67"/>
</g>
<!-- elab&#45;stlc&#45;unification&#45;&gt;elab&#45;system&#45;f&#45;unification -->
<g id="edge10" class="edge">
<title>elab&#45;stlc&#45;unification&#45;&gt;elab&#45;system&#45;f&#45;unification</title>
<path fill="none" stroke="black" d="M379.98,-478.5C402.51,-473.31 427.7,-467.5 451.4,-462.04"/>
<polygon fill="black" stroke="black" points="452.1,-465.47 461.06,-459.81 450.53,-458.64 452.1,-465.47"/>
</g>
<!-- elab&#45;stlc&#45;row&#45;unification -->
<g id="node10" class="node">
<title>elab&#45;stlc&#45;row&#45;unification</title>
<path fill="white" stroke="none" d="M616.9,-513C616.9,-513 470.35,-513 470.35,-513 464.35,-513 458.35,-507 458.35,-501 458.35,-501 458.35,-489 458.35,-489 458.35,-483 464.35,-477 470.35,-477 470.35,-477 616.9,-477 616.9,-477 622.9,-477 628.9,-483 628.9,-489 628.9,-489 628.9,-501 628.9,-501 628.9,-507 622.9,-513 616.9,-513"/>
<text text-anchor="middle" x="543.62" y="-489.2" font-family="Helvetica,Arial,sans-serif" font-size="14.00">elab&#45;stlc&#45;row&#45;unification</text>
</g>
<!-- elab&#45;stlc&#45;unification&#45;&gt;elab&#45;stlc&#45;row&#45;unification -->
<g id="edge9" class="edge">
<title>elab&#45;stlc&#45;unification&#45;&gt;elab&#45;stlc&#45;row&#45;unification</title>
<path fill="none" stroke="black" d="M379.98,-495C400.94,-495 424.21,-495 446.44,-495"/>
<polygon fill="black" stroke="black" points="446.44,-498.5 456.44,-495 446.44,-491.5 446.44,-498.5"/>
</g>
<!-- elab&#45;stlc&#45;letrec&#45;unification -->
<g id="node11" class="node">
<title>elab&#45;stlc&#45;letrec&#45;unification</title>
<path fill="white" stroke="none" d="M622.52,-567C622.52,-567 464.72,-567 464.72,-567 458.72,-567 452.72,-561 452.72,-555 452.72,-555 452.72,-543 452.72,-543 452.72,-537 458.72,-531 464.72,-531 464.72,-531 622.52,-531 622.52,-531 628.52,-531 634.52,-537 634.52,-543 634.52,-543 634.52,-555 634.52,-555 634.52,-561 628.52,-567 622.52,-567"/>
<text text-anchor="middle" x="543.62" y="-543.2" font-family="Helvetica,Arial,sans-serif" font-size="14.00">elab&#45;stlc&#45;letrec&#45;unification</text>
</g>
<!-- elab&#45;stlc&#45;unification&#45;&gt;elab&#45;stlc&#45;letrec&#45;unification -->
<g id="edge8" class="edge">
<title>elab&#45;stlc&#45;unification&#45;&gt;elab&#45;stlc&#45;letrec&#45;unification:sw</title>
<path fill="none" stroke="black" d="M379.94,-497.6C402.66,-501.48 426.7,-509.11 445.31,-523.59"/>
<polygon fill="black" stroke="black" points="442.77,-526.02 452.59,-530 447.4,-520.76 442.77,-526.02"/>
</g>
<!-- elab&#45;stlc&#45;unification&#45;recovery -->
<g id="node12" class="node">
<title>elab&#45;stlc&#45;unification&#45;recovery</title>
<path fill="white" stroke="none" d="M631.9,-621C631.9,-621 455.35,-621 455.35,-621 449.35,-621 443.35,-615 443.35,-609 443.35,-609 443.35,-597 443.35,-597 443.35,-591 449.35,-585 455.35,-585 455.35,-585 631.9,-585 631.9,-585 637.9,-585 643.9,-591 643.9,-597 643.9,-597 643.9,-609 643.9,-609 643.9,-615 637.9,-621 631.9,-621"/>
<text text-anchor="middle" x="543.62" y="-597.2" font-family="Helvetica,Arial,sans-serif" font-size="14.00">elab&#45;stlc&#45;unification&#45;recovery</text>
</g>
<!-- elab&#45;stlc&#45;unification&#45;&gt;elab&#45;stlc&#45;unification&#45;recovery -->
<g id="edge7" class="edge">
<title>elab&#45;stlc&#45;unification&#45;&gt;elab&#45;stlc&#45;unification&#45;recovery</title>
<path fill="none" stroke="black" d="M379.91,-507.83C389.65,-511.44 399.12,-516.07 407.35,-522 430.75,-538.87 419.94,-559.14 443.35,-576 444.89,-577.11 446.48,-578.18 448.11,-579.2"/>
<polygon fill="black" stroke="black" points="446.02,-582.04 456.45,-583.85 449.42,-575.93 446.02,-582.04"/>
</g>
<!-- compile&#45;arith -->
<g id="node13" class="node">
<title>compile&#45;arith</title>
<path fill="white" stroke="none" d="M135.17,-704C135.17,-704 52.37,-704 52.37,-704 46.37,-704 40.37,-698 40.37,-692 40.37,-692 40.37,-680 40.37,-680 40.37,-674 46.37,-668 52.37,-668 52.37,-668 135.17,-668 135.17,-668 141.17,-668 147.17,-674 147.17,-680 147.17,-680 147.17,-692 147.17,-692 147.17,-698 141.17,-704 135.17,-704"/>
<text text-anchor="middle" x="93.77" y="-680.2" font-family="Helvetica,Arial,sans-serif" font-size="14.00">compile&#45;arith</text>
</g>
<!-- compile&#45;arithcond -->
<g id="node14" class="node">
<title>compile&#45;arithcond</title>
<path fill="white" stroke="none" d="M363.47,-704C363.47,-704 251.42,-704 251.42,-704 245.42,-704 239.42,-698 239.42,-692 239.42,-692 239.42,-680 239.42,-680 239.42,-674 245.42,-668 251.42,-668 251.42,-668 363.47,-668 363.47,-668 369.47,-668 375.47,-674 375.47,-680 375.47,-680 375.47,-692 375.47,-692 375.47,-698 369.47,-704 363.47,-704"/>
<text text-anchor="middle" x="307.45" y="-680.2" font-family="Helvetica,Arial,sans-serif" font-size="14.00">compile&#45;arithcond</text>
</g>
<!-- compile&#45;arith&#45;&gt;compile&#45;arithcond -->
<g id="edge14" class="edge">
<title>compile&#45;arith&#45;&gt;compile&#45;arithcond</title>
<path fill="none" stroke="black" d="M147.64,-686C171.86,-686 201.06,-686 227.78,-686"/>
<polygon fill="black" stroke="black" points="227.55,-689.5 237.55,-686 227.55,-682.5 227.55,-689.5"/>
</g>
<!-- lang&#45;declarative&#45;graphics -->
<g id="node15" class="node">
<title>lang&#45;declarative&#45;graphics</title>
<path fill="white" stroke="none" d="M385.22,-52C385.22,-52 229.67,-52 229.67,-52 223.67,-52 217.67,-46 217.67,-40 217.67,-40 217.67,-28 217.67,-28 217.67,-22 223.67,-16 229.67,-16 229.67,-16 385.22,-16 385.22,-16 391.22,-16 397.22,-22 397.22,-28 397.22,-28 397.22,-40 397.22,-40 397.22,-46 391.22,-52 385.22,-52"/>
<text text-anchor="middle" x="307.45" y="-28.2" font-family="Helvetica,Arial,sans-serif" font-size="14.00">lang&#45;declarative&#45;graphics</text>
</g>
<!-- lang&#45;fractal&#45;tree&#45;rewriting -->
<g id="node17" class="node">
<title>lang&#45;fractal&#45;tree&#45;rewriting</title>
<path fill="white" stroke="none" d="M621.02,-79C621.02,-79 466.22,-79 466.22,-79 460.22,-79 454.22,-73 454.22,-67 454.22,-67 454.22,-55 454.22,-55 454.22,-49 460.22,-43 466.22,-43 466.22,-43 621.02,-43 621.02,-43 627.02,-43 633.02,-49 633.02,-55 633.02,-55 633.02,-67 633.02,-67 633.02,-73 627.02,-79 621.02,-79"/>
<text text-anchor="middle" x="543.62" y="-55.2" font-family="Helvetica,Arial,sans-serif" font-size="14.00">lang&#45;fractal&#45;tree&#45;rewriting</text>
</g>
<!-- lang&#45;declarative&#45;graphics&#45;&gt;lang&#45;fractal&#45;tree&#45;rewriting -->
<g id="edge17" class="edge">
<title>lang&#45;declarative&#45;graphics&#45;&gt;lang&#45;fractal&#45;tree&#45;rewriting</title>
<path fill="none" stroke="black" d="M397.65,-44.28C412.38,-45.98 427.73,-47.75 442.7,-49.48"/>
<polygon fill="black" stroke="black" points="442.22,-52.95 452.56,-50.62 443.02,-45.99 442.22,-52.95"/>
</g>
<!-- lang&#45;fractal&#45;growth -->
<g id="node16" class="node">
<title>lang&#45;fractal&#45;growth</title>
<path fill="white" stroke="none" d="M365.72,-106C365.72,-106 249.17,-106 249.17,-106 243.17,-106 237.17,-100 237.17,-94 237.17,-94 237.17,-82 237.17,-82 237.17,-76 243.17,-70 249.17,-70 249.17,-70 365.72,-70 365.72,-70 371.72,-70 377.72,-76 377.72,-82 377.72,-82 377.72,-94 377.72,-94 377.72,-100 371.72,-106 365.72,-106"/>
<text text-anchor="middle" x="307.45" y="-82.2" font-family="Helvetica,Arial,sans-serif" font-size="14.00">lang&#45;fractal&#45;growth</text>
</g>
<!-- lang&#45;fractal&#45;growth&#45;&gt;lang&#45;fractal&#45;tree&#45;rewriting -->
<g id="edge16" class="edge">
<title>lang&#45;fractal&#45;growth&#45;&gt;lang&#45;fractal&#45;tree&#45;rewriting</title>
<path fill="none" stroke="black" d="M378.08,-79.97C398.4,-77.63 421.01,-75.02 442.81,-72.51"/>
<polygon fill="black" stroke="black" points="443.09,-76 452.62,-71.38 442.28,-69.05 443.09,-76"/>
</g>
<!-- lang&#45;shader&#45;graphics -->
<g id="node18" class="node">
<title>lang&#45;shader&#45;graphics</title>
<path fill="white" stroke="none" d="M373.22,-160C373.22,-160 241.67,-160 241.67,-160 235.67,-160 229.67,-154 229.67,-148 229.67,-148 229.67,-136 229.67,-136 229.67,-130 235.67,-124 241.67,-124 241.67,-124 373.22,-124 373.22,-124 379.22,-124 385.22,-130 385.22,-136 385.22,-136 385.22,-148 385.22,-148 385.22,-154 379.22,-160 373.22,-160"/>
<text text-anchor="middle" x="307.45" y="-136.2" font-family="Helvetica,Arial,sans-serif" font-size="14.00">lang&#45;shader&#45;graphics</text>
</g>
<!-- lang&#45;datalog -->
<g id="node19" class="node">
<title>lang&#45;datalog</title>
<path fill="white" stroke="none" d="M346.97,-214C346.97,-214 267.92,-214 267.92,-214 261.92,-214 255.92,-208 255.92,-202 255.92,-202 255.92,-190 255.92,-190 255.92,-184 261.92,-178 267.92,-178 267.92,-178 346.97,-178 346.97,-178 352.97,-178 358.97,-184 358.97,-190 358.97,-190 358.97,-202 358.97,-202 358.97,-208 352.97,-214 346.97,-214"/>
<text text-anchor="middle" x="307.45" y="-190.2" font-family="Helvetica,Arial,sans-serif" font-size="14.00">lang&#45;datalog</text>
</g>
<!-- lang&#45;lc&#45;interpreters -->
<g id="node21" class="node">
<title>lang&#45;lc&#45;interpreters</title>
<path fill="white" stroke="none" d="M366.1,-322C366.1,-322 248.8,-322 248.8,-322 242.8,-322 236.8,-316 236.8,-310 236.8,-310 236.8,-298 236.8,-298 236.8,-292 242.8,-286 248.8,-286 248.8,-286 366.1,-286 366.1,-286 372.1,-286 378.1,-292 378.1,-298 378.1,-298 378.1,-310 378.1,-310 378.1,-316 372.1,-322 366.1,-322"/>
<text text-anchor="middle" x="307.45" y="-298.2" font-family="Helvetica,Arial,sans-serif" font-size="14.00">lang&#45;lc&#45;interpreters</text>
</g>
<!-- lang&#45;lc&#45;interpreters&#45;&gt;elab&#45;stlc&#45;bidirectional -->
<g id="edge15" class="edge">
<title>lang&#45;lc&#45;interpreters&#45;&gt;elab&#45;stlc&#45;bidirectional</title>
<path fill="none" stroke="black" d="M269.08,-322.37C250.24,-332.03 227.28,-344.46 207.55,-357 179.06,-375.1 148.45,-398.15 126.32,-415.52"/>
<polygon fill="black" stroke="black" points="124.25,-412.7 118.58,-421.65 128.59,-418.19 124.25,-412.7"/>
</g>
</g>
</svg>
