<?xml version="1.0" encoding="UTF-8" standalone="no"?>
<!DOCTYPE svg PUBLIC "-//W3C//DTD SVG 1.1//EN"
 "http://www.w3.org/Graphics/SVG/1.1/DTD/svg11.dtd">
<!-- Generated by graphviz version 12.2.1 (0)
 -->
<!-- Title: garden Pages: 1 -->
<svg width="838pt" height="751pt"
 viewBox="0.00 0.00 837.70 751.00" xmlns="http://www.w3.org/2000/svg" xmlns:xlink="http://www.w3.org/1999/xlink">
<g id="graph0" class="graph" transform="scale(1 1) rotate(0) translate(4 747)">
<title>garden</title>
<polygon fill="white" stroke="none" points="-4,4 -4,-747 833.7,-747 833.7,4 -4,4"/>
<g id="clust1" class="cluster">
<title>elab</title>
<path fill="gainsboro" stroke="none" d="M20,-361C20,-361 809.7,-361 809.7,-361 815.7,-361 821.7,-367 821.7,-373 821.7,-373 821.7,-640 821.7,-640 821.7,-646 815.7,-652 809.7,-652 809.7,-652 20,-652 20,-652 14,-652 8,-646 8,-640 8,-640 8,-373 8,-373 8,-367 14,-361 20,-361"/>
<text text-anchor="middle" x="414.85" y="-634.7" font-family="Helvetica,Arial,sans-serif" font-size="14.00">elab</text>
</g>
<g id="clust2" class="cluster">
<title>compile</title>
<path fill="gainsboro" stroke="none" d="M44.38,-660C44.38,-660 371.47,-660 371.47,-660 377.47,-660 383.47,-666 383.47,-672 383.47,-672 383.47,-723 383.47,-723 383.47,-729 377.47,-735 371.47,-735 371.47,-735 44.37,-735 44.37,-735 38.38,-735 32.38,-729 32.38,-723 32.38,-723 32.38,-672 32.38,-672 32.38,-666 38.38,-660 44.38,-660"/>
<text text-anchor="middle" x="207.92" y="-717.7" font-family="Helvetica,Arial,sans-serif" font-size="14.00">compile</text>
</g>
<g id="clust3" class="cluster">
<title>lang</title>
<path fill="gainsboro" stroke="none" d="M221.67,-8C221.67,-8 619.65,-8 619.65,-8 625.65,-8 631.65,-14 631.65,-20 631.65,-20 631.65,-341 631.65,-341 631.65,-347 625.65,-353 619.65,-353 619.65,-353 221.67,-353 221.67,-353 215.67,-353 209.67,-347 209.67,-341 209.67,-341 209.67,-20 209.67,-20 209.67,-14 215.67,-8 221.67,-8"/>
<text text-anchor="middle" x="420.66" y="-335.7" font-family="Helvetica,Arial,sans-serif" font-size="14.00">lang</text>
</g>
<!-- elab&#45;dependent -->
<g id="node1" class="node">
<title>elab&#45;dependent</title>
<path fill="white" stroke="none" d="M356.72,-405C356.72,-405 258.17,-405 258.17,-405 252.17,-405 246.17,-399 246.17,-393 246.17,-393 246.17,-381 246.17,-381 246.17,-375 252.17,-369 258.17,-369 258.17,-369 356.72,-369 356.72,-369 362.72,-369 368.72,-375 368.72,-381 368.72,-381 368.72,-393 368.72,-393 368.72,-399 362.72,-405 356.72,-405"/>
<text text-anchor="middle" x="307.45" y="-381.2" font-family="Helvetica,Arial,sans-serif" font-size="14.00">elab&#45;dependent</text>
</g>
<!-- elab&#45;dependent&#45;sugar -->
<g id="node2" class="node">
<title>elab&#45;dependent&#45;sugar</title>
<path fill="white" stroke="none" d="M602.65,-405C602.65,-405 465.85,-405 465.85,-405 459.85,-405 453.85,-399 453.85,-393 453.85,-393 453.85,-381 453.85,-381 453.85,-375 459.85,-369 465.85,-369 465.85,-369 602.65,-369 602.65,-369 608.65,-369 614.65,-375 614.65,-381 614.65,-381 614.65,-393 614.65,-393 614.65,-399 608.65,-405 602.65,-405"/>
<text text-anchor="middle" x="534.25" y="-381.2" font-family="Helvetica,Arial,sans-serif" font-size="14.00">elab&#45;dependent&#45;sugar</text>
</g>
<!-- elab&#45;dependent&#45;&gt;elab&#45;dependent&#45;sugar -->
<g id="edge11" class="edge">
<title>elab&#45;dependent&#45;&gt;elab&#45;dependent&#45;sugar</title>
<path fill="none" stroke="black" d="M368.99,-387C391.54,-387 417.67,-387 442.35,-387"/>
<polygon fill="black" stroke="black" points="442.06,-390.5 452.06,-387 442.06,-383.5 442.06,-390.5"/>
</g>
<!-- elab&#45;record&#45;patching -->
<g id="node3" class="node">
<title>elab&#45;record&#45;patching</title>
<path fill="white" stroke="none" d="M801.7,-405C801.7,-405 673.15,-405 673.15,-405 667.15,-405 661.15,-399 661.15,-393 661.15,-393 661.15,-381 661.15,-381 661.15,-375 667.15,-369 673.15,-369 673.15,-369 801.7,-369 801.7,-369 807.7,-369 813.7,-375 813.7,-381 813.7,-381 813.7,-393 813.7,-393 813.7,-399 807.7,-405 801.7,-405"/>
<text text-anchor="middle" x="737.42" y="-381.2" font-family="Helvetica,Arial,sans-serif" font-size="14.00">elab&#45;record&#45;patching</text>
</g>
<!-- elab&#45;dependent&#45;sugar&#45;&gt;elab&#45;record&#45;patching -->
<g id="edge12" class="edge">
<title>elab&#45;dependent&#45;sugar&#45;&gt;elab&#45;record&#45;patching</title>
<path fill="none" stroke="black" d="M615.05,-387C626.32,-387 637.96,-387 649.36,-387"/>
<polygon fill="black" stroke="black" points="649.14,-390.5 659.14,-387 649.14,-383.5 649.14,-390.5"/>
</g>
<!-- elab&#45;system&#45;f&#45;bidirectional -->
<g id="node4" class="node">
<title>elab&#45;system&#45;f&#45;bidirectional</title>
<path fill="white" stroke="none" d="M388.97,-459C388.97,-459 225.92,-459 225.92,-459 219.92,-459 213.92,-453 213.92,-447 213.92,-447 213.92,-435 213.92,-435 213.92,-429 219.92,-423 225.92,-423 225.92,-423 388.97,-423 388.97,-423 394.97,-423 400.97,-429 400.97,-435 400.97,-435 400.97,-447 400.97,-447 400.97,-453 394.97,-459 388.97,-459"/>
<text text-anchor="middle" x="307.45" y="-435.2" font-family="Helvetica,Arial,sans-serif" font-size="14.00">elab&#45;system&#45;f&#45;bidirectional</text>
</g>
<!-- elab&#45;system&#45;f&#45;unification -->
<g id="node5" class="node">
<title>elab&#45;system&#45;f&#45;unification</title>
<path fill="white" stroke="none" d="M610.15,-459C610.15,-459 458.35,-459 458.35,-459 452.35,-459 446.35,-453 446.35,-447 446.35,-447 446.35,-435 446.35,-435 446.35,-429 452.35,-423 458.35,-423 458.35,-423 610.15,-423 610.15,-423 616.15,-423 622.15,-429 622.15,-435 622.15,-435 622.15,-447 622.15,-447 622.15,-453 616.15,-459 610.15,-459"/>
<text text-anchor="middle" x="534.25" y="-435.2" font-family="Helvetica,Arial,sans-serif" font-size="14.00">elab&#45;system&#45;f&#45;unification</text>
</g>
<!-- elab&#45;system&#45;f&#45;bidirectional&#45;&gt;elab&#45;system&#45;f&#45;unification -->
<g id="edge10" class="edge">
<title>elab&#45;system&#45;f&#45;bidirectional&#45;&gt;elab&#45;system&#45;f&#45;unification</title>
<path fill="none" stroke="black" d="M401.18,-441C412.22,-441 423.53,-441 434.65,-441"/>
<polygon fill="black" stroke="black" points="434.63,-444.5 444.63,-441 434.63,-437.5 434.63,-444.5"/>
</g>
<!-- elab&#45;stlc&#45;bidirectional -->
<g id="node6" class="node">
<title>elab&#45;stlc&#45;bidirectional</title>
<path fill="white" stroke="none" d="M159.55,-459C159.55,-459 28,-459 28,-459 22,-459 16,-453 16,-447 16,-447 16,-435 16,-435 16,-429 22,-423 28,-423 28,-423 159.55,-423 159.55,-423 165.55,-423 171.55,-429 171.55,-435 171.55,-435 171.55,-447 171.55,-447 171.55,-453 165.55,-459 159.55,-459"/>
<text text-anchor="middle" x="93.77" y="-435.2" font-family="Helvetica,Arial,sans-serif" font-size="14.00">elab&#45;stlc&#45;bidirectional</text>
</g>
<!-- elab&#45;stlc&#45;bidirectional&#45;&gt;elab&#45;dependent -->
<g id="edge5" class="edge">
<title>elab&#45;stlc&#45;bidirectional&#45;&gt;elab&#45;dependent</title>
<path fill="none" stroke="black" d="M167.03,-422.57C188.96,-416.97 213.03,-410.83 234.91,-405.25"/>
<polygon fill="black" stroke="black" points="235.49,-408.71 244.32,-402.85 233.76,-401.93 235.49,-408.71"/>
</g>
<!-- elab&#45;stlc&#45;bidirectional&#45;&gt;elab&#45;system&#45;f&#45;bidirectional -->
<g id="edge4" class="edge">
<title>elab&#45;stlc&#45;bidirectional&#45;&gt;elab&#45;system&#45;f&#45;bidirectional</title>
<path fill="none" stroke="black" d="M171.79,-441C181.67,-441 191.91,-441 202.13,-441"/>
<polygon fill="black" stroke="black" points="202.13,-444.5 212.13,-441 202.13,-437.5 202.13,-444.5"/>
</g>
<!-- elab&#45;stlc&#45;unification -->
<g id="node7" class="node">
<title>elab&#45;stlc&#45;unification</title>
<path fill="white" stroke="none" d="M367.6,-513C367.6,-513 247.3,-513 247.3,-513 241.3,-513 235.3,-507 235.3,-501 235.3,-501 235.3,-489 235.3,-489 235.3,-483 241.3,-477 247.3,-477 247.3,-477 367.6,-477 367.6,-477 373.6,-477 379.6,-483 379.6,-489 379.6,-489 379.6,-501 379.6,-501 379.6,-507 373.6,-513 367.6,-513"/>
<text text-anchor="middle" x="307.45" y="-489.2" font-family="Helvetica,Arial,sans-serif" font-size="14.00">elab&#45;stlc&#45;unification</text>
</g>
<!-- elab&#45;stlc&#45;bidirectional&#45;&gt;elab&#45;stlc&#45;unification -->
<g id="edge2" class="edge">
<title>elab&#45;stlc&#45;bidirectional&#45;&gt;elab&#45;stlc&#45;unification</title>
<path fill="none" stroke="black" d="M167.03,-459.43C185.35,-464.11 205.17,-469.16 223.96,-473.96"/>
<polygon fill="black" stroke="black" points="222.86,-477.29 233.41,-476.37 224.59,-470.5 222.86,-477.29"/>
</g>
<!-- elab&#45;stlc&#45;bidirectional&#45;stratify -->
<g id="node10" class="node">
<title>elab&#45;stlc&#45;bidirectional&#45;stratify</title>
<path fill="white" stroke="none" d="M395.35,-567C395.35,-567 219.55,-567 219.55,-567 213.55,-567 207.55,-561 207.55,-555 207.55,-555 207.55,-543 207.55,-543 207.55,-537 213.55,-531 219.55,-531 219.55,-531 395.35,-531 395.35,-531 401.35,-531 407.35,-537 407.35,-543 407.35,-543 407.35,-555 407.35,-555 407.35,-561 401.35,-567 395.35,-567"/>
<text text-anchor="middle" x="307.45" y="-543.2" font-family="Helvetica,Arial,sans-serif" font-size="14.00">elab&#45;stlc&#45;bidirectional&#45;stratify</text>
</g>
<!-- elab&#45;stlc&#45;bidirectional&#45;&gt;elab&#45;stlc&#45;bidirectional&#45;stratify -->
<g id="edge1" class="edge">
<title>elab&#45;stlc&#45;bidirectional&#45;&gt;elab&#45;stlc&#45;bidirectional&#45;stratify</title>
<path fill="none" stroke="black" d="M115.37,-459.29C136.94,-477.57 172.51,-505.3 207.55,-522 210.88,-523.59 214.33,-525.1 217.84,-526.53"/>
<polygon fill="black" stroke="black" points="216.54,-529.78 227.13,-530.05 219.03,-523.23 216.54,-529.78"/>
</g>
<!-- elab&#45;stlc&#45;abstract -->
<g id="node11" class="node">
<title>elab&#45;stlc&#45;abstract</title>
<path fill="white" stroke="none" d="M361.22,-621C361.22,-621 253.67,-621 253.67,-621 247.67,-621 241.67,-615 241.67,-609 241.67,-609 241.67,-597 241.67,-597 241.67,-591 247.67,-585 253.67,-585 253.67,-585 361.22,-585 361.22,-585 367.22,-585 373.22,-591 373.22,-597 373.22,-597 373.22,-609 373.22,-609 373.22,-615 367.22,-621 361.22,-621"/>
<text text-anchor="middle" x="307.45" y="-597.2" font-family="Helvetica,Arial,sans-serif" font-size="14.00">elab&#45;stlc&#45;abstract</text>
</g>
<!-- elab&#45;stlc&#45;bidirectional&#45;&gt;elab&#45;stlc&#45;abstract -->
<g id="edge3" class="edge">
<title>elab&#45;stlc&#45;bidirectional&#45;&gt;elab&#45;stlc&#45;abstract</title>
<path fill="none" stroke="black" d="M105.02,-459.35C122.28,-488.57 160.01,-545.48 207.55,-576 214.63,-580.55 222.47,-584.33 230.55,-587.49"/>
<polygon fill="black" stroke="black" points="229.23,-590.74 239.83,-590.78 231.57,-584.14 229.23,-590.74"/>
</g>
<!-- lang&#45;doc&#45;templates -->
<g id="node19" class="node">
<title>lang&#45;doc&#45;templates</title>
<path fill="white" stroke="none" d="M367.6,-268C367.6,-268 247.3,-268 247.3,-268 241.3,-268 235.3,-262 235.3,-256 235.3,-256 235.3,-244 235.3,-244 235.3,-238 241.3,-232 247.3,-232 247.3,-232 367.6,-232 367.6,-232 373.6,-232 379.6,-238 379.6,-244 379.6,-244 379.6,-256 379.6,-256 379.6,-262 373.6,-268 367.6,-268"/>
<text text-anchor="middle" x="307.45" y="-244.2" font-family="Helvetica,Arial,sans-serif" font-size="14.00">lang&#45;doc&#45;templates</text>
</g>
<!-- elab&#45;stlc&#45;bidirectional&#45;&gt;lang&#45;doc&#45;templates -->
<g id="edge6" class="edge">
<title>elab&#45;stlc&#45;bidirectional&#45;&gt;lang&#45;doc&#45;templates</title>
<path fill="none" stroke="black" d="M102.25,-422.58C117.07,-388.46 153.46,-315.41 207.55,-277 212.8,-273.27 218.55,-270.06 224.54,-267.28"/>
<polygon fill="black" stroke="black" points="225.52,-270.67 233.42,-263.61 222.84,-264.2 225.52,-270.67"/>
</g>
<!-- elab&#45;stlc&#45;unification&#45;&gt;elab&#45;system&#45;f&#45;unification -->
<g id="edge9" class="edge">
<title>elab&#45;stlc&#45;unification&#45;&gt;elab&#45;system&#45;f&#45;unification</title>
<path fill="none" stroke="black" d="M379.89,-477.84C400.78,-472.82 423.87,-467.27 445.65,-462.04"/>
<polygon fill="black" stroke="black" points="446.18,-465.52 455.08,-459.78 444.54,-458.71 446.18,-465.52"/>
</g>
<!-- elab&#45;stlc&#45;letrec&#45;unification -->
<g id="node8" class="node">
<title>elab&#45;stlc&#45;letrec&#45;unification</title>
<path fill="white" stroke="none" d="M613.15,-513C613.15,-513 455.35,-513 455.35,-513 449.35,-513 443.35,-507 443.35,-501 443.35,-501 443.35,-489 443.35,-489 443.35,-483 449.35,-477 455.35,-477 455.35,-477 613.15,-477 613.15,-477 619.15,-477 625.15,-483 625.15,-489 625.15,-489 625.15,-501 625.15,-501 625.15,-507 619.15,-513 613.15,-513"/>
<text text-anchor="middle" x="534.25" y="-489.2" font-family="Helvetica,Arial,sans-serif" font-size="14.00">elab&#45;stlc&#45;letrec&#45;unification</text>
</g>
<!-- elab&#45;stlc&#45;unification&#45;&gt;elab&#45;stlc&#45;letrec&#45;unification -->
<g id="edge7" class="edge">
<title>elab&#45;stlc&#45;unification&#45;&gt;elab&#45;stlc&#45;letrec&#45;unification</title>
<path fill="none" stroke="black" d="M379.89,-495C396.34,-495 414.15,-495 431.61,-495"/>
<polygon fill="black" stroke="black" points="431.5,-498.5 441.5,-495 431.5,-491.5 431.5,-498.5"/>
</g>
<!-- elab&#45;stlc&#45;row&#45;unification -->
<g id="node9" class="node">
<title>elab&#45;stlc&#45;row&#45;unification</title>
<path fill="white" stroke="none" d="M607.52,-567C607.52,-567 460.97,-567 460.97,-567 454.97,-567 448.97,-561 448.97,-555 448.97,-555 448.97,-543 448.97,-543 448.97,-537 454.97,-531 460.97,-531 460.97,-531 607.52,-531 607.52,-531 613.52,-531 619.52,-537 619.52,-543 619.52,-543 619.52,-555 619.52,-555 619.52,-561 613.52,-567 607.52,-567"/>
<text text-anchor="middle" x="534.25" y="-543.2" font-family="Helvetica,Arial,sans-serif" font-size="14.00">elab&#45;stlc&#45;row&#45;unification</text>
</g>
<!-- elab&#45;stlc&#45;unification&#45;&gt;elab&#45;stlc&#45;row&#45;unification -->
<g id="edge8" class="edge">
<title>elab&#45;stlc&#45;unification&#45;&gt;elab&#45;stlc&#45;row&#45;unification</title>
<path fill="none" stroke="black" d="M379.89,-512.16C400.78,-517.18 423.87,-522.73 445.65,-527.96"/>
<polygon fill="black" stroke="black" points="444.54,-531.29 455.08,-530.22 446.18,-524.48 444.54,-531.29"/>
</g>
<!-- compile&#45;arith -->
<g id="node12" class="node">
<title>compile&#45;arith</title>
<path fill="white" stroke="none" d="M135.17,-704C135.17,-704 52.37,-704 52.37,-704 46.37,-704 40.37,-698 40.37,-692 40.37,-692 40.37,-680 40.37,-680 40.37,-674 46.37,-668 52.37,-668 52.37,-668 135.17,-668 135.17,-668 141.17,-668 147.17,-674 147.17,-680 147.17,-680 147.17,-692 147.17,-692 147.17,-698 141.17,-704 135.17,-704"/>
<text text-anchor="middle" x="93.77" y="-680.2" font-family="Helvetica,Arial,sans-serif" font-size="14.00">compile&#45;arith</text>
</g>
<!-- compile&#45;arithcond -->
<g id="node13" class="node">
<title>compile&#45;arithcond</title>
<path fill="white" stroke="none" d="M363.47,-704C363.47,-704 251.42,-704 251.42,-704 245.42,-704 239.42,-698 239.42,-692 239.42,-692 239.42,-680 239.42,-680 239.42,-674 245.42,-668 251.42,-668 251.42,-668 363.47,-668 363.47,-668 369.47,-668 375.47,-674 375.47,-680 375.47,-680 375.47,-692 375.47,-692 375.47,-698 369.47,-704 363.47,-704"/>
<text text-anchor="middle" x="307.45" y="-680.2" font-family="Helvetica,Arial,sans-serif" font-size="14.00">compile&#45;arithcond</text>
</g>
<!-- compile&#45;arith&#45;&gt;compile&#45;arithcond -->
<g id="edge13" class="edge">
<title>compile&#45;arith&#45;&gt;compile&#45;arithcond</title>
<path fill="none" stroke="black" d="M147.64,-686C171.86,-686 201.06,-686 227.78,-686"/>
<polygon fill="black" stroke="black" points="227.55,-689.5 237.55,-686 227.55,-682.5 227.55,-689.5"/>
</g>
<!-- lang&#45;declarative&#45;graphics -->
<g id="node14" class="node">
<title>lang&#45;declarative&#45;graphics</title>
<path fill="white" stroke="none" d="M385.22,-52C385.22,-52 229.67,-52 229.67,-52 223.67,-52 217.67,-46 217.67,-40 217.67,-40 217.67,-28 217.67,-28 217.67,-22 223.67,-16 229.67,-16 229.67,-16 385.22,-16 385.22,-16 391.22,-16 397.22,-22 397.22,-28 397.22,-28 397.22,-40 397.22,-40 397.22,-46 391.22,-52 385.22,-52"/>
<text text-anchor="middle" x="307.45" y="-28.2" font-family="Helvetica,Arial,sans-serif" font-size="14.00">lang&#45;declarative&#45;graphics</text>
</g>
<!-- lang&#45;fractal&#45;tree&#45;rewriting -->
<g id="node16" class="node">
<title>lang&#45;fractal&#45;tree&#45;rewriting</title>
<path fill="white" stroke="none" d="M611.65,-79C611.65,-79 456.85,-79 456.85,-79 450.85,-79 444.85,-73 444.85,-67 444.85,-67 444.85,-55 444.85,-55 444.85,-49 450.85,-43 456.85,-43 456.85,-43 611.65,-43 611.65,-43 617.65,-43 623.65,-49 623.65,-55 623.65,-55 623.65,-67 623.65,-67 623.65,-73 617.65,-79 611.65,-79"/>
<text text-anchor="middle" x="534.25" y="-55.2" font-family="Helvetica,Arial,sans-serif" font-size="14.00">lang&#45;fractal&#45;tree&#45;rewriting</text>
</g>
<!-- lang&#45;declarative&#45;graphics&#45;&gt;lang&#45;fractal&#45;tree&#45;rewriting -->
<g id="edge16" class="edge">
<title>lang&#45;declarative&#45;graphics&#45;&gt;lang&#45;fractal&#45;tree&#45;rewriting</title>
<path fill="none" stroke="black" d="M397.62,-44.71C409.32,-46.12 421.38,-47.56 433.25,-48.99"/>
<polygon fill="black" stroke="black" points="432.71,-52.45 443.05,-50.17 433.54,-45.5 432.71,-52.45"/>
</g>
<!-- lang&#45;fractal&#45;growth -->
<g id="node15" class="node">
<title>lang&#45;fractal&#45;growth</title>
<path fill="white" stroke="none" d="M365.72,-106C365.72,-106 249.17,-106 249.17,-106 243.17,-106 237.17,-100 237.17,-94 237.17,-94 237.17,-82 237.17,-82 237.17,-76 243.17,-70 249.17,-70 249.17,-70 365.72,-70 365.72,-70 371.72,-70 377.72,-76 377.72,-82 377.72,-82 377.72,-94 377.72,-94 377.72,-100 371.72,-106 365.72,-106"/>
<text text-anchor="middle" x="307.45" y="-82.2" font-family="Helvetica,Arial,sans-serif" font-size="14.00">lang&#45;fractal&#45;growth</text>
</g>
<!-- lang&#45;fractal&#45;growth&#45;&gt;lang&#45;fractal&#45;tree&#45;rewriting -->
<g id="edge15" class="edge">
<title>lang&#45;fractal&#45;growth&#45;&gt;lang&#45;fractal&#45;tree&#45;rewriting</title>
<path fill="none" stroke="black" d="M378.04,-79.64C395.53,-77.54 414.64,-75.25 433.29,-73.01"/>
<polygon fill="black" stroke="black" points="433.5,-76.51 443.01,-71.84 432.66,-69.56 433.5,-76.51"/>
</g>
<!-- lang&#45;shader&#45;graphics -->
<g id="node17" class="node">
<title>lang&#45;shader&#45;graphics</title>
<path fill="white" stroke="none" d="M373.22,-160C373.22,-160 241.67,-160 241.67,-160 235.67,-160 229.67,-154 229.67,-148 229.67,-148 229.67,-136 229.67,-136 229.67,-130 235.67,-124 241.67,-124 241.67,-124 373.22,-124 373.22,-124 379.22,-124 385.22,-130 385.22,-136 385.22,-136 385.22,-148 385.22,-148 385.22,-154 379.22,-160 373.22,-160"/>
<text text-anchor="middle" x="307.45" y="-136.2" font-family="Helvetica,Arial,sans-serif" font-size="14.00">lang&#45;shader&#45;graphics</text>
</g>
<!-- lang&#45;datalog -->
<g id="node18" class="node">
<title>lang&#45;datalog</title>
<path fill="white" stroke="none" d="M346.97,-214C346.97,-214 267.92,-214 267.92,-214 261.92,-214 255.92,-208 255.92,-202 255.92,-202 255.92,-190 255.92,-190 255.92,-184 261.92,-178 267.92,-178 267.92,-178 346.97,-178 346.97,-178 352.97,-178 358.97,-184 358.97,-190 358.97,-190 358.97,-202 358.97,-202 358.97,-208 352.97,-214 346.97,-214"/>
<text text-anchor="middle" x="307.45" y="-190.2" font-family="Helvetica,Arial,sans-serif" font-size="14.00">lang&#45;datalog</text>
</g>
<!-- lang&#45;lc&#45;interpreters -->
<g id="node20" class="node">
<title>lang&#45;lc&#45;interpreters</title>
<path fill="white" stroke="none" d="M366.1,-322C366.1,-322 248.8,-322 248.8,-322 242.8,-322 236.8,-316 236.8,-310 236.8,-310 236.8,-298 236.8,-298 236.8,-292 242.8,-286 248.8,-286 248.8,-286 366.1,-286 366.1,-286 372.1,-286 378.1,-292 378.1,-298 378.1,-298 378.1,-310 378.1,-310 378.1,-316 372.1,-322 366.1,-322"/>
<text text-anchor="middle" x="307.45" y="-298.2" font-family="Helvetica,Arial,sans-serif" font-size="14.00">lang&#45;lc&#45;interpreters</text>
</g>
<!-- lang&#45;lc&#45;interpreters&#45;&gt;elab&#45;stlc&#45;bidirectional -->
<g id="edge14" class="edge">
<title>lang&#45;lc&#45;interpreters&#45;&gt;elab&#45;stlc&#45;bidirectional</title>
<path fill="none" stroke="black" d="M269.08,-322.37C250.24,-332.03 227.28,-344.46 207.55,-357 179.06,-375.1 148.45,-398.15 126.32,-415.52"/>
<polygon fill="black" stroke="black" points="124.25,-412.7 118.58,-421.65 128.59,-418.19 124.25,-412.7"/>
</g>
</g>
</svg>
