<?xml version="1.0" encoding="UTF-8" standalone="no"?>
<!DOCTYPE svg PUBLIC "-//W3C//DTD SVG 1.1//EN"
 "http://www.w3.org/Graphics/SVG/1.1/DTD/svg11.dtd">
<!-- Generated by graphviz version 12.2.1 (0)
 -->
<!-- Title: garden Pages: 1 -->
<svg width="850pt" height="805pt"
 viewBox="0.00 0.00 849.70 805.00" xmlns="http://www.w3.org/2000/svg" xmlns:xlink="http://www.w3.org/1999/xlink">
<g id="graph0" class="graph" transform="scale(1 1) rotate(0) translate(4 801)">
<title>garden</title>
<polygon fill="white" stroke="none" points="-4,4 -4,-801 845.7,-801 845.7,4 -4,4"/>
<g id="clust1" class="cluster">
<title>elab</title>
<path fill="gainsboro" stroke="none" d="M20,-361C20,-361 821.7,-361 821.7,-361 827.7,-361 833.7,-367 833.7,-373 833.7,-373 833.7,-694 833.7,-694 833.7,-700 827.7,-706 821.7,-706 821.7,-706 20,-706 20,-706 14,-706 8,-700 8,-694 8,-694 8,-373 8,-373 8,-367 14,-361 20,-361"/>
<text text-anchor="middle" x="420.85" y="-688.7" font-family="Helvetica,Arial,sans-serif" font-size="14.00">elab</text>
</g>
<g id="clust2" class="cluster">
<title>compile</title>
<path fill="gainsboro" stroke="none" d="M44.38,-714C44.38,-714 377.47,-714 377.47,-714 383.47,-714 389.47,-720 389.47,-726 389.47,-726 389.47,-777 389.47,-777 389.47,-783 383.47,-789 377.47,-789 377.47,-789 44.38,-789 44.38,-789 38.37,-789 32.38,-783 32.38,-777 32.38,-777 32.38,-726 32.38,-726 32.38,-720 38.38,-714 44.38,-714"/>
<text text-anchor="middle" x="210.92" y="-771.7" font-family="Helvetica,Arial,sans-serif" font-size="14.00">compile</text>
</g>
<g id="clust3" class="cluster">
<title>lang</title>
<path fill="gainsboro" stroke="none" d="M227.67,-8C227.67,-8 631.65,-8 631.65,-8 637.65,-8 643.65,-14 643.65,-20 643.65,-20 643.65,-341 643.65,-341 643.65,-347 637.65,-353 631.65,-353 631.65,-353 227.67,-353 227.67,-353 221.67,-353 215.67,-347 215.67,-341 215.67,-341 215.67,-20 215.67,-20 215.67,-14 221.67,-8 227.67,-8"/>
<text text-anchor="middle" x="429.66" y="-335.7" font-family="Helvetica,Arial,sans-serif" font-size="14.00">lang</text>
</g>
<!-- elab&#45;dependent -->
<g id="node1" class="node">
<title>elab&#45;dependent</title>
<path fill="white" stroke="none" d="M362.72,-405C362.72,-405 264.17,-405 264.17,-405 258.17,-405 252.17,-399 252.17,-393 252.17,-393 252.17,-381 252.17,-381 252.17,-375 258.17,-369 264.17,-369 264.17,-369 362.72,-369 362.72,-369 368.72,-369 374.72,-375 374.72,-381 374.72,-381 374.72,-393 374.72,-393 374.72,-399 368.72,-405 362.72,-405"/>
<text text-anchor="middle" x="313.45" y="-381.2" font-family="Helvetica,Arial,sans-serif" font-size="14.00">elab&#45;dependent</text>
</g>
<!-- elab&#45;dependent&#45;sugar -->
<g id="node2" class="node">
<title>elab&#45;dependent&#45;sugar</title>
<path fill="white" stroke="none" d="M614.65,-405C614.65,-405 477.85,-405 477.85,-405 471.85,-405 465.85,-399 465.85,-393 465.85,-393 465.85,-381 465.85,-381 465.85,-375 471.85,-369 477.85,-369 477.85,-369 614.65,-369 614.65,-369 620.65,-369 626.65,-375 626.65,-381 626.65,-381 626.65,-393 626.65,-393 626.65,-399 620.65,-405 614.65,-405"/>
<text text-anchor="middle" x="546.25" y="-381.2" font-family="Helvetica,Arial,sans-serif" font-size="14.00">elab&#45;dependent&#45;sugar</text>
</g>
<!-- elab&#45;dependent&#45;&gt;elab&#45;dependent&#45;sugar -->
<g id="edge12" class="edge">
<title>elab&#45;dependent&#45;&gt;elab&#45;dependent&#45;sugar</title>
<path fill="none" stroke="black" d="M375.09,-387C399.28,-387 427.65,-387 454.22,-387"/>
<polygon fill="black" stroke="black" points="453.96,-390.5 463.96,-387 453.96,-383.5 453.96,-390.5"/>
</g>
<!-- elab&#45;record&#45;patching -->
<g id="node3" class="node">
<title>elab&#45;record&#45;patching</title>
<path fill="white" stroke="none" d="M813.7,-405C813.7,-405 685.15,-405 685.15,-405 679.15,-405 673.15,-399 673.15,-393 673.15,-393 673.15,-381 673.15,-381 673.15,-375 679.15,-369 685.15,-369 685.15,-369 813.7,-369 813.7,-369 819.7,-369 825.7,-375 825.7,-381 825.7,-381 825.7,-393 825.7,-393 825.7,-399 819.7,-405 813.7,-405"/>
<text text-anchor="middle" x="749.42" y="-381.2" font-family="Helvetica,Arial,sans-serif" font-size="14.00">elab&#45;record&#45;patching</text>
</g>
<!-- elab&#45;dependent&#45;sugar&#45;&gt;elab&#45;record&#45;patching -->
<g id="edge13" class="edge">
<title>elab&#45;dependent&#45;sugar&#45;&gt;elab&#45;record&#45;patching</title>
<path fill="none" stroke="black" d="M627.05,-387C638.32,-387 649.96,-387 661.36,-387"/>
<polygon fill="black" stroke="black" points="661.14,-390.5 671.14,-387 661.14,-383.5 661.14,-390.5"/>
</g>
<!-- elab&#45;system&#45;f&#45;bidirectional -->
<g id="node4" class="node">
<title>elab&#45;system&#45;f&#45;bidirectional</title>
<path fill="white" stroke="none" d="M394.97,-459C394.97,-459 231.92,-459 231.92,-459 225.92,-459 219.92,-453 219.92,-447 219.92,-447 219.92,-435 219.92,-435 219.92,-429 225.92,-423 231.92,-423 231.92,-423 394.97,-423 394.97,-423 400.97,-423 406.97,-429 406.97,-435 406.97,-435 406.97,-447 406.97,-447 406.97,-453 400.97,-459 394.97,-459"/>
<text text-anchor="middle" x="313.45" y="-435.2" font-family="Helvetica,Arial,sans-serif" font-size="14.00">elab&#45;system&#45;f&#45;bidirectional</text>
</g>
<!-- elab&#45;system&#45;f&#45;unification -->
<g id="node5" class="node">
<title>elab&#45;system&#45;f&#45;unification</title>
<path fill="white" stroke="none" d="M622.15,-459C622.15,-459 470.35,-459 470.35,-459 464.35,-459 458.35,-453 458.35,-447 458.35,-447 458.35,-435 458.35,-435 458.35,-429 464.35,-423 470.35,-423 470.35,-423 622.15,-423 622.15,-423 628.15,-423 634.15,-429 634.15,-435 634.15,-435 634.15,-447 634.15,-447 634.15,-453 628.15,-459 622.15,-459"/>
<text text-anchor="middle" x="546.25" y="-435.2" font-family="Helvetica,Arial,sans-serif" font-size="14.00">elab&#45;system&#45;f&#45;unification</text>
</g>
<!-- elab&#45;system&#45;f&#45;bidirectional&#45;&gt;elab&#45;system&#45;f&#45;unification -->
<g id="edge11" class="edge">
<title>elab&#45;system&#45;f&#45;bidirectional&#45;&gt;elab&#45;system&#45;f&#45;unification</title>
<path fill="none" stroke="black" d="M407.33,-441C420.31,-441 433.69,-441 446.77,-441"/>
<polygon fill="black" stroke="black" points="446.66,-444.5 456.66,-441 446.66,-437.5 446.66,-444.5"/>
</g>
<!-- elab&#45;stlc&#45;bidirectional -->
<g id="node6" class="node">
<title>elab&#45;stlc&#45;bidirectional</title>
<path fill="white" stroke="none" d="M159.55,-486C159.55,-486 28,-486 28,-486 22,-486 16,-480 16,-474 16,-474 16,-462 16,-462 16,-456 22,-450 28,-450 28,-450 159.55,-450 159.55,-450 165.55,-450 171.55,-456 171.55,-462 171.55,-462 171.55,-474 171.55,-474 171.55,-480 165.55,-486 159.55,-486"/>
<text text-anchor="middle" x="93.77" y="-462.2" font-family="Helvetica,Arial,sans-serif" font-size="14.00">elab&#45;stlc&#45;bidirectional</text>
</g>
<!-- elab&#45;stlc&#45;bidirectional&#45;&gt;elab&#45;dependent -->
<g id="edge6" class="edge">
<title>elab&#45;stlc&#45;bidirectional&#45;&gt;elab&#45;dependent</title>
<path fill="none" stroke="black" d="M128.58,-449.68C150.6,-438.28 180.22,-423.95 207.55,-414 218.26,-410.1 229.78,-406.53 241.13,-403.36"/>
<polygon fill="black" stroke="black" points="241.72,-406.82 250.46,-400.83 239.9,-400.07 241.72,-406.82"/>
</g>
<!-- elab&#45;stlc&#45;bidirectional&#45;&gt;elab&#45;system&#45;f&#45;bidirectional -->
<g id="edge5" class="edge">
<title>elab&#45;stlc&#45;bidirectional&#45;&gt;elab&#45;system&#45;f&#45;bidirectional</title>
<path fill="none" stroke="black" d="M171.83,-458.44C183.62,-456.98 195.97,-455.45 208.23,-453.93"/>
<polygon fill="black" stroke="black" points="208.46,-457.43 217.96,-452.72 207.6,-450.48 208.46,-457.43"/>
</g>
<!-- elab&#45;stlc&#45;unification -->
<g id="node7" class="node">
<title>elab&#45;stlc&#45;unification</title>
<path fill="white" stroke="none" d="M373.6,-513C373.6,-513 253.3,-513 253.3,-513 247.3,-513 241.3,-507 241.3,-501 241.3,-501 241.3,-489 241.3,-489 241.3,-483 247.3,-477 253.3,-477 253.3,-477 373.6,-477 373.6,-477 379.6,-477 385.6,-483 385.6,-489 385.6,-489 385.6,-501 385.6,-501 385.6,-507 379.6,-513 373.6,-513"/>
<text text-anchor="middle" x="313.45" y="-489.2" font-family="Helvetica,Arial,sans-serif" font-size="14.00">elab&#45;stlc&#45;unification</text>
</g>
<!-- elab&#45;stlc&#45;bidirectional&#45;&gt;elab&#45;stlc&#45;unification -->
<g id="edge3" class="edge">
<title>elab&#45;stlc&#45;bidirectional&#45;&gt;elab&#45;stlc&#45;unification</title>
<path fill="none" stroke="black" d="M171.83,-477.56C190.55,-479.88 210.65,-482.37 229.63,-484.73"/>
<polygon fill="black" stroke="black" points="229.11,-488.19 239.46,-485.95 229.97,-481.24 229.11,-488.19"/>
</g>
<!-- elab&#45;stlc&#45;bidirectional&#45;stratify -->
<g id="node8" class="node">
<title>elab&#45;stlc&#45;bidirectional&#45;stratify</title>
<path fill="white" stroke="none" d="M401.35,-567C401.35,-567 225.55,-567 225.55,-567 219.55,-567 213.55,-561 213.55,-555 213.55,-555 213.55,-543 213.55,-543 213.55,-537 219.55,-531 225.55,-531 225.55,-531 401.35,-531 401.35,-531 407.35,-531 413.35,-537 413.35,-543 413.35,-543 413.35,-555 413.35,-555 413.35,-561 407.35,-567 401.35,-567"/>
<text text-anchor="middle" x="313.45" y="-543.2" font-family="Helvetica,Arial,sans-serif" font-size="14.00">elab&#45;stlc&#45;bidirectional&#45;stratify</text>
</g>
<!-- elab&#45;stlc&#45;bidirectional&#45;&gt;elab&#45;stlc&#45;bidirectional&#45;stratify -->
<g id="edge2" class="edge">
<title>elab&#45;stlc&#45;bidirectional&#45;&gt;elab&#45;stlc&#45;bidirectional&#45;stratify</title>
<path fill="none" stroke="black" d="M128.58,-486.32C150.6,-497.72 180.22,-512.05 207.55,-522 212.53,-523.81 217.69,-525.56 222.93,-527.22"/>
<polygon fill="black" stroke="black" points="221.71,-530.51 232.3,-530.08 223.76,-523.82 221.71,-530.51"/>
</g>
<!-- elab&#45;stlc&#45;abstract -->
<g id="node9" class="node">
<title>elab&#45;stlc&#45;abstract</title>
<path fill="white" stroke="none" d="M367.22,-621C367.22,-621 259.67,-621 259.67,-621 253.67,-621 247.67,-615 247.67,-609 247.67,-609 247.67,-597 247.67,-597 247.67,-591 253.67,-585 259.67,-585 259.67,-585 367.22,-585 367.22,-585 373.22,-585 379.22,-591 379.22,-597 379.22,-597 379.22,-609 379.22,-609 379.22,-615 373.22,-621 367.22,-621"/>
<text text-anchor="middle" x="313.45" y="-597.2" font-family="Helvetica,Arial,sans-serif" font-size="14.00">elab&#45;stlc&#45;abstract</text>
</g>
<!-- elab&#45;stlc&#45;bidirectional&#45;&gt;elab&#45;stlc&#45;abstract -->
<g id="edge4" class="edge">
<title>elab&#45;stlc&#45;bidirectional&#45;&gt;elab&#45;stlc&#45;abstract</title>
<path fill="none" stroke="black" d="M108.72,-486.25C128.19,-510.45 165.86,-552.8 207.55,-576 216.48,-580.97 226.35,-585.05 236.35,-588.38"/>
<polygon fill="black" stroke="black" points="235.18,-591.69 245.77,-591.28 237.24,-585 235.18,-591.69"/>
</g>
<!-- elab&#45;stlc&#45;bidirectional&#45;recovery -->
<g id="node12" class="node">
<title>elab&#45;stlc&#45;bidirectional&#45;recovery</title>
<path fill="white" stroke="none" d="M407.35,-675C407.35,-675 219.55,-675 219.55,-675 213.55,-675 207.55,-669 207.55,-663 207.55,-663 207.55,-651 207.55,-651 207.55,-645 213.55,-639 219.55,-639 219.55,-639 407.35,-639 407.35,-639 413.35,-639 419.35,-645 419.35,-651 419.35,-651 419.35,-663 419.35,-663 419.35,-669 413.35,-675 407.35,-675"/>
<text text-anchor="middle" x="313.45" y="-651.2" font-family="Helvetica,Arial,sans-serif" font-size="14.00">elab&#45;stlc&#45;bidirectional&#45;recovery</text>
</g>
<!-- elab&#45;stlc&#45;bidirectional&#45;&gt;elab&#45;stlc&#45;bidirectional&#45;recovery -->
<g id="edge1" class="edge">
<title>elab&#45;stlc&#45;bidirectional&#45;&gt;elab&#45;stlc&#45;bidirectional&#45;recovery</title>
<path fill="none" stroke="black" d="M102.27,-486.27C117.1,-520.1 153.52,-592.45 207.55,-630 209.14,-631.11 210.78,-632.17 212.45,-633.19"/>
<polygon fill="black" stroke="black" points="210.57,-636.15 221.03,-637.83 213.91,-630 210.57,-636.15"/>
</g>
<!-- lang&#45;doc&#45;templates -->
<g id="node20" class="node">
<title>lang&#45;doc&#45;templates</title>
<path fill="white" stroke="none" d="M373.6,-268C373.6,-268 253.3,-268 253.3,-268 247.3,-268 241.3,-262 241.3,-256 241.3,-256 241.3,-244 241.3,-244 241.3,-238 247.3,-232 253.3,-232 253.3,-232 373.6,-232 373.6,-232 379.6,-232 385.6,-238 385.6,-244 385.6,-244 385.6,-256 385.6,-256 385.6,-262 379.6,-268 373.6,-268"/>
<text text-anchor="middle" x="313.45" y="-244.2" font-family="Helvetica,Arial,sans-serif" font-size="14.00">lang&#45;doc&#45;templates</text>
</g>
<!-- elab&#45;stlc&#45;bidirectional&#45;&gt;lang&#45;doc&#45;templates -->
<g id="edge7" class="edge">
<title>elab&#45;stlc&#45;bidirectional&#45;&gt;lang&#45;doc&#45;templates</title>
<path fill="none" stroke="black" d="M100.32,-449.51C112.82,-411.12 146.91,-322.59 207.55,-277 214.4,-271.85 222.13,-267.68 230.21,-264.31"/>
<polygon fill="black" stroke="black" points="231.42,-267.59 239.57,-260.83 228.98,-261.03 231.42,-267.59"/>
</g>
<!-- elab&#45;stlc&#45;unification&#45;&gt;elab&#45;system&#45;f&#45;unification -->
<g id="edge10" class="edge">
<title>elab&#45;stlc&#45;unification&#45;&gt;elab&#45;system&#45;f&#45;unification</title>
<path fill="none" stroke="black" d="M385.9,-478.28C407.85,-473.15 432.31,-467.42 455.34,-462.04"/>
<polygon fill="black" stroke="black" points="456.1,-465.45 465.04,-459.77 454.5,-458.64 456.1,-465.45"/>
</g>
<!-- elab&#45;stlc&#45;row&#45;unification -->
<g id="node10" class="node">
<title>elab&#45;stlc&#45;row&#45;unification</title>
<path fill="white" stroke="none" d="M619.52,-513C619.52,-513 472.97,-513 472.97,-513 466.97,-513 460.97,-507 460.97,-501 460.97,-501 460.97,-489 460.97,-489 460.97,-483 466.97,-477 472.97,-477 472.97,-477 619.52,-477 619.52,-477 625.52,-477 631.52,-483 631.52,-489 631.52,-489 631.52,-501 631.52,-501 631.52,-507 625.52,-513 619.52,-513"/>
<text text-anchor="middle" x="546.25" y="-489.2" font-family="Helvetica,Arial,sans-serif" font-size="14.00">elab&#45;stlc&#45;row&#45;unification</text>
</g>
<!-- elab&#45;stlc&#45;unification&#45;&gt;elab&#45;stlc&#45;row&#45;unification -->
<g id="edge9" class="edge">
<title>elab&#45;stlc&#45;unification&#45;&gt;elab&#45;stlc&#45;row&#45;unification</title>
<path fill="none" stroke="black" d="M385.9,-495C405.98,-495 428.16,-495 449.42,-495"/>
<polygon fill="black" stroke="black" points="449.27,-498.5 459.27,-495 449.27,-491.5 449.27,-498.5"/>
</g>
<!-- elab&#45;stlc&#45;letrec&#45;unification -->
<g id="node11" class="node">
<title>elab&#45;stlc&#45;letrec&#45;unification</title>
<path fill="white" stroke="none" d="M625.15,-567C625.15,-567 467.35,-567 467.35,-567 461.35,-567 455.35,-561 455.35,-555 455.35,-555 455.35,-543 455.35,-543 455.35,-537 461.35,-531 467.35,-531 467.35,-531 625.15,-531 625.15,-531 631.15,-531 637.15,-537 637.15,-543 637.15,-543 637.15,-555 637.15,-555 637.15,-561 631.15,-567 625.15,-567"/>
<text text-anchor="middle" x="546.25" y="-543.2" font-family="Helvetica,Arial,sans-serif" font-size="14.00">elab&#45;stlc&#45;letrec&#45;unification</text>
</g>
<!-- elab&#45;stlc&#45;unification&#45;&gt;elab&#45;stlc&#45;letrec&#45;unification -->
<g id="edge8" class="edge">
<title>elab&#45;stlc&#45;unification&#45;&gt;elab&#45;stlc&#45;letrec&#45;unification</title>
<path fill="none" stroke="black" d="M385.9,-511.72C407.85,-516.85 432.31,-522.58 455.34,-527.96"/>
<polygon fill="black" stroke="black" points="454.5,-531.36 465.04,-530.23 456.1,-524.55 454.5,-531.36"/>
</g>
<!-- compile&#45;arith -->
<g id="node13" class="node">
<title>compile&#45;arith</title>
<path fill="white" stroke="none" d="M135.17,-758C135.17,-758 52.37,-758 52.37,-758 46.37,-758 40.37,-752 40.37,-746 40.37,-746 40.37,-734 40.37,-734 40.37,-728 46.37,-722 52.37,-722 52.37,-722 135.17,-722 135.17,-722 141.17,-722 147.17,-728 147.17,-734 147.17,-734 147.17,-746 147.17,-746 147.17,-752 141.17,-758 135.17,-758"/>
<text text-anchor="middle" x="93.77" y="-734.2" font-family="Helvetica,Arial,sans-serif" font-size="14.00">compile&#45;arith</text>
</g>
<!-- compile&#45;arithcond -->
<g id="node14" class="node">
<title>compile&#45;arithcond</title>
<path fill="white" stroke="none" d="M369.47,-758C369.47,-758 257.42,-758 257.42,-758 251.42,-758 245.42,-752 245.42,-746 245.42,-746 245.42,-734 245.42,-734 245.42,-728 251.42,-722 257.42,-722 257.42,-722 369.47,-722 369.47,-722 375.47,-722 381.47,-728 381.47,-734 381.47,-734 381.47,-746 381.47,-746 381.47,-752 375.47,-758 369.47,-758"/>
<text text-anchor="middle" x="313.45" y="-734.2" font-family="Helvetica,Arial,sans-serif" font-size="14.00">compile&#45;arithcond</text>
</g>
<!-- compile&#45;arith&#45;&gt;compile&#45;arithcond -->
<g id="edge14" class="edge">
<title>compile&#45;arith&#45;&gt;compile&#45;arithcond</title>
<path fill="none" stroke="black" d="M147.47,-740C173.35,-740 205.06,-740 233.75,-740"/>
<polygon fill="black" stroke="black" points="233.47,-743.5 243.47,-740 233.47,-736.5 233.47,-743.5"/>
</g>
<!-- lang&#45;declarative&#45;graphics -->
<g id="node15" class="node">
<title>lang&#45;declarative&#45;graphics</title>
<path fill="white" stroke="none" d="M391.22,-52C391.22,-52 235.67,-52 235.67,-52 229.67,-52 223.67,-46 223.67,-40 223.67,-40 223.67,-28 223.67,-28 223.67,-22 229.67,-16 235.67,-16 235.67,-16 391.22,-16 391.22,-16 397.22,-16 403.22,-22 403.22,-28 403.22,-28 403.22,-40 403.22,-40 403.22,-46 397.22,-52 391.22,-52"/>
<text text-anchor="middle" x="313.45" y="-28.2" font-family="Helvetica,Arial,sans-serif" font-size="14.00">lang&#45;declarative&#45;graphics</text>
</g>
<!-- lang&#45;fractal&#45;tree&#45;rewriting -->
<g id="node17" class="node">
<title>lang&#45;fractal&#45;tree&#45;rewriting</title>
<path fill="white" stroke="none" d="M623.65,-79C623.65,-79 468.85,-79 468.85,-79 462.85,-79 456.85,-73 456.85,-67 456.85,-67 456.85,-55 456.85,-55 456.85,-49 462.85,-43 468.85,-43 468.85,-43 623.65,-43 623.65,-43 629.65,-43 635.65,-49 635.65,-55 635.65,-55 635.65,-67 635.65,-67 635.65,-73 629.65,-79 623.65,-79"/>
<text text-anchor="middle" x="546.25" y="-55.2" font-family="Helvetica,Arial,sans-serif" font-size="14.00">lang&#45;fractal&#45;tree&#45;rewriting</text>
</g>
<!-- lang&#45;declarative&#45;graphics&#45;&gt;lang&#45;fractal&#45;tree&#45;rewriting -->
<g id="edge17" class="edge">
<title>lang&#45;declarative&#45;graphics&#45;&gt;lang&#45;fractal&#45;tree&#45;rewriting</title>
<path fill="none" stroke="black" d="M403.68,-44.44C417.4,-46.04 431.63,-47.71 445.55,-49.34"/>
<polygon fill="black" stroke="black" points="444.79,-52.77 455.13,-50.46 445.61,-45.82 444.79,-52.77"/>
</g>
<!-- lang&#45;fractal&#45;growth -->
<g id="node16" class="node">
<title>lang&#45;fractal&#45;growth</title>
<path fill="white" stroke="none" d="M371.72,-106C371.72,-106 255.17,-106 255.17,-106 249.17,-106 243.17,-100 243.17,-94 243.17,-94 243.17,-82 243.17,-82 243.17,-76 249.17,-70 255.17,-70 255.17,-70 371.72,-70 371.72,-70 377.72,-70 383.72,-76 383.72,-82 383.72,-82 383.72,-94 383.72,-94 383.72,-100 377.72,-106 371.72,-106"/>
<text text-anchor="middle" x="313.45" y="-82.2" font-family="Helvetica,Arial,sans-serif" font-size="14.00">lang&#45;fractal&#45;growth</text>
</g>
<!-- lang&#45;fractal&#45;growth&#45;&gt;lang&#45;fractal&#45;tree&#45;rewriting -->
<g id="edge16" class="edge">
<title>lang&#45;fractal&#45;growth&#45;&gt;lang&#45;fractal&#45;tree&#45;rewriting</title>
<path fill="none" stroke="black" d="M384.01,-79.86C403.27,-77.61 424.57,-75.12 445.2,-72.7"/>
<polygon fill="black" stroke="black" points="445.55,-76.19 455.07,-71.55 444.73,-69.24 445.55,-76.19"/>
</g>
<!-- lang&#45;shader&#45;graphics -->
<g id="node18" class="node">
<title>lang&#45;shader&#45;graphics</title>
<path fill="white" stroke="none" d="M379.22,-160C379.22,-160 247.67,-160 247.67,-160 241.67,-160 235.67,-154 235.67,-148 235.67,-148 235.67,-136 235.67,-136 235.67,-130 241.67,-124 247.67,-124 247.67,-124 379.22,-124 379.22,-124 385.22,-124 391.22,-130 391.22,-136 391.22,-136 391.22,-148 391.22,-148 391.22,-154 385.22,-160 379.22,-160"/>
<text text-anchor="middle" x="313.45" y="-136.2" font-family="Helvetica,Arial,sans-serif" font-size="14.00">lang&#45;shader&#45;graphics</text>
</g>
<!-- lang&#45;datalog -->
<g id="node19" class="node">
<title>lang&#45;datalog</title>
<path fill="white" stroke="none" d="M352.97,-214C352.97,-214 273.92,-214 273.92,-214 267.92,-214 261.92,-208 261.92,-202 261.92,-202 261.92,-190 261.92,-190 261.92,-184 267.92,-178 273.92,-178 273.92,-178 352.97,-178 352.97,-178 358.97,-178 364.97,-184 364.97,-190 364.97,-190 364.97,-202 364.97,-202 364.97,-208 358.97,-214 352.97,-214"/>
<text text-anchor="middle" x="313.45" y="-190.2" font-family="Helvetica,Arial,sans-serif" font-size="14.00">lang&#45;datalog</text>
</g>
<!-- lang&#45;lc&#45;interpreters -->
<g id="node21" class="node">
<title>lang&#45;lc&#45;interpreters</title>
<path fill="white" stroke="none" d="M372.1,-322C372.1,-322 254.8,-322 254.8,-322 248.8,-322 242.8,-316 242.8,-310 242.8,-310 242.8,-298 242.8,-298 242.8,-292 248.8,-286 254.8,-286 254.8,-286 372.1,-286 372.1,-286 378.1,-286 384.1,-292 384.1,-298 384.1,-298 384.1,-310 384.1,-310 384.1,-316 378.1,-322 372.1,-322"/>
<text text-anchor="middle" x="313.45" y="-298.2" font-family="Helvetica,Arial,sans-serif" font-size="14.00">lang&#45;lc&#45;interpreters</text>
</g>
<!-- lang&#45;lc&#45;interpreters&#45;&gt;elab&#45;stlc&#45;bidirectional -->
<g id="edge15" class="edge">
<title>lang&#45;lc&#45;interpreters&#45;&gt;elab&#45;stlc&#45;bidirectional</title>
<path fill="none" stroke="black" d="M268.61,-322.43C249.11,-331.55 226.36,-343.49 207.55,-357 172.97,-381.83 138.93,-417.27 117.45,-441.38"/>
<polygon fill="black" stroke="black" points="115.1,-438.75 111.12,-448.57 120.35,-443.38 115.1,-438.75"/>
</g>
</g>
</svg>
